<?xml version="1.0" encoding="utf-8"?>
<!-- Generator: Adobe Illustrator 22.0.0, SVG Export Plug-In . SVG Version: 6.00 Build 0)  -->
<svg version="1.1" id="图层_1" xmlns="http://www.w3.org/2000/svg" xmlns:xlink="http://www.w3.org/1999/xlink" x="0px" y="0px"
	 viewBox="0 0 1000 1000" style="enable-background:new 0 0 1000 1000;" xml:space="preserve">
<path d="M296.3,502.5H114.6c-36.5-28.7-64-63.1-82.7-103S2.9,319.4,0.5,279c-2.3-40.4,2.9-79,15.7-115.8S48.7,96.4,75,73.5
	s59-36.5,97.8-40.7s82.7,5.2,131.6,28.5c46.6,22.5,85.6,56.7,117,102.5S479,261.9,500,320.9c20.2-59,46-111.4,77.4-157.2
	c31.4-45.8,70.4-79.9,117-102.5c49.7-23.3,93.9-32.8,132.7-28.5C866,37,898.6,50.6,925,73.5c26.4,22.9,46,52.8,58.8,89.6
	s18,75.5,15.7,115.8c-2.3,40.4-12.8,80.5-31.4,120.5c-18.6,40-46.2,74.3-82.7,103H702.6c10.1-17.9,19.4-34.2,27.9-48.9
	c7-13.2,13.8-25.4,20.4-36.7c6.6-11.3,10.7-18.8,12.2-22.7c2.3-5.4,6.6-16.9,12.8-34.3s10.7-34.5,13.4-51.2s1.7-29.3-2.9-37.8
	c-4.7-8.5-17.1-6.2-37.3,7c-27.2,17.9-49.5,45.2-66.9,82.1c-17.5,36.9-31.6,76.6-42.5,119.3c-10.9,42.7-18.8,84.8-23.9,126.3
	c-5,41.5-9.1,76.3-12.2,104.2c-3.1,27.9-5.8,57.2-8.1,87.9c-2.3,30.7-4.3,58.4-5.8,83.2c-2.3,30.3-3.9,59.4-4.7,87.3h-10.5h-149H415
	c-0.8-27.9-2.3-57-4.7-87.3c-1.6-24.8-3.7-52.6-6.4-83.2c-2.7-30.7-5.6-60-8.7-87.9c-3.1-27.9-7.2-62.7-12.2-104.2
	s-13-83.6-23.9-126.3c-10.9-42.7-25-82.5-42.5-119.3s-39.8-64.2-66.9-82.1c-20.2-13.2-32.6-15.5-37.3-7c-4.7,8.5-5.6,21.2-2.9,37.8
	c2.7,16.7,7.2,33.8,13.4,51.2c6.2,17.5,10.5,28.9,12.8,34.3c1.6,3.9,5.6,11.4,12.2,22.7c6.6,11.3,13.4,23.5,20.4,36.7
	C276.9,468.4,286.2,484.7,296.3,502.5L296.3,502.5z"/>
</svg>
