<?xml version="1.0" encoding="utf-8"?>
<!-- Generator: Adobe Illustrator 22.0.0, SVG Export Plug-In . SVG Version: 6.00 Build 0)  -->
<svg version="1.1" id="图层_1" xmlns="http://www.w3.org/2000/svg" xmlns:xlink="http://www.w3.org/1999/xlink" x="0px" y="0px"
	 viewBox="0 0 1000 1000" style="enable-background:new 0 0 1000 1000;" xml:space="preserve">
<path d="M5.7,4.2c15-3.9,32.8-5.1,53.3-3.6c17.4,1.6,38.3,5.5,62.8,11.8s53.3,17.8,86.4,34.3c22.1,11.8,42.4,26.2,61,43.2
	s35.7,35.1,51.5,54.5s30.8,38.5,45,57.4s28.4,36.1,42.6,51.5c14.2,15.4,28.6,28,43.2,37.9c14.6,9.9,30.6,14.8,48,14.8
	s33.5-4.9,48.5-14.8c15-9.9,29.6-22.5,43.8-37.9s28.4-32.6,42.6-51.5s29.2-38.1,45-57.4c15.8-19.3,33-37.5,51.5-54.5
	s38.9-31.4,61-43.2c32.4-16.6,61-28,85.8-34.3c24.9-6.3,46-10.3,63.3-11.8c20.5-1.6,38.3-0.4,53.3,3.6v187.1
	c-16.6-0.8-32.4,0-47.4,2.4c-13.4,1.6-27.6,4.3-42.6,8.3c-15,3.9-28,10.3-39.1,18.9c-8.7,6.3-18.9,16.4-30.8,30.2
	c-11.8,13.8-24.7,29.2-38.5,46.2c-13.8,17-28.4,34.3-43.8,52.1c-15.4,17.8-30.2,33.7-44.4,48c42.6,30.8,76.8,69.5,102.4,116
	c25.7,46.6,38.5,97.1,38.5,151.6c0,46.6-9.3,90.2-27.8,130.8c-18.5,40.7-43.8,76-75.8,106c-32,30-69.7,53.9-113.1,71.6
	c-43.4,17.8-89.6,26.6-138.5,26.6s-95.1-8.9-138.5-26.6c-43.4-17.8-81.1-41.6-113.1-71.6c-32-30-57.2-65.3-75.8-106
	c-18.5-40.7-27.8-84.3-27.8-130.8c0-56.8,13.4-108.9,40.3-156.3c26.8-47.4,62.8-86,107.7-116c-14.2-14.2-28.4-30-42.6-47.4
	c-14.2-17.4-28.2-34.3-42-50.9c-13.8-16.6-26.4-31.4-37.9-44.4c-11.4-13-21.1-22.7-29-29c-11.8-8.7-25.1-15-39.7-18.9
	c-14.6-3.9-28.6-6.7-42-8.3c-15-2.4-30.8-3.2-47.4-2.4L5.7,4.2L5.7,4.2z M332.5,663.7c0,22.1,4.1,42.8,12.4,62.2
	c8.3,19.3,19.7,36.3,34.3,50.9c14.6,14.6,31.8,26,51.5,34.3c19.7,8.3,40.7,12.4,62.8,12.4c22.1,0,43-4.1,62.8-12.4
	c19.7-8.3,37.1-19.7,52.1-34.3c15-14.6,26.6-31.6,34.9-50.9c8.3-19.3,12.4-40.1,12.4-62.2c0-22.1-4.1-42.8-12.4-62.2
	c-8.3-19.3-19.9-36.1-34.9-50.3c-15-14.2-32.4-25.5-52.1-33.7c-19.7-8.3-40.7-12.4-62.8-12.4c-22.1,0-43,4.1-62.8,12.4
	c-19.7,8.3-36.9,19.5-51.5,33.7c-14.6,14.2-26,31-34.3,50.3C336.6,620.9,332.5,641.6,332.5,663.7L332.5,663.7z"/>
</svg>
