<?xml version="1.0" encoding="utf-8"?>
<!-- Generator: Adobe Illustrator 22.0.0, SVG Export Plug-In . SVG Version: 6.00 Build 0)  -->
<svg version="1.1" id="图层_1" xmlns="http://www.w3.org/2000/svg" xmlns:xlink="http://www.w3.org/1999/xlink" x="0px" y="0px"
	 viewBox="0 0 1000 1000" style="enable-background:new 0 0 1000 1000;" xml:space="preserve">
<path d="M38.2,796c51.7-15.9,103.5-28,155.2-36.3V240.3C141.6,232,89.9,219.9,38.2,204V8.8c75.9,22.5,149.6,38.8,220.9,48.8
	c71.3,10,147.1,15,227.2,15c85.1,0,165.4-5.6,240.9-16.9S880.9,25.9,961.8,0v195.2c-28.4,9.2-56.5,17.3-84.5,24.4
	c-28,7.1-56.5,13.6-85.7,19.4V761c29.2,5.8,57.8,12.3,85.7,19.4c28,7.1,56.1,15.2,84.5,24.4V1000c-80.9-25.9-159.2-44.4-234.7-55.7
	c-75.5-11.3-155.8-16.9-240.9-16.9c-80.1,0-155.8,5-227.2,15c-71.3,10-145,26.3-220.9,48.8L38.2,796L38.2,796z M486.2,734.7
	c10.8,0,25,0.2,42.6,0.6c17.5,0.4,31.3,0.6,41.3,0.6V264.1h-83.9h-72.6v471.8c9.2,0,21.5-0.2,36.9-0.6S477.9,734.7,486.2,734.7z"/>
</svg>
