<?xml version="1.0" encoding="utf-8"?>
<!-- Generator: Adobe Illustrator 22.0.0, SVG Export Plug-In . SVG Version: 6.00 Build 0)  -->
<svg version="1.1" id="图层_1" xmlns="http://www.w3.org/2000/svg" xmlns:xlink="http://www.w3.org/1999/xlink" x="0px" y="0px"
	 viewBox="0 0 1000 1000" style="enable-background:new 0 0 1000 1000;" xml:space="preserve">
<path d="M40,275.9c21.2-35.3,49.6-67.6,85.3-97.1s76.5-54.7,122.4-75.9c45.9-21.2,95.5-37.6,148.8-49.4s109-17.6,167.1-17.6
	c76.9,0,149.4,9.6,217.6,28.8s133.7,51.6,196.5,97.1l1.2,202.4c-42.4-32.2-87.1-59.8-134.1-82.9C797.6,258,749.4,241,700,230
	c-49.4-11-99.8-15.1-151.2-12.4c-51.4,2.7-102.2,13.9-152.4,33.5c18,20.4,32.5,43.7,43.5,70c11,26.3,16.5,54.3,16.5,84.1
	c0,31.4-6.1,61-18.2,88.8c-12.2,27.8-28.4,52-48.8,72.4c-20.4,20.4-44.5,36.7-72.4,48.8s-57.5,18.2-88.8,18.2s-61-6.1-88.8-18.2
	s-52-28.4-72.4-48.8c-20.4-20.4-36.7-44.5-48.8-72.4S0,436.7,0,405.3C0,356.7,13.3,313.5,40,275.9L40,275.9z M227.1,450
	c13.3,0,24.5-4.5,33.5-13.5c9-9,13.5-20.2,13.5-33.5s-4.5-24.5-13.5-33.5c-9-9-20.2-13.5-33.5-13.5c-13.3,0-24.5,4.5-33.5,13.5
	c-9,9-13.5,20.2-13.5,33.5c0,13.3,4.5,24.5,13.5,33.5C202.5,445.5,213.7,450,227.1,450z M772.9,550c-13.3,0-24.5,4.5-33.5,13.5
	c-9,9-13.5,20.2-13.5,33.5c0,13.3,4.5,24.5,13.5,33.5c9,9,20.2,13.5,33.5,13.5c13.3,0,24.5-4.5,33.5-13.5s13.5-20.2,13.5-33.5
	c0-13.3-4.5-24.5-13.5-33.5C797.5,554.5,786.3,550,772.9,550z M960,724.1c-21.2,35.3-49.6,67.6-85.3,97.1
	c-35.7,29.4-76.5,54.7-122.4,75.9c-45.9,21.2-95.7,37.6-149.4,49.4c-53.7,11.8-109.2,17.6-166.5,17.6c-76.9,0-149.4-9.6-217.6-28.8
	c-68.2-19.2-133.7-51.6-196.5-97.1l-1.2-202.4c42.4,32.2,87.1,59.8,134.1,82.9C202.4,742,250.6,759,300,770
	c49.4,11,99.6,15.1,150.6,12.4c51-2.7,102-13.9,152.9-33.5c-18-20.4-32.5-43.7-43.5-70c-11-26.3-16.5-54.3-16.5-84.1
	c0-31.4,6.1-61,18.2-88.8c12.2-27.8,28.4-52,48.8-72.4c20.4-20.4,44.5-36.7,72.4-48.8c27.8-12.2,57.5-18.2,88.8-18.2
	c31.4,0,61,6.1,88.8,18.2c27.8,12.2,52,28.4,72.4,48.8c20.4,20.4,36.7,44.5,48.8,72.4c12.2,27.8,18.2,57.5,18.2,88.8
	c0,24.3-3.5,47.5-10.6,69.4C982.4,686.1,972.5,706.1,960,724.1L960,724.1z"/>
</svg>
