<?xml version="1.0" encoding="utf-8"?>
<!-- Generator: Adobe Illustrator 22.0.0, SVG Export Plug-In . SVG Version: 6.00 Build 0)  -->
<svg version="1.1" id="图层_1" xmlns="http://www.w3.org/2000/svg" xmlns:xlink="http://www.w3.org/1999/xlink" x="0px" y="0px"
	 viewBox="0 0 1000 1000" style="enable-background:new 0 0 1000 1000;" xml:space="preserve">
<path d="M316.3,605.2c13.9,0,25.5-4.8,34.8-14.5c9.3-9.7,13.9-21.1,13.9-34.2c0-13.1-4.6-24.5-13.9-34.2s-20.9-14.5-34.8-14.5
	c-13.1,0-24.3,4.8-33.6,14.5s-13.9,21.1-13.9,34.2c0,13.1,4.6,24.5,13.9,34.2C292,600.4,303.2,605.2,316.3,605.2z M83.4,556.5
	c0-31.7,6-61.4,18-89.2c12-27.8,28.4-52.3,49.3-73.6c20.9-21.2,45.2-38.1,73-50.4c27.8-12.4,57.6-18.5,89.2-18.5
	c-2.3-18.5-3.5-38.2-3.5-59.1c1.5-50.2,11.8-93.1,30.7-128.6c18.9-35.5,43.1-63.9,72.4-85.2s62.4-35.9,99.1-44
	c36.7-8.1,73.4-9.9,110.1-5.2C658.4,7.2,693.4,18,726.6,35c33.2,17,61.2,39.4,84,67.2c22.8,27.8,38.6,61,47.5,99.7
	c8.9,38.6,7.5,82.3-4.1,131c-17.8,72.6-40.6,142.6-68.4,209.8c-27.8,67.2-56,132.1-84.6,194.7c-13.1,29.4-19.1,51.2-18,65.5
	c1.2,14.3,5.6,23.4,13.3,27.2c7.7,3.9,16,3.5,24.9-1.2c8.9-4.6,14.5-11.6,16.8-20.9l178.5,3.5c-0.8,37.1-9.1,68.8-24.9,95
	c-15.8,26.3-36.1,46.9-60.8,62c-24.7,15.1-52.3,24.7-82.9,29s-60.3,3.1-89.2-3.5c-29-6.6-55.6-18.4-80-35.3s-43.3-39.4-56.8-67.2
	c-13.5-27.8-19.7-60.8-18.5-99.1S516,711,537.7,663.1c29.4-63.4,55.8-125.7,79.4-187.2s44.6-123,63.2-184.9c7-23.2,5-43.8-5.8-62
	c-10.8-18.2-25.5-31.5-44-40c-18.5-8.5-38.6-11.8-60.3-9.9c-21.6,1.9-39.6,10.6-53.9,26.1c-14.3,15.5-22.8,38.8-25.5,70.1
	c-2.7,31.3,5.6,72,24.9,122.3c8.5,21.6,15.8,45,22,70.1c6.2,25.1,9.3,50.8,9.3,77.1v11.6c0,32.5-6.2,62.8-18.5,91
	c-12.4,28.2-29,52.7-49.8,73.6c-20.9,20.9-45.4,37.3-73.6,49.3s-58.1,18-89.8,18s-61.6-6-89.8-18s-52.7-28.4-73.6-49.3
	c-20.9-20.9-37.5-45.4-49.8-73.6C89.5,619.3,83.4,589,83.4,556.5z"/>
</svg>
