<?xml version="1.0" encoding="utf-8"?>
<!-- Generator: Adobe Illustrator 22.0.0, SVG Export Plug-In . SVG Version: 6.00 Build 0)  -->
<svg version="1.1" id="图层_1" xmlns="http://www.w3.org/2000/svg" xmlns:xlink="http://www.w3.org/1999/xlink" x="0px" y="0px"
	 viewBox="0 0 1000 1000" style="enable-background:new 0 0 1000 1000;" xml:space="preserve">
<path d="M330.8,154c0-8.7-0.7-17.2-2.2-25.5c-1.4-8.3-4-16.4-7.6-24.4c-3.6-5.1-7-7.8-10.3-8.1c-3.3-0.4-6.3,0.2-9.2,1.6
	c-4.3,2.2-8.3,6.9-11.9,14.1s-5.4,17.4-5.4,30.4c0.7,90.4,0.2,182.2-1.6,275.5c-1.8,93.3-3.4,184.7-4.9,274.4H102V154
	c0-24.6-5.8-45.7-17.4-63.4S51.7,64,20.6,64H1.1C20.6,41.6,41,25.3,62.4,15.2S110.3,0,142.1,0c21,0,40.5,3.8,58.6,11.4
	c18.1,7.6,33.6,18.3,46.6,32l4.3-3.3l5.4-4.3c18.8-14.5,38.3-24,58.6-28.7c20.2-4.7,38.7-7,55.3-7c20.2,0,39.4,3.8,57.5,11.4
	c18.1,7.6,34,18.3,47.7,32l3.3-3.3l5.4-4.3c18.8-14.5,38.3-24,58.6-28.7c20.2-4.7,38.7-7,55.3-7c18.8,0,36.7,3.3,53.7,9.8
	c17,6.5,31.8,15.5,44.5,27.1c12.7,11.6,23,25.3,30.9,41.2s11.9,33.6,11.9,53.1c1.4,44.8,1.4,99.4,0,163.8c4.3-12.3,9.8-24.9,16.3-38
	c6.5-13,14.3-24.9,23.3-35.8c9-10.8,19.3-19.7,30.9-26.6c11.6-6.9,24.9-10.3,40.1-10.3c12.3,0,26.9,1.6,43.9,4.9
	c17,3.3,33.3,14.5,48.8,33.6s28.7,49.3,39.6,90.6c10.8,41.2,16.3,99.4,16.3,174.6c0,55-6.3,104.1-19,147.5
	c-12.7,43.4-28.6,81.5-47.7,114.4c-19.2,32.9-39.9,61.1-62.4,84.6c-22.4,23.5-43.4,42.8-62.9,58c5.1,2.2,10.1,3.6,15.2,4.3
	c5.1,0.7,10.5,1.1,16.3,1.1c13.7,0,26.4-2.2,38-6.5c11.6-4.3,22.1-9.4,31.5-15.2c10.1-6.5,19.9-14.1,29.3-22.8v61.8
	c-4.3,11.6-13,21.7-26,30.4c-10.8,8-26.4,15-46.6,21.1c-20.2,6.1-47.7,9.2-82.4,9.2c-38.3,0-71.6-6.1-99.8-18.4
	c-21,7.2-42.3,13.4-64,18.4c-21.7,5.1-41.6,9.4-59.7,13c-21,4.3-41.6,8-61.8,10.8v-67.2c10.1,0,21.3-1.4,33.6-4.3
	c10.1-2.2,22.2-5.1,36.3-8.7c14.1-3.6,29.5-9,46.1-16.3c-10.1-13.7-18.4-29.1-24.9-46.1c-6.5-17-11.7-34.5-15.7-52.6
	c-4-18.1-7-36.7-9.2-55.9c-2.2-19.2-3.6-38.1-4.3-56.9v-18.4V154c0-8.7-0.7-17.2-2.2-25.5c-1.4-8.3-4-16.4-7.6-24.4
	c-2.9-5.1-6-8-9.2-8.7c-3.3-0.7-6.3-0.4-9.2,1.1c-3.6,2.2-7.4,6.3-11.4,12.5c-4,6.1-6.3,15-7,26.6c0.7,41.2,0.9,85.9,0.5,133.9
	s-0.9,96.7-1.6,145.9s-1.6,97.6-2.7,145.3c-1.1,47.7-2,91.5-2.7,131.2H330.8L330.8,154L330.8,154z M737.5,466.4v4.3v18.4
	c-0.7,40.5-1.4,78.1-2.2,112.8c-0.7,34.7-1.1,64.7-1.1,90c0,23.9,0.9,45.4,2.7,64.5c1.8,19.2,4.5,36,8.1,50.4
	c27.5-31.1,50.3-70.7,68.3-118.8c18.1-48.1,27.1-107.2,27.1-177.3c0-66.5-2.5-116.1-7.6-148.6c-5.1-32.5-11.2-53.1-18.4-61.8
	c-7.2-8.7-15.2-8-23.9,2.2c-8.7,10.1-17,24.6-24.9,43.4c-8,18.8-14.5,39.6-19.5,62.4C741.1,431.1,738.3,450.5,737.5,466.4
	L737.5,466.4z"/>
</svg>
