<?xml version="1.0" encoding="utf-8"?>
<!-- Generator: Adobe Illustrator 22.0.0, SVG Export Plug-In . SVG Version: 6.00 Build 0)  -->
<svg version="1.1" id="图层_1" xmlns="http://www.w3.org/2000/svg" xmlns:xlink="http://www.w3.org/1999/xlink" x="0px" y="0px"
	 viewBox="0 0 1000 1000" style="enable-background:new 0 0 1000 1000;" xml:space="preserve">
<path d="M0,798.2h1000v186.4H0V798.2z M583.5,646.5V532.1c27.4-15.4,49.5-36.6,66.2-63.6c16.7-27,25.1-56.8,25.1-89.3
	c0-24-4.5-46.5-13.5-67.5c-9-21-21.4-39.2-37.3-54.6c-15.9-15.4-34.5-27.6-55.9-36.6c-21.4-9-44.1-13.5-68.1-13.5
	c-24.9,0-47.8,4.5-68.8,13.5c-21,9-39.6,21.2-55.9,36.6c-16.3,15.4-28.9,33.6-37.9,54.6c-9,21-13.5,43.5-13.5,67.5
	c0,32.6,8.1,62.1,24.4,88.7c16.3,26.6,37.7,47.1,64.3,61.7v117v72H0V530.8h149.1c-11.1-23.1-19.7-47.3-25.7-72.6
	c-6-25.3-9-51.6-9-79c0-49.7,10.1-96.8,30.2-141.4s47.6-83.1,82.3-115.7c34.7-32.6,75.6-58.5,122.8-77.8S446.9,15.4,500,15.4
	c53.1,0,103.3,9.6,150.4,28.9c47.1,19.3,88,45.2,122.8,77.8c34.7,32.6,62.1,71.1,82.3,115.7c20.1,44.6,30.2,91.7,30.2,141.4
	c0,27.4-3,53.8-9,79c-6,25.3-14.6,49.5-25.7,72.6H1000v187.7H583.5V646.5L583.5,646.5z"/>
</svg>
