<?xml version="1.0" encoding="utf-8"?>
<!-- Generator: Adobe Illustrator 22.0.0, SVG Export Plug-In . SVG Version: 6.00 Build 0)  -->
<svg version="1.1" id="图层_1" xmlns="http://www.w3.org/2000/svg" xmlns:xlink="http://www.w3.org/1999/xlink" x="0px" y="0px"
	 viewBox="0 0 1000 1000" style="enable-background:new 0 0 1000 1000;" xml:space="preserve">
<path d="M749,968.5c-28.9,0-54.1-3.1-75.4-9.3c-15.8-4.8-30.8-11.7-44.9-20.7c-14.1-9-29.1-24.8-44.9-47.5c-1.4-2.1-2.9-4.1-4.6-6.2
	c-1.7-2.1-3.3-4.5-4.6-7.2l-2.1-3.1c-15.2-26.2-25.3-55.4-30.5-87.8c-5.2-32.4-8.4-64.7-9.8-97.1l-1-17.6V176.1
	c0-7.6-0.5-15.5-1.5-23.8c-1-8.3-3.3-16.2-6.7-23.8c-5.5-7.6-11.7-9.6-18.6-6.2c-3.4,1.4-6.9,5-10.3,10.8
	c-3.4,5.9-5.9,14.3-7.2,25.3c0.7,39.3,0.9,82,0.5,128.1s-0.9,92.6-1.5,139.5s-1.4,93-2.1,138.4c-0.7,45.5-1.4,87.1-2.1,125H314
	V176.1c0-7.6-0.7-15.5-2.1-23.8c-1.4-8.3-3.8-16.2-7.2-23.8c-4.8-8.3-11-10.3-18.6-6.2c-3.4,2.1-7.1,6.5-10.8,13.4
	c-3.8,6.9-5.7,16.5-5.7,28.9c0.7,86.1,0.2,173.6-1.5,262.4s-3.3,176.3-4.6,262.4H96.1V176.1c0-22.7-5.5-42.7-16.5-59.9
	c-11-17.2-31.3-25.8-61-25.8H0C18.6,69,38.1,53.5,58.4,43.9s46-14.5,77-14.5c19.3,0,37.5,3.6,54.8,10.8c17.2,7.2,32,17.4,44.4,30.5
	l4.1-3.1l5.2-4.1c17.9-13.8,36.5-22.9,55.8-27.4s36.8-6.7,52.7-6.7c20,0,38.6,3.6,55.8,10.8s32,17.4,44.4,30.5l4.1-3.1l4.1-4.1
	c17.9-13.8,36.7-22.9,56.3-27.4c19.6-4.5,37.4-6.7,53.2-6.7c17.2,0,33.9,3.1,50.1,9.3c16.2,6.2,30.5,14.8,42.9,25.8
	s22.4,24.3,30,39.8c7.6,15.5,11.4,32.5,11.4,51.1v64c0,22.7-0.2,51.1-0.5,85.2c-0.3,34.1-0.7,70.2-1,108.5
	c-0.3,38.2-0.5,77-0.5,116.2c0,39.3-0.2,74.9-0.5,106.9s-0.3,59.2,0,81.6c0.3,22.4,0.9,35.6,1.5,39.8l2.1,12.4l3.1,15.5
	c5.5,20,11.5,36.5,18.1,49.6c6.5,13.1,14.1,23.2,22.7,30.5c8.6,7.2,18.4,12.1,29.4,14.5c11,2.4,23.4,3.6,37.2,3.6
	c11.7-1.4,23.1-4,34.1-7.7c11-3.8,20.7-8.1,28.9-12.9l-35.1-64l156,5.2l-62,166.3c0-0.7-2.9-6.2-8.8-16.5
	c-5.9-10.3-12.6-23.1-20.1-38.2c-4.1,4.8-9.8,10.3-17,16.5c-7.2,6.2-17,11.9-29.4,17s-27.9,9.6-46.5,13.4
	C797.5,966.6,775.1,968.5,749,968.5L749,968.5z"/>
</svg>
