<?xml version="1.0" encoding="utf-8"?>
<!-- Generator: Adobe Illustrator 22.0.0, SVG Export Plug-In . SVG Version: 6.00 Build 0)  -->
<svg version="1.1" id="图层_1" xmlns="http://www.w3.org/2000/svg" xmlns:xlink="http://www.w3.org/1999/xlink" x="0px" y="0px"
	 viewBox="0 0 1000 1000" style="enable-background:new 0 0 1000 1000;" xml:space="preserve">
<path d="M531.8,955.1L353.3,777.8L131.1,1000L2.5,872.7L226,649.2c-34.1-33.3-62-61.2-83.6-83.6l-53.7-52.4l-28.7-30
	c-6.7-5.8-10.4-9.6-11.2-11.2L176,344.6l177.3,177.3L638,237.2c-50.8-12.5-92-22.7-123.6-30.6c-31.6-7.9-56.4-14.1-74.3-18.7
	c-17.9-4.6-30.2-7.7-36.8-9.4l-12.5-2.5c-1.7-0.8-1.9-1-0.6-0.6c1.2,0.4,1,0.2-0.6-0.6L433.2,0l453.2,112.4l111.1,451.9l-176,43.7
	l-59.9-238.5L481.9,649.2l177.3,178.5L531.8,955.1z"/>
</svg>
