<?xml version="1.0" encoding="utf-8"?>
<!-- Generator: Adobe Illustrator 22.0.0, SVG Export Plug-In . SVG Version: 6.00 Build 0)  -->
<svg version="1.1" id="图层_1" xmlns="http://www.w3.org/2000/svg" xmlns:xlink="http://www.w3.org/1999/xlink" x="0px" y="0px"
	 viewBox="0 0 1000 1000" style="enable-background:new 0 0 1000 1000;" xml:space="preserve">
<path d="M735.2,416.5c17.9,0,36.2,4.3,54.9,12.9c18.7,8.6,35.3,21.2,50,37.7c14.7,16.5,26.7,36.8,36.1,60.8c9.3,24,14,51.5,14,82.3
	c0,32.3-8.3,61.9-24.8,88.8c-16.5,26.9-37.8,48.6-64,65.1c-26.2,16.5-55.4,26.7-87.7,30.7c-32.3,3.9-64.6-1.3-96.9-15.6
	c-12.9,29.4-27.3,58.1-43.1,86.1c-15.8,28-34.4,52.6-56,73.7c-21.5,21.2-46.1,37.5-73.7,49c-27.6,11.5-59.4,14.7-95.3,9.7
	c-6.5-0.7-12.2-1.6-17.2-2.7c-5-1.1-9.3-2.3-12.9-3.8c-4.3-1.4-7.9-2.9-10.8-4.3l18.3-155c12.2,1.4,25.1,0.4,38.7-3.2
	c13.6-3.6,26.4-8.3,38.2-14c11.8-5.7,22.1-12.2,30.7-19.4c8.6-7.2,14-14,16.1-20.4c5.7-15.8,12-34.6,18.8-56.5
	c6.8-21.9,14.9-45,24.2-69.4c-10-19.4-18.8-40.9-26.4-64.6s-14.2-50.2-19.9-79.6c-2.9-15.1-5.2-32.8-7-53.3s-3.2-41.1-4.3-61.9
	c-1.1-20.8-2.2-41.3-3.2-61.3c-1.1-20.1-2.5-38-4.3-53.8c-1.8-15.8-4.1-28.2-7-37.1c-2.9-9-6.5-12.7-10.8-11.3
	c-8.6-1.4-16,6.8-22.1,24.8s-11.3,40.4-15.6,67.3c-4.3,26.9-7.7,55.1-10.2,84.5c-2.5,29.4-4.1,54.5-4.8,75.3H213.2
	c-1.4-55.2-3-99.2-4.8-131.8c-1.8-32.6-4.1-59-7-79.1s-6.6-36.4-11.3-49c-4.7-12.6-11.3-26.4-19.9-41.4c-3.6-6.5-8.8-11.8-15.6-16.1
	c-6.8-4.3-13.5-7.5-19.9-9.7c-7.9-2.9-16.1-4.7-24.8-5.4V0c20.1,0,38.6,3.2,55.4,9.7s32.3,15.2,46.3,26.4c14,11.1,26.5,24,37.7,38.7
	c11.1,14.7,21,30,29.6,45.7l5.4-11.8c4.3-8.6,10-19,17.2-31.2c7.2-12.2,16.3-23.9,27.4-35C340,31.4,353.1,21.9,368.2,14
	s32.6-11.8,52.7-11.8c26.5,0,48.8,7.2,66.7,21.5c17.9,14.4,32.8,33.5,44.7,57.6c11.8,24,21.3,51.8,28.5,83.4
	c7.2,31.6,13.1,64.6,17.8,99s8.8,69.2,12.4,104.4c3.6,35.2,7.9,68.5,12.9,100.1c17.9-15.8,37.7-28.3,59.2-37.7
	C684.6,421.2,708.6,416.5,735.2,416.5L735.2,416.5z M730.9,633.9c3.6-0.7,7.2-3.8,10.8-9.1c3.6-5.4,5.9-10.9,7-16.7
	c1.1-5.7-0.2-11.1-3.8-16.1c-3.6-5-11.1-7.5-22.6-7.5c-7.9,1.4-15.2,6.3-22.1,14.5c-6.8,8.3-13.8,19.2-21,32.8
	C693.6,638.2,710.8,638.9,730.9,633.9L730.9,633.9z"/>
</svg>
