<?xml version="1.0" encoding="utf-8"?>
<!-- Generator: Adobe Illustrator 22.0.0, SVG Export Plug-In . SVG Version: 6.00 Build 0)  -->
<svg version="1.1" id="图层_1" xmlns="http://www.w3.org/2000/svg" xmlns:xlink="http://www.w3.org/1999/xlink" x="0px" y="0px"
	 viewBox="0 0 1000 1000" style="enable-background:new 0 0 1000 1000;" xml:space="preserve">
<path d="M0,479.3v-196L322.3,70.8l80.3,154.7L604.5,67.3l82.6,155.8L890.2,70.8L1000,233.8L996.5,490L841.8,311.7L629.3,466.4
	l-79.1-158.2L337.7,456.9l-89.7-152.3L0,479.3z M0,920.9V726.1l322.3-212.5l80.3,154.7L604.5,510l82.6,155.8l203.1-152.3L1000,675.3
	l-3.5,257.4L841.8,753.2L629.3,909.1l-79.1-158.2L337.7,899.6l-89.7-153.5L0,920.9z"/>
</svg>
