<?xml version="1.0" encoding="utf-8"?>
<!-- Generator: Adobe Illustrator 22.0.0, SVG Export Plug-In . SVG Version: 6.00 Build 0)  -->
<svg version="1.1" id="图层_1" xmlns="http://www.w3.org/2000/svg" xmlns:xlink="http://www.w3.org/1999/xlink" x="0px" y="0px"
	 viewBox="0 0 1000 1000" style="enable-background:new 0 0 1000 1000;" xml:space="preserve">
<path d="M560.5,428.7c8-89.4,29.1-170.9,63.5-244.3C658.3,111,702.2,49.5,755.7,0h196.4c-53.5,49.5-95.4,111-125.7,184.4
	s-48.7,154.9-55.1,244.3h156.9V606H774.9c8.8,82.2,28.5,157.1,59.3,224.6c30.7,67.5,71.3,124,121.6,169.5H760.5
	c-50.3-45.5-92.8-102-127.5-169.5S575.2,688.2,564.1,606H435.9c-11.2,82.2-33.9,157.1-68.3,224.6s-77,124-128.1,169.5H44.3
	c50.3-45.5,90.8-102,121.6-169.5s50.5-142.3,59.3-224.6H58.7V428.7h171.3c-6.4-89.4-24.8-170.9-55.1-244.3
	C144.5,111,102.6,49.5,49.1,0h195.2c53.5,49.5,97.6,111,132.3,184.4s55.7,154.9,62.9,244.3H560.5L560.5,428.7z"/>
</svg>
