<?xml version="1.0" encoding="utf-8"?>
<!-- Generator: Adobe Illustrator 22.0.0, SVG Export Plug-In . SVG Version: 6.00 Build 0)  -->
<svg version="1.1" id="图层_1" xmlns="http://www.w3.org/2000/svg" xmlns:xlink="http://www.w3.org/1999/xlink" x="0px" y="0px"
	 viewBox="0 0 1000 1000" style="enable-background:new 0 0 1000 1000;" xml:space="preserve">
<g>
	<path d="M710,42.7H69.4C29.8,42.7-2,74.5-2,114.1v771.4c0,39.6,31.8,71.4,71.4,71.4h430.2c1,0,2.1,0,2.6-0.5
		c-10.9-17.7-17.7-38.5-17.7-60.9v-37.5c0-63.5,51.6-115.1,115.1-115.1h10.9l44.3-53.6c-17.2-17.2-29.7-38-37.5-60.9
		c-27.6-82.8,17.2-172.9,100-200.5c16.1-5.7,33.3-8.3,50.5-8.3c4.7,0,8.9,0,13.5,0.5V114.1C781.9,75,749.6,42.7,710,42.7L710,42.7z
		 M172,228.7h182.3c19.8,0,35.9,16.1,35.9,35.9s-16.1,35.9-35.9,35.9H172c-19.8,0-35.9-16.1-35.9-35.9S152.2,228.7,172,228.7z
		 M465.2,722.4H172c-19.8,0-35.9-16.1-35.9-35.9c0-19.8,16.1-35.9,35.9-35.9h293.2c19.8,0,35.9,16.1,35.9,35.9
		C500.6,706.3,485,722.4,465.2,722.4z M518.8,511.5H172c-19.8,0-35.9-16.1-35.9-35.9s16.1-35.9,35.9-35.9h346.9
		c19.8,0,35.9,16.1,35.9,35.9C554.2,495.3,538.6,511.5,518.8,511.5z"/>
	<path d="M936.5,797.4h-36.5l-98.4-119.3c54.7-18.2,84.4-78.1,66.1-132.8c-14.6-43.8-55.7-71.4-99.5-71.4c-10.9,0-22.4,1.6-33.3,5.7
		c-54.7,18.2-84.4,78.1-66.1,132.8c10.4,31.2,34.9,55.7,66.1,66.1l-97.9,119.3h-36.5c-33.9,0-61.5,27.6-61.5,61.5v37
		c0,33.9,27.6,61.5,61.5,61.5h335.9c33.9,0,61.5-27.6,61.5-61.5v-37.5C997.5,825,970.4,797.4,936.5,797.4L936.5,797.4z"/>
</g>
</svg>
