<?xml version="1.0" encoding="utf-8"?>
<!-- Generator: Adobe Illustrator 22.0.0, SVG Export Plug-In . SVG Version: 6.00 Build 0)  -->
<svg version="1.1" id="图层_1" xmlns="http://www.w3.org/2000/svg" xmlns:xlink="http://www.w3.org/1999/xlink" x="0px" y="0px"
	 viewBox="0 0 1000 1000" style="enable-background:new 0 0 1000 1000;" xml:space="preserve">
<g>
	<path d="M189.6,296.2H1.2v130.5h188.4V296.2z M508.4,20.9H1.2v130.4h507.2L508.4,20.9L508.4,20.9z M769.3,702h188.4V571.5H769.3
		V702L769.3,702z M450.5,977.3h507.2V846.9H450.5V977.3L450.5,977.3z M615.6,194.8L1.2,792v185.3h183.4l642.7-577.7L615.6,194.8
		L615.6,194.8z M992.7,170.6C973.5,143.6,854.6,34,854.6,34s-31.4-25.7-61.5-5.4c-20.5,14.9-110.7,105.5-110.7,105.5l209.2,205.6
		l101.2-112.3C992.7,227.5,1011.8,199.1,992.7,170.6L992.7,170.6z"/>
</g>
</svg>
