<?xml version="1.0" encoding="utf-8"?>
<!-- Generator: Adobe Illustrator 22.0.0, SVG Export Plug-In . SVG Version: 6.00 Build 0)  -->
<svg version="1.1" id="图层_1" xmlns="http://www.w3.org/2000/svg" xmlns:xlink="http://www.w3.org/1999/xlink" x="0px" y="0px"
	 viewBox="0 0 1000 1000" style="enable-background:new 0 0 1000 1000;" xml:space="preserve">
<style type="text/css">
	.st0{fill:none;}
</style>
<g>
	<path d="M942.3,559.5c-14.4,0-28.7,5.5-39.6,16.4L649.5,829.1L508.8,688.5c-10.9-10.9-25.3-16.4-39.6-16.4s-28.7,5.5-39.6,16.4
		c-10.6,10.6-16.4,24.7-16.4,39.6c0,15,5.8,29.1,16.4,39.6L609.8,948c10.6,10.6,24.7,16.4,39.6,16.4c15,0,29-5.8,39.6-16.4
		L982,655.1c10.6-10.6,16.4-24.7,16.4-39.6c0-15-5.8-29.1-16.4-39.6C971,564.9,956.7,559.5,942.3,559.5z"/>
	<path class="st0" d="M189,420.2h372.7c19.4,0,35.2-15.8,35.2-35.2c0-19.4-15.8-35.2-35.2-35.2H189c-19.4,0-35.2,15.8-35.2,35.2
		C153.8,404.5,169.6,420.2,189,420.2z"/>
	<path class="st0" d="M189,230.2h500.2c19.4,0,35.2-15.8,35.2-35.2v0c0-19.4-15.8-35.2-35.2-35.2H189c-19.4,0-35.2,15.8-35.2,35.2v0
		C153.8,214.5,169.6,230.2,189,230.2z"/>
	<path class="st0" d="M280.7,539.8H189c-19.4,0-35.2,15.8-35.2,35.2c0,19.4,15.8,35.2,35.2,35.2h91.7c19.4,0,35.2-15.8,35.2-35.2
		C315.9,555.5,300.2,539.8,280.7,539.8z"/>
	<path d="M384.3,813.1c-22.7-22.7-35.2-52.9-35.2-85c0-32.1,12.5-62.3,35.2-84.9c22.7-22.7,52.8-35.2,84.9-35.2s62.3,12.5,84.9,35.2
		l95.3,95.3l226-226c0.4-0.4,0.8-0.7,1.2-1.1V125c0-69-56-125-125-125h-625c-69,0-125,56-125,125v750c0,69,56,125,125,125h445.3
		c-2.5-2.1-5-4.3-7.4-6.7L384.3,813.1z M153.8,195c0-19.4,15.8-35.2,35.2-35.2h500.2c19.4,0,35.2,15.8,35.2,35.2v0
		c0,19.4-15.8,35.2-35.2,35.2H189C169.6,230.2,153.8,214.5,153.8,195L153.8,195z M189,349.8h372.7c19.4,0,35.2,15.8,35.2,35.2
		c0,19.4-15.8,35.2-35.2,35.2H189c-19.4,0-35.2-15.8-35.2-35.2C153.8,365.6,169.6,349.8,189,349.8z M280.7,610.2H189
		c-19.4,0-35.2-15.8-35.2-35.2c0-19.4,15.8-35.2,35.2-35.2h91.7c19.4,0,35.2,15.8,35.2,35.2C315.9,594.4,300.2,610.2,280.7,610.2z"
		/>
</g>
</svg>
