<?xml version="1.0" encoding="utf-8"?>
<!-- Generator: Adobe Illustrator 22.0.0, SVG Export Plug-In . SVG Version: 6.00 Build 0)  -->
<svg version="1.1" id="图层_1" xmlns="http://www.w3.org/2000/svg" xmlns:xlink="http://www.w3.org/1999/xlink" x="0px" y="0px"
	 viewBox="0 0 1000 1000" style="enable-background:new 0 0 1000 1000;" xml:space="preserve">
<style type="text/css">
	.st0{stroke:#000000;stroke-miterlimit:10;}
</style>
<path class="st0" d="M990.3,503.3L990.3,503.3L523.8,37.5c-0.1-0.1-0.1-0.1-0.2-0.2c-12.9-12.8-33.8-12.8-46.6,0.2
	c-0.1,0.1-0.2,0.3-0.3,0.4c-0.1,0.1-0.3,0.2-0.4,0.3L9.7,503.3c-0.1,0.1-0.1,0.1-0.2,0.2C-3.3,516.4-3.2,537.2,9.7,550
	c13.1,12.7,33.8,12.7,46.9,0l47.9-47.7v437c0,18.2,14.8,32.9,33,32.9c0.2,0,0.4,0,0.7,0h724c0.1,0,0.2,0,0.4,0c0.1,0,0.2,0,0.4,0
	c0.3,0,0.7,0,1,0c17.8-0.4,31.9-15.1,31.6-32.7v-0.1V502.2l47.9,47.9c12.9,12.9,33.9,13,46.8,0
	C1003.2,537.2,1003.2,516.2,990.3,503.3z M829.6,906.4H170.5V436.6l329.9-328.9l329.2,328.7V906.4z"/>
</svg>
