<?xml version="1.0" encoding="utf-8"?>
<!-- Generator: Adobe Illustrator 22.0.0, SVG Export Plug-In . SVG Version: 6.00 Build 0)  -->
<svg version="1.1" id="图层_1" xmlns="http://www.w3.org/2000/svg" xmlns:xlink="http://www.w3.org/1999/xlink" x="0px" y="0px"
	 viewBox="0 0 1000 1000" style="enable-background:new 0 0 1000 1000;" xml:space="preserve">
<style type="text/css">
	.st0{fill:#040000;}
</style>
<g>
	<path class="st0" d="M588.9,666.7H411.1c-24.5,0-44.4,19.9-44.4,44.4v177.8c0,24.5,19.9,44.4,44.4,44.4h177.8
		c24.5,0,44.4-19.9,44.4-44.4V711.1C633.3,686.6,613.4,666.7,588.9,666.7z M566.7,866.7H433.3V733.3h133.3v133.4H566.7z"/>
	<path class="st0" d="M955.6,666.7H900V500c0-18.4-14.9-33.3-33.3-33.3H533.3V333.3h55.6c24.5,0,44.4-19.9,44.4-44.4V111.1
		c0-24.5-19.9-44.4-44.4-44.4H411.1c-24.5,0-44.4,19.9-44.4,44.4v177.8c0,24.5,19.9,44.4,44.4,44.4h55.6v133.3H133.3
		c-18.4,0-33.3,14.9-33.3,33.3v166.7H44.4C19.9,666.7,0,686.6,0,711.1v177.8c0,24.5,19.9,44.4,44.4,44.4h177.8
		c24.5,0,44.4-19.9,44.4-44.4V711.1c0-24.5-19.9-44.4-44.4-44.4h-55.6V533.3h666.7v133.3h-55.6c-24.5,0-44.4,19.9-44.4,44.4v177.8
		c0,24.5,19.9,44.4,44.4,44.4h177.8c24.5,0,44.4-19.9,44.4-44.4V711.1C1000,686.6,980.1,666.7,955.6,666.7z M200,733.3v133.3H66.7
		V733.3H200z M433.3,266.7V133.3h133.3v133.3H433.3V266.7z M933.3,866.7H800V733.3h133.3V866.7z"/>
</g>
</svg>
