<?xml version="1.0" encoding="utf-8"?>
<!-- Generator: Adobe Illustrator 22.0.0, SVG Export Plug-In . SVG Version: 6.00 Build 0)  -->
<svg version="1.1" id="图层_1" xmlns="http://www.w3.org/2000/svg" xmlns:xlink="http://www.w3.org/1999/xlink" x="0px" y="0px"
	 viewBox="0 0 1000 1000" style="enable-background:new 0 0 1000 1000;" xml:space="preserve">
<style type="text/css">
	.st0{fill:#070001;}
</style>
<path class="st0" d="M928,207.5H719v-67c0-39.7-32.3-72-72-72H353c-39.7,0-72,32.3-72,72v67H72c-39.7,0-72,32.3-72,72v233.3v64
	v282.7c0,39.7,32.3,72,72,72h856c39.7,0,72-32.3,72-72V576.8v-64V279.5C1000,239.8,967.7,207.5,928,207.5z M345,140.5
	c0-4.4,3.6-8,8-8h294c4.4,0,8,3.6,8,8v67H345V140.5z M928,867.5H72c-4.4,0-8-3.6-8-8V576.8h297.5v58.7c0,39.7,32.3,72,72,72h133
	c39.7,0,72-32.3,72-72v-58.7H936v282.7C936,863.9,932.4,867.5,928,867.5z M425.5,576.8h149v58.7c0,4.4-3.6,8-8,8h-133
	c-4.4,0-8-3.6-8-8V576.8z M64,512.8V279.5c0-4.4,3.6-8,8-8h856c4.4,0,8,3.6,8,8v233.3H64z"/>
</svg>
