<?xml version="1.0" encoding="utf-8"?>
<!-- Generator: Adobe Illustrator 22.0.0, SVG Export Plug-In . SVG Version: 6.00 Build 0)  -->
<svg version="1.1" id="图层_1" xmlns="http://www.w3.org/2000/svg" xmlns:xlink="http://www.w3.org/1999/xlink" x="0px" y="0px"
	 viewBox="0 0 1000 1000" style="enable-background:new 0 0 1000 1000;" xml:space="preserve">
<style type="text/css">
	.st0{fill:#070001;}
</style>
<path class="st0" d="M928,118H72c-39.7,0-72,32.3-72,72v620c0,39.7,32.3,72,72,72h856c39.7,0,72-32.3,72-72V190
	C1000,150.3,967.7,118,928,118z M72,182h856c4.4,0,8,3.6,8,8v39.2c0,0.8-0.1,1.7,0,2.6c0.4,15.5-5.3,30.1-16,41.3L543.1,584.7
	c-0.8,0.6-1.5,1.3-2.2,2c-24,24-63.1,24-87.1,0c-0.7-0.7-1.5-1.4-2.3-2.1L80,278.4c-10.3-10.8-16-24.9-16-39.9c0-0.4,0-0.9,0-1.3
	V190C64,185.6,67.6,182,72,182z M928,818H72c-4.4,0-8-3.6-8-8V348.2l345.7,285c24.3,23.7,56,35.6,87.6,35.6
	c31.7,0,63.3-11.9,87.6-35.6l351-290.3V810C936,814.4,932.4,818,928,818z"/>
</svg>
