<?xml version="1.0" encoding="utf-8"?>
<!-- Generator: Adobe Illustrator 22.0.0, SVG Export Plug-In . SVG Version: 6.00 Build 0)  -->
<svg version="1.1" id="图层_1" xmlns="http://www.w3.org/2000/svg" xmlns:xlink="http://www.w3.org/1999/xlink" x="0px" y="0px"
	 viewBox="0 0 1000 1000" style="enable-background:new 0 0 1000 1000;" xml:space="preserve">
<title>画板 1</title>
<g id="图层_2_1_">
	<path d="M383.5,908.2c-176.6-77.3-290.7-252-290.6-444.8c0-24.9,1.9-49.8,5.7-74.4C-31.5,517.8-33,727.5,95.1,858.2l-57.7,99.9
		l301.6-0.1c40.7-0.7,80.9-8.9,118.7-24.2C432.3,927.3,407.5,918.8,383.5,908.2z"/>
	<path d="M1000,463.4c0-232.8-188.7-421.6-421.6-421.6S156.9,230.6,156.9,463.4c0,230.2,184.5,417.2,413.6,421.5l382.1,0.1
		l-73.1-126.5C956.9,679.7,1000.1,573.8,1000,463.4z M687.5,596.7C649,657,568.9,674.6,508.7,636.1c-15.8-10.1-29.2-23.5-39.3-39.3
		c-9.5-14.9-5.2-34.7,9.7-44.2s34.7-5.2,44.2,9.7c19.5,30.5,60,39.4,90.4,19.9c8-5.1,14.8-11.9,19.9-19.9
		c9.5-14.9,29.3-19.2,44.2-9.7S697,581.9,687.5,596.7z"/>
</g>
</svg>
