<?xml version="1.0" encoding="utf-8"?>
<!-- Generator: Adobe Illustrator 22.0.0, SVG Export Plug-In . SVG Version: 6.00 Build 0)  -->
<svg version="1.1" id="图层_1" xmlns="http://www.w3.org/2000/svg" xmlns:xlink="http://www.w3.org/1999/xlink" x="0px" y="0px"
	 viewBox="0 0 1000 1000" style="enable-background:new 0 0 1000 1000;" xml:space="preserve">
<style type="text/css">
	.st0{fill:#040000;}
</style>
<g>
	<path class="st0" d="M1000,455.9c0-232.8-188.7-421.6-421.6-421.6c-193,0-355.7,129.7-405.7,306.7C69.8,397.6,0,507.1,0,632.9
		c0,90.7,36.3,172.9,95.1,232.9l-57.7,99.9l301.6-0.1c84.8-1.6,161.9-34.9,219.8-88.5c3.9,0.2,7.7,0.3,11.6,0.4l382.1,0.1L879.4,751
		C954,674.9,1000,570.8,1000,455.9z M338.4,901.6l-190.1,0.1l2.2-3.9l24.3-42.1l-34-34.7C91.3,770.4,64,703.6,64,632.9
		c0-36.3,7.1-71.5,21.1-104.6c13.5-32,32.9-60.7,57.6-85.5c4.8-4.8,9.9-9.5,15-13.9c-0.6,8.9-0.9,18-0.9,27
		c0,195.6,133.2,360.1,313.9,407.7C431.1,887.4,385.8,900.6,338.4,901.6z M612.3,813.4h-41.2c-12.4-0.2-24.7-1.1-36.9-2.6
		c-34.3-4.2-67.6-13.3-99.3-27.3c-41.8-18.4-79.3-44.3-111.5-77c-32.2-32.8-57.5-70.7-75.1-112.9c-18.2-43.6-27.5-89.9-27.5-137.7
		c0-23.9,2.3-47.5,6.9-70.6c4.7-23.5,11.7-46.4,21.1-68.6c1-2.3,2-4.5,3-6.8c17.8-39.9,42.6-75.8,73.7-106.9
		c32.9-32.9,71.1-58.6,113.7-76.7c44-18.6,90.9-28.1,139.2-28.1s95.1,9.4,139.2,28.1c42.6,18,80.8,43.8,113.7,76.7
		s58.6,71.1,76.7,113.7c18.6,44,28.1,90.9,28.1,139.2c0,47.7-9.2,93.9-27.4,137.4c-17.5,42.1-42.7,80-74.8,112.8l-34,34.7l24.3,42.1
		l17.6,30.5H612.3z"/>
	<path class="st0" d="M677.3,545c-14.9-9.5-34.7-5.2-44.2,9.7c-12.1,18.9-32.7,30.2-55.2,30.2c-22.4,0-43-11.3-55.2-30.2
		c-9.5-14.9-29.3-19.2-44.2-9.7c-14.9,9.5-19.2,29.3-9.7,44.2c23.9,37.4,64.7,59.7,109.1,59.7c44.4,0,85.1-22.3,109.1-59.7
		C696.5,574.3,692.2,554.6,677.3,545z"/>
</g>
</svg>
