<?xml version="1.0" encoding="utf-8"?>
<!-- Generator: Adobe Illustrator 22.0.0, SVG Export Plug-In . SVG Version: 6.00 Build 0)  -->
<svg version="1.1" id="图层_1" xmlns="http://www.w3.org/2000/svg" xmlns:xlink="http://www.w3.org/1999/xlink" x="0px" y="0px"
	 viewBox="0 0 1000 1000" style="enable-background:new 0 0 1000 1000;" xml:space="preserve">
<style type="text/css">
	.st0{fill:#040000;}
</style>
<g>
	<path class="st0" d="M602.1,432.7c2-1.8,3.9-3.7,5.8-5.6c28.4-28.9,44.1-66.7,44.1-106.5c0-40.9-15.7-79.2-44.3-107.7
		c-28.5-28.5-66.8-44.3-107.7-44.3s-79.2,15.7-107.7,44.3S348,279.6,348,320.6s15.7,79.2,44.3,107.7c1.6,1.6,3.3,3.2,5,4.7
		c-22.6,11-43.5,25.8-61.7,44c-35.1,35.1-57.5,79.8-64.9,128.5c-2.9,19,11.8,36.1,30.9,36.1h1.4c15.6,0,28.6-11.4,31-26.8
		c5.4-35.1,21.5-67.3,46.7-92.4c31.4-31.4,73.8-48.8,119.2-48.8s87.8,17.3,119.2,48.8c25.1,25.1,41.3,57.3,46.7,92.4
		c2.4,15.4,15.4,26.8,31,26.8h1.4c19.2,0,33.8-17.1,30.9-36.1c-7.4-48.7-29.8-93.4-64.8-128.4C646.1,458.7,625,443.8,602.1,432.7z
		 M500,232.6c49.3,0,88,38.7,88,88c0,22.6-9.4,45-25.7,61.6c-16.7,17-38.9,26.4-62.3,26.4c-49.3,0-88-38.7-88-88
		S450.7,232.6,500,232.6z"/>
	<path class="st0" d="M920,37H80C35.8,37,0,72.8,0,117v580c0,44.2,35.8,80,80,80h388v122H217c-17.7,0-32,14.3-32,32l0,0
		c0,17.7,14.3,32,32,32h566c17.7,0,32-14.3,32-32l0,0c0-17.7-14.3-32-32-32H532V777h388c44.2,0,80-35.8,80-80V117
		C1000,72.8,964.2,37,920,37z M936,697c0,8.8-7.2,16-16,16H80c-8.8,0-16-7.2-16-16V117c0-8.8,7.2-16,16-16h840c8.8,0,16,7.2,16,16
		V697z"/>
</g>
</svg>
