<?xml version="1.0" encoding="utf-8"?>
<!-- Generator: Adobe Illustrator 22.0.0, SVG Export Plug-In . SVG Version: 6.00 Build 0)  -->
<svg version="1.1" id="图层_1" xmlns="http://www.w3.org/2000/svg" xmlns:xlink="http://www.w3.org/1999/xlink" x="0px" y="0px"
	 viewBox="0 0 1000 1000" style="enable-background:new 0 0 1000 1000;" xml:space="preserve">
<style type="text/css">
	.st0{fill:#040000;}
</style>
<g>
	<g>
		<path class="st0" d="M340,64c8.8,0,16,7.2,16,16v260c0,8.8-7.2,16-16,16H80c-8.8,0-16-7.2-16-16V80c0-8.8,7.2-16,16-16H340 M340,0
			H80C35.8,0,0,35.8,0,80v260c0,44.2,35.8,80,80,80h260c44.2,0,80-35.8,80-80V80C420,35.8,384.2,0,340,0L340,0z"/>
	</g>
	<g>
		<path class="st0" d="M920,64c8.8,0,16,7.2,16,16v260c0,8.8-7.2,16-16,16H660c-8.8,0-16-7.2-16-16V80c0-8.8,7.2-16,16-16H920
			 M920,0H660c-44.2,0-80,35.8-80,80v260c0,44.2,35.8,80,80,80h260c44.2,0,80-35.8,80-80V80C1000,35.8,964.2,0,920,0L920,0z"/>
	</g>
	<g>
		<path class="st0" d="M340,644c8.8,0,16,7.2,16,16v260c0,8.8-7.2,16-16,16H80c-8.8,0-16-7.2-16-16V660c0-8.8,7.2-16,16-16H340
			 M340,580H80c-44.2,0-80,35.8-80,80v260c0,44.2,35.8,80,80,80h260c44.2,0,80-35.8,80-80V660C420,615.8,384.2,580,340,580L340,580z
			"/>
	</g>
	<g>
		<path class="st0" d="M920,644c8.8,0,16,7.2,16,16v260c0,8.8-7.2,16-16,16H660c-8.8,0-16-7.2-16-16V660c0-8.8,7.2-16,16-16H920
			 M920,580H660c-44.2,0-80,35.8-80,80v260c0,44.2,35.8,80,80,80h260c44.2,0,80-35.8,80-80V660C1000,615.8,964.2,580,920,580
			L920,580z"/>
	</g>
</g>
</svg>
