<?xml version="1.0" encoding="utf-8"?>
<!-- Generator: Adobe Illustrator 22.0.0, SVG Export Plug-In . SVG Version: 6.00 Build 0)  -->
<svg version="1.1" id="图层_1" xmlns="http://www.w3.org/2000/svg" xmlns:xlink="http://www.w3.org/1999/xlink" x="0px" y="0px"
	 viewBox="0 0 1000 1000" style="enable-background:new 0 0 1000 1000;" xml:space="preserve">
<style type="text/css">
	.st0{fill:#040000;}
</style>
<path class="st0" d="M975.9,614.7L821.4,804.9c-29.9,36.7-87,63.9-134.1,63.9H117.3C52.9,868.8,0,815.9,0,751.5V248.6
	c0-64.4,52.9-117.3,117.3-117.3H285c64.4,0,117.3,52.9,117.3,117.3v16.8h285c64.4,0,117.3,52.9,117.3,117.3v83.8h100.6
	c35.6,0,71.2,16.2,87,49.8c5.2,11,7.9,23,7.9,35.6C1000,574.9,990,596.9,975.9,614.7L975.9,614.7z M737.6,466.5v-83.8
	c0-27.8-22.5-50.3-50.3-50.3H385.6c-27.8,0-50.3-22.5-50.3-50.3v-33.5c0-27.8-22.5-50.3-50.3-50.3H117.3
	c-27.8,0-50.3,22.5-50.3,50.3v446.8l134.1-165c30.4-37.2,86.4-63.9,134.1-63.9L737.6,466.5L737.6,466.5z M905.2,533.5H335.3
	c-27.8,0-64.4,17.3-82.2,38.8L99,762.4c-4.7,6.3-9.4,13.1-9.4,21c0,14.7,16.2,18.3,27.8,18.3h569.9c27.8,0,64.4-17.3,82.2-39.3
	l154-190.1c4.7-5.8,9.4-12.6,9.4-20.4C932.9,537.2,916.7,533.5,905.2,533.5L905.2,533.5z"/>
</svg>
