<?xml version="1.0" encoding="utf-8"?>
<!-- Generator: Adobe Illustrator 22.0.0, SVG Export Plug-In . SVG Version: 6.00 Build 0)  -->
<svg version="1.1" id="图层_1" xmlns="http://www.w3.org/2000/svg" xmlns:xlink="http://www.w3.org/1999/xlink" x="0px" y="0px"
	 viewBox="0 0 1000 1000" style="enable-background:new 0 0 1000 1000;" xml:space="preserve">
<style type="text/css">
	.st0{fill:#040000;}
</style>
<g>
	<g>
		<path class="st0" d="M291.1,740.1l-5.6,13.5H355l2.8-5.2c29-54.7,97.4-94.8,165.8-97.3l14.3,0c68.8,2.6,137.1,42.6,166.2,97.3
			l2.8,5.2h69.5l-5.6-13.5c-20.6-50.1-67-96-125.8-125.4c54.6-37.6,87.9-99.6,87.9-166c0-111.6-90.8-202.4-202.4-202.4
			c-111.6,0-202.4,90.8-202.4,202.4c0,66.5,33.4,128.7,88.3,166.2C357.8,644.4,311.7,690.2,291.1,740.1z M392.3,448.7
			c0-76.2,62-138.2,138.2-138.2s138.2,62,138.2,138.2s-62,138.2-138.2,138.2S392.3,524.9,392.3,448.7z"/>
	</g>
	<g>
		<path class="st0" d="M900.5,1000h-740c-39.7,0-72-32.3-72-72v-96c0-17.7,14.3-32,32-32s32,14.3,32,32v96c0,4.4,3.6,8,8,8h740
			c4.4,0,8-3.6,8-8V72c0-4.4-3.6-8-8-8h-740c-4.4,0-8,3.6-8,8v96c0,17.7-14.3,32-32,32s-32-14.3-32-32V72c0-39.7,32.3-72,72-72h740
			c39.7,0,72,32.3,72,72v856C972.5,967.7,940.2,1000,900.5,1000z"/>
	</g>
	<g>
		<path class="st0" d="M179.5,325h-120c-17.7,0-32-14.3-32-32s14.3-32,32-32h120c17.7,0,32,14.3,32,32S197.2,325,179.5,325z"/>
	</g>
	<g>
		<path class="st0" d="M179.5,532h-120c-17.7,0-32-14.3-32-32c0-17.7,14.3-32,32-32h120c17.7,0,32,14.3,32,32
			C211.5,517.7,197.2,532,179.5,532z"/>
	</g>
	<g>
		<path class="st0" d="M179.5,739h-120c-17.7,0-32-14.3-32-32s14.3-32,32-32h120c17.7,0,32,14.3,32,32S197.2,739,179.5,739z"/>
	</g>
</g>
</svg>
