<?xml version="1.0" encoding="utf-8"?>
<!-- Generator: Adobe Illustrator 22.0.0, SVG Export Plug-In . SVG Version: 6.00 Build 0)  -->
<svg version="1.1" id="图层_1" xmlns="http://www.w3.org/2000/svg" xmlns:xlink="http://www.w3.org/1999/xlink" x="0px" y="0px"
	 viewBox="0 0 1000 1000" style="enable-background:new 0 0 1000 1000;" xml:space="preserve">
<style type="text/css">
	.st0{fill:#040000;}
</style>
<g>
	<g>
		<polygon class="st0" points="770.3,136.7 592.6,476.5 573.8,593.9 659.6,511.6 837.4,171.9 		"/>
		
			<rect x="800.6" y="36.5" transform="matrix(0.4629 -0.8864 0.8864 0.4629 388.3373 789.5715)" class="st0" width="90.3" height="75.7"/>
	</g>
	<path class="st0" d="M452.5,635.8l-19.7-17.2l-19.9,16.9L226.5,793.7c-12.7,10.8-14.3,30-3.5,42.7c10.8,12.7,30,14.3,42.7,3.5
		l166.5-141.3l177.9,156.1l21.3,18.7l20.1-20.1l161.3-161.3l45.4-45.4l-63.9-6.2l-130.2-12.6c-16.6-1.6-31.5,10.6-33.1,27.2
		c-1.6,16.6,10.6,31.5,27.2,33.1l66.3,6.5l-95.9,95.9L452.5,635.8L452.5,635.8z"/>
	<path class="st0" d="M215.9,415.7h181.7c16.7,0,30.3-13.6,30.3-30.3c0-16.7-13.6-30.3-30.3-30.3H215.9c-16.7,0-30.3,13.6-30.3,30.3
		C185.6,402.2,199.1,415.7,215.9,415.7z"/>
	<path class="st0" d="M215.9,294.6h181.7c16.7,0,30.3-13.6,30.3-30.3S414.3,234,397.6,234H215.9c-16.7,0-30.3,13.6-30.3,30.3
		S199.1,294.6,215.9,294.6z"/>
	<path class="st0" d="M215.9,536.9h181.7c16.7,0,30.3-13.6,30.3-30.3c0-16.7-13.6-30.3-30.3-30.3H215.9c-16.7,0-30.3,13.5-30.3,30.3
		C185.6,523.3,199.1,536.9,215.9,536.9z"/>
	<g>
		<path class="st0" d="M890,1000H110c-39.7,0-72-32.3-72-72V72c0-39.7,32.3-72,72-72h519c17.7,0,32,14.3,32,32s-14.3,32-32,32H110
			c-4.4,0-8,3.6-8,8V928c0,4.4,3.6,8,8,8H890c4.4,0,8-3.6,8-8V329c0-17.7,14.3-32,32-32s32,14.3,32,32v599
			C962,967.7,929.7,1000,890,1000z"/>
	</g>
</g>
</svg>
