<?xml version="1.0" encoding="utf-8"?>
<!-- Generator: Adobe Illustrator 22.0.0, SVG Export Plug-In . SVG Version: 6.00 Build 0)  -->
<svg version="1.1" id="图层_1" xmlns="http://www.w3.org/2000/svg" xmlns:xlink="http://www.w3.org/1999/xlink" x="0px" y="0px"
	 viewBox="0 0 1000 1000" style="enable-background:new 0 0 1000 1000;" xml:space="preserve">
<style type="text/css">
	.st0{fill:#070102;}
</style>
<g>
	<path class="st0" d="M931.1,393.3l-85.4-234.9C830.7,109.1,788.5,76,740.4,76H259.6c-48,0-90.3,33.1-105.4,82.4L68.9,393.3
		C30,398.7,0,432.1,0,472.5v270c0,44.2,35.8,80,80,80h61.5V892c0,17.7,14.3,32,32,32h0c17.7,0,32-14.3,32-32v-69.5h589V892
		c0,17.7,14.3,32,32,32h0c17.7,0,32-14.3,32-32v-69.5H920c44.2,0,80-35.8,80-80v-270C1000,432.1,970,398.7,931.1,393.3z
		 M214.7,179.4c0.2-0.6,0.4-1.2,0.6-1.8c6.7-22.5,24.5-37.6,44.3-37.6h480.9c19.8,0,37.6,15.1,44.3,37.6c0.2,0.6,0.4,1.2,0.6,1.8
		l77.4,213.1H137.2L214.7,179.4z M936,742.5c0,8.8-7.2,16-16,16H80c-8.8,0-16-7.2-16-16v-270c0-8.8,7.2-16,16-16h840
		c8.8,0,16,7.2,16,16V742.5z"/>
	<circle class="st0" cx="266" cy="607.5" r="50"/>
	<circle class="st0" cx="734" cy="607.5" r="50"/>
</g>
</svg>
