<?xml version="1.0" encoding="utf-8"?>
<!-- Generator: Adobe Illustrator 22.0.0, SVG Export Plug-In . SVG Version: 6.00 Build 0)  -->
<svg version="1.1" id="图层_1" xmlns="http://www.w3.org/2000/svg" xmlns:xlink="http://www.w3.org/1999/xlink" x="0px" y="0px"
	 viewBox="0 0 1000 1000" style="enable-background:new 0 0 1000 1000;" xml:space="preserve">
<style type="text/css">
	.st0{fill:#040000;}
</style>
<path id="XMLID_532_" class="st0" d="M500,63c47.3,0,93.1,9.4,136.3,27.9c41.8,18,79.3,43.7,111.6,76.5
	c32.3,32.9,57.7,71.1,75.5,113.8c18.4,44.2,27.7,91.1,27.7,139.6c0,60.3-18.8,124.5-56,190.7c-31.3,55.9-75.5,113-131.3,169.8
	C601.1,845,537.6,894.2,500,921.3c-37.2-26.8-99.6-75.1-161.9-138.3c-56.3-57-100.8-114.4-132.5-170.5C168,546,149,481.5,149,420.8
	c0-48.5,9.3-95.4,27.7-139.6c17.7-42.6,43.1-80.9,75.5-113.8c32.3-32.8,69.8-58.5,111.6-76.5C406.9,72.4,452.7,63,500,63 M500,704
	c39,0,76.8-7.7,112.5-22.7c34.4-14.6,65.3-35.4,91.8-61.9c26.5-26.5,47.3-57.4,61.9-91.8C781.3,491.8,789,454,789,415
	s-7.7-76.8-22.7-112.5c-14.6-34.4-35.4-65.3-61.9-91.8s-57.4-47.3-91.8-61.9C576.8,133.7,539,126,500,126s-76.8,7.7-112.5,22.7
	c-34.4,14.6-65.3,35.4-91.8,61.9c-26.5,26.5-47.3,57.4-61.9,91.8C218.6,338.2,211,376,211,415s7.6,76.8,22.7,112.5
	c14.6,34.4,35.4,65.3,61.9,91.8c26.5,26.5,57.4,47.3,91.8,61.9C423.2,696.3,461,704,500,704 M500-1C270.8-1,85,187.8,85,420.8
	C85,735.7,500,999,500,999s415-263.3,415-578.2C915,187.8,729.2-1,500-1L500-1z M500,640c-124.3,0-225-100.7-225-225
	s100.7-225,225-225c124.3,0,225,100.7,225,225S624.3,640,500,640L500,640z"/>
<path id="XMLID_533_" class="st0" d="M586.3,325.1L463.1,448.4L413.7,399c-13.5-13.5-35.5-13.5-49,0c-13.5,13.5-13.5,35.5,0,49
	l73.8,73.8c6.8,6.8,15.6,10.1,24.5,10.1c8.9,0,17.7-3.4,24.5-10.1l147.7-147.7c13.5-13.5,13.5-35.5,0-49
	C621.7,311.6,599.8,311.6,586.3,325.1z"/>
</svg>
