<?xml version="1.0" encoding="utf-8"?>
<!-- Generator: Adobe Illustrator 22.0.0, SVG Export Plug-In . SVG Version: 6.00 Build 0)  -->
<svg version="1.1" id="图层_1" xmlns="http://www.w3.org/2000/svg" xmlns:xlink="http://www.w3.org/1999/xlink" x="0px" y="0px"
	 viewBox="0 0 1000 1000" style="enable-background:new 0 0 1000 1000;" xml:space="preserve">
<g>
	<path d="M968,331.6c-17.7,0-32,14.3-32,32v434.3c-15.8-13.1-33.8-24.7-53.8-34.8c-51.4-25.9-113.2-39.6-178.6-39.6
		c-82,0-152.9,24.3-203.7,69c-50.7-44.7-121.7-69-203.7-69c-65.4,0-127.2,13.7-178.6,39.6c-19.9,10-37.9,21.7-53.8,34.8V363.6
		c0-17.7-14.3-32-32-32c-17.7,0-32,14.3-32,32v525.6c0,15,10.5,28.1,25.2,31.2c14.7,3.2,29.6-4.3,35.9-18
		c15.2-33.3,44.7-61.7,85.4-82.2c42.6-21.4,94.4-32.8,149.9-32.8c76.9,0,140.6,25.3,179.2,71.3c6.1,7.2,15,11.4,24.5,11.4
		s18.4-4.2,24.5-11.4c38.6-46,102.3-71.3,179.2-71.3c55.5,0,107.3,11.3,149.9,32.8c40.7,20.5,70.2,48.9,85.4,82.2
		c5.3,11.6,16.8,18.7,29.1,18.7c2.2,0,4.5-0.2,6.8-0.7c14.7-3.2,25.2-16.2,25.2-31.2V363.6C1000,345.9,985.7,331.6,968,331.6z"/>
	<path d="M142.2,698.5c13.1,4.3,27.5-0.2,35.7-11.3c18.9-25.5,83.6-51.4,170.7-51.4c63.4,0,110.2,27.3,132.4,43.6
		c11.2,8.2,26.5,8.2,37.8,0c22.2-16.3,69-43.6,132.4-43.6c87.1,0,151.8,25.8,170.7,51.4c6.1,8.3,15.8,12.9,25.7,12.9
		c3.3,0,6.7-0.5,10-1.6c13.1-4.3,22-16.6,22-30.4V184.1c0-6.9-2.2-13.5-6.3-19c-37.6-50.8-129-86.2-222.1-86.2
		c-60.4,0-113.1,11.3-151.3,32.1c-38.2-20.8-91-32.1-151.3-32.1c-93.2,0-184.5,35.5-222.1,86.2c-4.1,5.5-6.3,12.2-6.3,19v484.1
		C120.3,682,129.1,694.2,142.2,698.5z M761.5,163.1c22.8,9.1,42.3,21,54.3,32.8v408.7c-9.9-4.8-20.7-9.1-32.3-13
		c-38.8-12.9-84.5-19.8-132.1-19.8c-47.9,0-88.3,12.1-119.3,26.3V166.3c28.4-15,70.8-23.5,119.3-23.5
		C700.2,142.7,738.2,153.8,761.5,163.1z M184.2,195.9c11.9-11.9,31.4-23.7,54.3-32.8c42.2-16.8,83.2-20.4,110.2-20.4
		c48.6,0,90.9,8.5,119.3,23.5v431.9c-31-14.2-71.5-26.3-119.3-26.3c-47.6,0-93.3,6.8-132.1,19.8c-11.6,3.9-22.4,8.2-32.3,13V195.9z"
		/>
</g>
</svg>
