<?xml version="1.0" encoding="utf-8"?>
<!-- Generator: Adobe Illustrator 22.0.0, SVG Export Plug-In . SVG Version: 6.00 Build 0)  -->
<svg version="1.1" id="图层_1" xmlns="http://www.w3.org/2000/svg" xmlns:xlink="http://www.w3.org/1999/xlink" x="0px" y="0px"
	 viewBox="0 0 1000 1000" style="enable-background:new 0 0 1000 1000;" xml:space="preserve">
<style type="text/css">
	.st0{fill:#040000;}
</style>
<g>
	<path class="st0" d="M991.4,634.8L877.3,466.9c-5.9-9.7-16.4-14.9-27.5-14.9H737.9C698.2,360,606.5,295.2,499.6,295.2
		c-19.8,0-39.1,2.2-57.7,6.5l-20.1-48.6c25.5-18.8,44.2-46.3,51.8-78.1l61.9,11c7.8,67.7,65.4,120.3,135.1,120.3v0
		c75.1,0,136.1-61,136.1-136.1s-61-136.1-136.1-136.1c-57.4,0-106.5,35.6-126.5,85.8l-71.7-12.8C456.5,49.7,403.8,7.4,341.3,7.4
		c-75.1,0-136.1,61-136.1,136.1s61,136.1,136.1,136.1c6.4,0,12.7-0.5,18.9-1.3l19.2,46.5c-52.2,27.4-94,72.1-117.8,126.5H150.2
		c-11.2,0-21.6,5.9-27.5,14.9L5.9,637.9c-1,1.5-1.9,3.1-2.7,4.8C1.2,647.1,0,652,0,657.2v301.9c0,0.1,0,0.2,0,0.3
		c0.1,18.4,15.1,33.3,33.5,33.2h932.3l0,0c18.6,0,33.5-14.9,34.2-33.5V657.2c0-0.1,0-0.2,0-0.3C1000,648.5,996.7,640.7,991.4,634.8z
		 M670.6,101.9c37.9,0,69.1,31.2,69.1,69.1c0,37.9-31.2,69.1-69.1,69.1c-37.9,0-69.1-31.2-69.1-69.1
		C601.5,133.1,632.7,101.9,670.6,101.9z M272.1,143.5c0-37.9,31.2-69.1,69.1-69.1s69.1,31.2,69.1,69.1c0,26.6-15.4,49.9-37.6,61.4
		c-2.1,0.4-4.2,1-6.2,1.8c-1.8,0.8-3.5,1.8-5.1,2.9c-6.4,2-13.2,3-20.1,3C303.3,212.6,272.1,181.4,272.1,143.5z M832,519l71,104.8
		H749.9c6.1-22.4,9.2-45.5,9.2-69.1c0-12.1-0.9-24-2.5-35.7H832z M499.6,362.8c106.3,0,192.6,86.2,192.6,192.6
		c0,23.5-4.6,46.4-13,68.4H319.9c-8.4-21.8-12.9-45-12.9-69.1C307.1,448.3,393.3,362.8,499.6,362.8z M167.3,518.2h75.4
		c-1.7,11.9-2.6,24.1-2.6,36.4c0,23.8,3.2,46.9,9.3,69.1H96.1L167.3,518.2z M933.1,925.7H66.9v0V690.7h866.2V925.7z"/>
	<path class="st0" d="M568.8,841.6h40.9c17.8,0,33.5-14.9,33.5-33.5c0-18.6-14.9-33.5-33.5-33.5h-40.9c-18.6,0-33.5,14.9-33.5,33.5
		C535.3,826.8,550.2,841.6,568.8,841.6z"/>
	<path class="st0" d="M218.6,841.6h246.8h0c18.6,0,33.5-14.9,33.5-33.5c0-18.6-14.9-33.5-33.5-33.5H218.6
		c-18.6,0-33.5,14.9-33.5,33.5C185.1,826.8,200,841.6,218.6,841.6z"/>
	<path class="st0" d="M719,841.6h20.8c18.6,0,33.5-14.9,33.5-33.5c0-18.6-14.9-33.5-33.5-33.5H719c-18.6,0-33.5,14.9-33.5,33.5
		C685.5,826.8,700.4,841.6,719,841.6z"/>
</g>
</svg>
