<?xml version="1.0" encoding="utf-8"?>
<!-- Generator: Adobe Illustrator 22.0.0, SVG Export Plug-In . SVG Version: 6.00 Build 0)  -->
<svg version="1.1" id="图层_1" xmlns="http://www.w3.org/2000/svg" xmlns:xlink="http://www.w3.org/1999/xlink" x="0px" y="0px"
	 viewBox="0 0 1000 1000" style="enable-background:new 0 0 1000 1000;" xml:space="preserve">
<style type="text/css">
	.st0{fill:#040000;}
</style>
<g>
	<path class="st0" d="M500-1l-11,0.1C297.5,4.9,142.2,165.6,142.9,357.4c0.3,91.5,35.4,178.4,98.6,244.7l17.9,18.6
		c46.4,47.7,62,63.9,62,128.3v35.7h357.2V749c0-61.3,17.1-79.4,58.3-123.2c9.7-10.4,20.3-21.7,31.7-34.6
		c57.1-65.1,88.6-148.5,88.6-235.1C857.2,159.2,696.9-1,500-1L500-1z M714.9,544.1c-10.8,12.2-20.9,22.9-30.1,32.7
		c-37.1,39.5-67.6,71.8-75.6,136.4H391c-7.6-67.4-37.8-98.5-80.4-142.3l-17.4-18.1c-50.6-53-78.6-122.5-78.9-195.7
		C213.8,203.7,338,75.1,491.1,70.5l8.8-0.1c157.6,0,285.8,128.2,285.8,285.7C785.7,425.3,760.6,492.1,714.9,544.1L714.9,544.1z
		 M357.1,820.4h285.8c19.7,0,35.7,16,35.7,35.7v0c0,19.7-16,35.7-35.7,35.7H357.1c-19.7,0-35.7-16-35.7-35.7v0
		C321.4,836.4,337.4,820.4,357.1,820.4z M428.5,927.5h142.9c19.7,0,35.7,16,35.7,35.7v0.1c0,19.7-16,35.7-35.7,35.7H428.5
		c-19.7,0-35.7-16-35.7-35.7v-0.1C392.9,943.5,408.8,927.5,428.5,927.5z"/>
	<path class="st0" d="M324.8,356.1h0.4c17,0,31.4-12.1,34.9-28.8c11.4-55.8,55.4-99.8,111.2-111.2c16.7-3.4,28.8-17.8,28.8-34.9
		v-0.5c0-22.4-20.4-39.3-42.4-34.8c-84.3,17-150.8,83.5-167.7,167.8C285.5,335.7,302.4,356.1,324.8,356.1z"/>
</g>
</svg>
