<?xml version="1.0" encoding="utf-8"?>
<!-- Generator: Adobe Illustrator 22.0.0, SVG Export Plug-In . SVG Version: 6.00 Build 0)  -->
<svg version="1.1" id="图层_1" xmlns="http://www.w3.org/2000/svg" xmlns:xlink="http://www.w3.org/1999/xlink" x="0px" y="0px"
	 viewBox="0 0 1000 1000" style="enable-background:new 0 0 1000 1000;" xml:space="preserve">
<style type="text/css">
	.st0{fill:#040000;}
</style>
<g>
	<g>
		<g>
			<rect x="187.9" y="417.6" class="st0" width="64.4" height="120.8"/>
		</g>
		<g>
			<rect x="324.8" y="418.6" class="st0" width="64.4" height="120.8"/>
		</g>
		<g>
			<rect x="461.7" y="418.6" class="st0" width="64.4" height="120.8"/>
		</g>
	</g>
	<g>
		<g>
			<rect x="473.8" y="133.9" class="st0" width="64.4" height="99.8"/>
		</g>
		<g>
			<rect x="610.7" y="134.7" class="st0" width="64.4" height="99.8"/>
		</g>
		<g>
			<rect x="747.7" y="134.7" class="st0" width="64.4" height="99.8"/>
		</g>
	</g>
	<g>
		<path class="st0" d="M220.1,606.2h559.7c17.8,0,32.2,14.4,32.2,32.2v0c0,17.8-14.4,32.2-32.2,32.2H220.1
			c-17.8,0-32.2-14.4-32.2-32.2v0C187.9,620.6,202.3,606.2,220.1,606.2z"/>
	</g>
	<g>
		<path class="st0" d="M220.1,286.4h559.7c17.8,0,32.2,14.4,32.2,32.2v0c0,17.8-14.4,32.2-32.2,32.2H220.1
			c-17.8,0-32.2-14.4-32.2-32.2v0C187.9,300.8,202.3,286.4,220.1,286.4z"/>
	</g>
	<path class="st0" d="M950,72.5c0-40-32.5-72.5-72.5-72.5h-755C82.5,0,50,32.5,50,72.5v734.8c0,0.6,0,1.2,0,1.8c0,0.6,0,1.1,0,1.7
		v157c0,17.8,14.4,32.2,32.2,32.2s32.2-14.4,32.2-32.2v-88.5c2.6,0.3,5.3,0.5,8.1,0.5h755c2.7,0,5.4-0.2,8.1-0.5v88.5
		c0,17.8,14.4,32.2,32.2,32.2c17.8,0,32.2-14.4,32.2-32.2v-157c0-0.6,0-1.1,0-1.7c0-0.6,0-1.2,0-1.8V72.5z M877.5,815.3h-755
		c-4.4,0-8.1-3.6-8.1-8.1V72.5c0-4.4,3.6-8.1,8.1-8.1h755c4.4,0,8.1,3.6,8.1,8.1v734.8C885.6,811.7,882,815.3,877.5,815.3z"/>
</g>
</svg>
