<?xml version="1.0" encoding="utf-8"?>
<!-- Generator: Adobe Illustrator 22.0.0, SVG Export Plug-In . SVG Version: 6.00 Build 0)  -->
<svg version="1.1" id="图层_1" xmlns="http://www.w3.org/2000/svg" xmlns:xlink="http://www.w3.org/1999/xlink" x="0px" y="0px"
	 viewBox="0 0 1000 1000" style="enable-background:new 0 0 1000 1000;" xml:space="preserve">
<g>
	<circle cx="167.7" cy="338.6" r="55.1"/>
	<path d="M960.8,221.1c-24.6-14-53.7-13.5-78,0.9l-170,101.8v-79.1c0-39.7-32.3-72.1-72.1-72.1H72.1C32.3,172.6,0,205,0,244.7v510.6
		c0,39.7,32.3,72.1,72.1,72.1h568.6c39.7,0,72.1-32.3,72.1-72.1v-79.2l170,101.8c12.4,7.4,26,11.2,39.8,11.2
		c13.1,0,26.1-3.4,38.2-10.2c24.6-14,39.2-39.1,39.2-67.4v-423C1000,260.2,985.4,235.1,960.8,221.1z M648.7,755.3c0,4.4-3.6,8-8,8
		H72.1c-4.4,0-8-3.6-8-8V244.7c0-4.4,3.6-8,8-8h568.6c4.4,0,8,3.6,8,8V755.3z M938.1,711.5c0,8.2-5.5,12.2-7.8,13.5
		c-2.3,1.2-8.6,3.9-15.5-0.2l-202-120.9V396l201.9-120.9c7-4.1,13.3-1.6,15.6-0.1c2.3,1.3,7.8,5.4,7.8,13.4V711.5z"/>
</g>
</svg>
