<?xml version="1.0" encoding="utf-8"?>
<!-- Generator: Adobe Illustrator 22.0.0, SVG Export Plug-In . SVG Version: 6.00 Build 0)  -->
<svg version="1.1" id="图层_1" xmlns="http://www.w3.org/2000/svg" xmlns:xlink="http://www.w3.org/1999/xlink" x="0px" y="0px"
	 viewBox="0 0 1000 1000" style="enable-background:new 0 0 1000 1000;" xml:space="preserve">
<style type="text/css">
	.st0{fill:#040000;}
</style>
<g>
	<path class="st0" d="M802.6,141.8c35.4,0,68.9,13.9,94.2,39.2c25.3,25.3,39.2,58.7,39.2,94.1v276.3c0,35.4-13.9,68.9-39.2,94.2
		c-25.3,25.3-58.7,39.2-94.1,39.2h-29.8c-30.6,0-57,21.7-62.8,51.8c-0.4,1.9-1,5.7-1.6,11.5c-11.9-18.5-19.6-31.5-19.7-31.7
		c-11.5-19.6-32.5-31.6-55.2-31.6h-436c-35.4,0-68.8-13.9-94.2-39.3C77.9,620.3,64,586.9,64,551.5V275.2c0-35.4,13.9-68.8,39.2-94.1
		c25.3-25.3,58.8-39.2,94.2-39.2c0.2,0,0.3,0,0.5,0H802.6 M802.6,77.8H197.4l0,0C88.9,77.8,0,166.6,0,275.2v276.3
		C0,660,88.8,748.8,197.4,748.8h436c0,0,100.1,170.3,150.3,173.3c0.2,0,0.5,0,0.7,0c11.2,0,10-5.2,8.3-10.9
		c-30.9-106.1-19.9-162.5-19.9-162.5h29.8c108.6,0,197.4-88.8,197.4-197.4V275.2C1000,166.6,911.3,77.8,802.6,77.8L802.6,77.8z"/>
	<g>
		<path class="st0" d="M243,350c-30.4,0-55,24.6-55,55s24.6,55,55,55c30.4,0,55-24.6,55-55C298,374.5,273.4,350,243,350
			C243,350,243,350,243,350z"/>
		<path class="st0" d="M759.2,350c-30.4,0-55,24.6-55,55s24.6,55,55,55c30.4,0,55-24.6,55-55C814.2,374.5,789.6,350,759.2,350
			L759.2,350z"/>
		<path class="st0" d="M501.1,350c-30.3,0-55,24.6-55,55s24.7,55,55,55s55-24.6,55-55S531.5,350,501.1,350z"/>
	</g>
</g>
</svg>
