<?xml version="1.0" encoding="utf-8"?>
<!-- Generator: Adobe Illustrator 22.0.0, SVG Export Plug-In . SVG Version: 6.00 Build 0)  -->
<svg version="1.1" id="图层_1" xmlns="http://www.w3.org/2000/svg" xmlns:xlink="http://www.w3.org/1999/xlink" x="0px" y="0px"
	 viewBox="0 0 1000 1000" style="enable-background:new 0 0 1000 1000;" xml:space="preserve">
<g>
	<path d="M372,724.3h256c17.7,0,32,14.3,32,32v0c0,17.7-14.3,32-32,32H372c-17.7,0-32-14.3-32-32v0C340,738.6,354.3,724.3,372,724.3
		z"/>
	<path d="M912,1000H90.5c-47.2,0-86.6-39.4-86.6-86.6V488.2c0-15.7,5.2-31.5,18.4-42L439.6,26.2C455.3,10.5,478.9,0,499.9,0
		c23.6,0,44.6,10.5,60.4,26.2l419.9,430.4c10.5,10.5,15.7,26.2,15.7,42v414.7C998.6,960.6,959.3,1000,912,1000L912,1000z
		 M72.1,490.8v422.6c0,10.5,7.9,18.4,18.4,18.4H912c10.5,0,18.4-7.9,18.4-18.4V503.9L513.1,73.5c-2.6-2.6-7.9-5.2-13.1-5.2
		s-10.5,2.6-13.1,5.2C486.8,73.5,72.1,490.8,72.1,490.8z"/>
</g>
</svg>
