<?xml version="1.0" encoding="utf-8"?>
<!-- Generator: Adobe Illustrator 22.0.0, SVG Export Plug-In . SVG Version: 6.00 Build 0)  -->
<svg version="1.1" id="图层_1" xmlns="http://www.w3.org/2000/svg" xmlns:xlink="http://www.w3.org/1999/xlink" x="0px" y="0px"
	 viewBox="0 0 1000 1000" style="enable-background:new 0 0 1000 1000;" xml:space="preserve">
<style type="text/css">
	.st0{fill:#040000;}
</style>
<g>
	<path class="st0" d="M298.2,581L298.2,581L298.2,581 M583.7,642.3c-6.2,26.4-18.4,60-42,84.3c-23.7,24.5-56.1,36.4-99,36.4
		c-42.5,0-74.3-11.6-97.4-35.6c-23.7-24.6-35.2-59.1-40.8-85.1H583.7 M655.2,578.3h-421c0,0-11.5,248.7,208.5,248.7
		C662.7,827,655.2,578.3,655.2,578.3L655.2,578.3z"/>
	<path class="st0" d="M713,64c1.1,0,2.1,0,3.1,0c-4.3,14.5-16.8,43-52.7,90.5c-0.4,0.6-0.9,1.2-1.3,1.8
		c-10.5,14.9-17.4,28.8-21.1,42.4c-7.4,26.9-1.1,47.7,5.5,60.3c9.8,18.9,27.1,33,48.7,39.8c10.5,3.3,22.3,5,35.1,5
		c16.1,0,30-2.7,32.6-3.2c2.1-0.4,4.2-1,6.3-1.6c21.5-6.7,80.6-22.7,126.9-26.7c-11.6,15-29.7,35.7-58.1,63.4
		c-1.3,1.2-2.5,2.5-3.6,3.9c-16.8,19.3-28.2,37-35,54.1c-12.7,32.2-7,57.4,0.1,72.9c6.1,13.3,15.7,25,27.9,33.8
		c8.6,6.2,18.6,11.1,29.7,14.6c14,4.4,30.5,6.6,48.8,6.6c0.9,0,1.8,0,2.7,0c-7.7,16.2-17,35-28,56.6c-2.7,5.1-5.4,10.2-8.1,15.1
		c-39.2,73.8-70.2,132-109.9,181C722,824.7,672.3,864.5,601.7,903c-45.2,21.9-95.6,33-149.9,33c-55,0-111.9-11.8-164.5-34.1
		c-51.7-21.9-97.4-53.2-132.2-90.5c-0.6-0.6-1.1-1.2-1.7-1.8c-2.2-2.2-26.1-27.3-48.6-67.5c-13.3-23.8-23.5-48.3-30.4-72.8
		c-8.3-29.7-11.7-59.5-10.2-88.7c5.1-94.5,62.1-186.8,169.6-274.3C336.6,229,438.5,165.4,528.8,122C638,69.7,694,64,713,64
		 M990.5,507.1L990.5,507.1L990.5,507.1 M713,0c-98.8,0-293.4,86.3-518.5,255.8c-380,308.6-86,599.3-86,599.3v0
		c82.8,88.6,213.2,145,343.4,145c61.4,0,122.9-12.5,179.2-40.2c173.2-94.1,220.4-190.7,306.5-352.2
		c69.6-136.3,72.6-164.4,49.6-164.4c-14.6,0-39.7,11.4-64.8,13.5c-5.2,0.4-10.7,0.7-16.2,0.7c-39.3,0-77.4-13.7-23.3-76.1
		c143.6-140,104.7-174.1,32.9-174.1c-68,0-165.6,30.6-165.6,30.6s-9.3,1.9-19.8,1.9c-19.9,0-43.9-6.9-15.9-46.6
		C812.3,63.7,798,0,713,0L713,0z"/>
</g>
</svg>
