<?xml version="1.0" encoding="utf-8"?>
<!-- Generator: Adobe Illustrator 22.0.0, SVG Export Plug-In . SVG Version: 6.00 Build 0)  -->
<svg version="1.1" id="图层_1" xmlns="http://www.w3.org/2000/svg" xmlns:xlink="http://www.w3.org/1999/xlink" x="0px" y="0px"
	 viewBox="0 0 1000 1000" style="enable-background:new 0 0 1000 1000;" xml:space="preserve">
<g>
	<g>
		<path d="M900,1000H100c-39.7,0-72-32.3-72-71.9V72.9C28,33.3,60.3,1,100,1h120c17.7,0,32,14.3,32,32s-14.3,32-32,32H100
			c-4.4,0-8,3.6-8,8v855.1c0,4.4,3.6,8,8,8h800c4.4,0,8-3.6,8-8V72.9c0-4.4-3.6-8-8-8H780c-17.7,0-32-14.3-32-32s14.3-32,32-32h120
			c39.7,0,72,32.3,72,71.9v855.1C972,967.7,939.7,1000,900,1000z"/>
	</g>
	<g>
		<path d="M630,63.9H370c-17.7,0-32-14.3-32-32s14.3-32,32-32h260c17.7,0,32,14.3,32,32S647.7,63.9,630,63.9z"/>
	</g>
	<g>
		<g>
			<path d="M750,341.7H250c-17.7,0-32-14.3-32-32c0-17.7,14.3-32,32-32h500c17.7,0,32,14.3,32,32C782,327.3,767.7,341.7,750,341.7z"
				/>
		</g>
		<g>
			<path d="M750,552.4H250c-17.7,0-32-14.3-32-32c0-17.7,14.3-32,32-32h500c17.7,0,32,14.3,32,32C782,538.1,767.7,552.4,750,552.4z"
				/>
		</g>
		<g>
			<path d="M750,763.2H250c-17.7,0-32-14.3-32-32s14.3-32,32-32h500c17.7,0,32,14.3,32,32S767.7,763.2,750,763.2z"/>
		</g>
	</g>
</g>
</svg>
