<?xml version="1.0" encoding="utf-8"?>
<!-- Generator: Adobe Illustrator 22.0.0, SVG Export Plug-In . SVG Version: 6.00 Build 0)  -->
<svg version="1.1" id="图层_1" xmlns="http://www.w3.org/2000/svg" xmlns:xlink="http://www.w3.org/1999/xlink" x="0px" y="0px"
	 viewBox="0 0 1000 1000" style="enable-background:new 0 0 1000 1000;" xml:space="preserve">
<g>
	<path d="M258,686.8c-14,32-21,67.1-21,103.1c0,18,15,33,33,33s33-15,33-33c0-106.1,85-194.2,190-197.2h13c106,3,191,92.1,191,197.2
		c0,18,15,33,33,33c18,0,33-15,33-33c0-36-7-70.1-21-103.1c-13-31-32-60.1-56-84.1c-22-22-47-39-74-52.1c3-3,6-6,9-8
		c32-32,50-75.1,50-121.1s-18-89.1-50-121.1s-75-50.1-121-50.1s-89,18-121,50.1s-50,75.1-50,121.1s18,89.1,50,121.1c3,3,6,6,9,8
		c-28,13-53,31-75,52.1C291,627.7,272,655.8,258,686.8L258,686.8z M501,316.4c58,0,105,47,105,105.1c0,56.1-43,102.1-98,105.1h-13
		c-56-3-99-49-99-105.1C397,363.5,444,316.4,501,316.4z"/>
	<g>
		<path d="M880,1000H120c-39.7,0-72-32.3-72-72.1V121.1C48,81.4,80.3,49,120,49h80c17.7,0,32,14.3,32,32s-14.3,32-32,32h-80
			c-4.4,0-8,3.6-8,8v806.8c0,4.4,3.6,8,8,8h760c4.4,0,8-3.6,8-8V121.1c0-4.4-3.6-8-8-8h-80c-17.7,0-32-14.3-32-32s14.3-32,32-32h80
			c39.7,0,72,32.3,72,72.1v806.8C952,967.7,919.7,1000,880,1000z"/>
	</g>
	<g>
		<g>
			<path d="M590,113.1H410c-17.7,0-32-14.3-32-32s14.3-32,32-32h180c17.7,0,32,14.3,32,32S607.7,113.1,590,113.1z"/>
		</g>
		<g>
			<path d="M306,162.2c-17.7,0-32-14.3-32-32V32c0-17.7,14.3-32,32-32s32,14.3,32,32v98.1C338,147.8,323.7,162.2,306,162.2z"/>
		</g>
		<g>
			<path d="M694,162.2c-17.7,0-32-14.3-32-32V32c0-17.7,14.3-32,32-32s32,14.3,32,32v98.1C726,147.8,711.7,162.2,694,162.2z"/>
		</g>
	</g>
</g>
</svg>
