<?xml version="1.0" encoding="utf-8"?>
<!-- Generator: Adobe Illustrator 22.0.0, SVG Export Plug-In . SVG Version: 6.00 Build 0)  -->
<svg version="1.1" id="图层_1" xmlns="http://www.w3.org/2000/svg" xmlns:xlink="http://www.w3.org/1999/xlink" x="0px" y="0px"
	 viewBox="0 0 1000 1000" style="enable-background:new 0 0 1000 1000;" xml:space="preserve">
<g>
	<path d="M987.3,622.6l-0.3-0.3l-0.2-0.3L854.6,431.4l-0.5-0.8v-0.9V247c0-14.9-12.1-27-27-27H177.6c-14.9,0-27,12.1-27,27v176v0.9
		l-0.5,0.8L13.2,622l-0.2,0.3l-0.3,0.3C6.5,627.7,3,635.3,3,643.3V973c0,14.9,12.1,27,27,27h940c14.9,0,27-12.1,27-27V643.3
		C997,635.3,993.5,627.7,987.3,622.6z M854,613.3v-60.9v-9.6l5.5,7.9l42.2,60.9l3.3,4.7h-5.7H857h-3V613.3z M214.6,613.3V286.9v-3h3
		h569.5h3v3v326.4v3h-3H703c0,0.7,0,1.5,0,2.2c0,26.7-5.3,52.6-15.6,77c-10,23.5-24.3,44.7-42.4,62.9
		c-18.2,18.2-39.4,32.4-62.9,42.4c-24.4,10.3-50.3,15.5-77,15.5h-0.1c-26.7,0-52.7-5.3-77.1-15.6c-23.6-10-44.7-24.3-62.9-42.4
		c-18.2-18.2-32.4-39.3-42.4-62.9c-10.3-24.4-15.5-50.3-15.5-77l0-2h-89.4h-3V613.3z M98.3,611.6l46.9-67.7l5.5-7.9v9.6v67.7v3h-3
		h-46.9H95L98.3,611.6z M933,683.2v249.8v3h-3H70h-3v-3V683.2v-3h3h178h2.3l0.6,2.3c23.6,93.4,96.4,166,189.8,189.7
		c21.2,5.4,42.9,8.1,64.5,8.1c28.9,0,57.4-4.8,84.9-14.2c27-9.3,52.1-22.8,74.7-40.2c22.9-17.5,42.5-38.5,58.4-62.4
		c16.5-24.7,28.5-51.9,35.9-81l0.6-2.3h2.3h168h3V683.2z"/>
	<g>
		<path d="M800,64H200c-17.7,0-32-14.3-32-32s14.3-32,32-32h600c17.7,0,32,14.3,32,32S817.7,64,800,64z"/>
	</g>
	<g>
		<path d="M800,176H200c-17.7,0-32-14.3-32-32s14.3-32,32-32h600c17.7,0,32,14.3,32,32S817.7,176,800,176z"/>
	</g>
</g>
</svg>
