<?xml version="1.0" encoding="utf-8"?>
<!-- Generator: Adobe Illustrator 22.0.0, SVG Export Plug-In . SVG Version: 6.00 Build 0)  -->
<svg version="1.1" id="图层_1" xmlns="http://www.w3.org/2000/svg" xmlns:xlink="http://www.w3.org/1999/xlink" x="0px" y="0px"
	 viewBox="0 0 1000 1000" style="enable-background:new 0 0 1000 1000;" xml:space="preserve">
<style type="text/css">
	.st0{fill:#040000;}
</style>
<path class="st0" d="M890,0H110C70.2,0,38,32.2,38,72v856c0,39.8,32.2,72,72,72h780c39.8,0,72-32.2,72-72V72C962,32.2,929.8,0,890,0
	z M222,232.5h556c17.7,0,32,14.3,32,32s-14.3,32-32,32H222c-17.7,0-32-14.3-32-32C190,246.8,204.3,232.5,222,232.5z M341,767.5H222
	c-17.7,0-32-14.3-32-32s14.3-32,32-32h119c17.7,0,32,14.3,32,32S358.7,767.5,341,767.5z M511,780.2c-23.2,0-42-18.8-42-42
	s18.8-42,42-42c23.1,0,41.9,18.8,42,42C553,761.4,534.2,780.2,511,780.2z M679.4,780.2c-23.2,0-42-18.8-42-42s18.8-42,42-42
	c23.1,0,41.9,18.8,42,42C721.4,761.4,702.6,780.2,679.4,780.2z M778,532H222c-17.7,0-32-14.3-32-32c0-17.7,14.3-32,32-32h556
	c17.7,0,32,14.3,32,32S795.7,532,778,532z M847.8,780.2c-23.2,0-42-18.8-42-42s18.8-42,42-42c23.1,0,41.9,18.8,42,42
	C889.8,761.4,871,780.2,847.8,780.2z"/>
</svg>
