<?xml version="1.0" encoding="utf-8"?>
<!-- Generator: Adobe Illustrator 22.0.0, SVG Export Plug-In . SVG Version: 6.00 Build 0)  -->
<svg version="1.1" id="图层_1" xmlns="http://www.w3.org/2000/svg" xmlns:xlink="http://www.w3.org/1999/xlink" x="0px" y="0px"
	 viewBox="0 0 1000 1000" style="enable-background:new 0 0 1000 1000;" xml:space="preserve">
<style type="text/css">
	.st0{fill:#040000;}
</style>
<g>
	<path class="st0" d="M51.5,330.1h303.4c4.4,0,8-3.6,8-8V18.6L51.5,330.1z"/>
	<path class="st0" d="M894.9,0.1h-468v322c0,39.7-32.3,72-72,72H33v533.9c0,39.7,32.3,72,72,72h790c39.7,0,72-32.3,72-72V72.1
		C966.9,32.4,934.6,0.1,894.9,0.1z M712.1,493L474.3,730.8c-6.6,6.6-15.4,10.3-24.8,10.3c-9.3,0-18.2-3.7-24.8-10.3L305.8,611.8
		c-6.6-6.6-10.3-15.4-10.3-24.8c0-9.3,3.7-18.1,10.3-24.8c6.6-6.6,15.4-10.3,24.8-10.3c9.4,0,18.2,3.7,24.8,10.3l94.1,94.1l213-213
		c6.6-6.6,15.4-10.3,24.8-10.3c9.4,0,18.2,3.7,24.8,10.3c6.6,6.6,10.3,15.4,10.3,24.8C722.4,477.6,718.7,486.4,712.1,493z"/>
</g>
</svg>
