<?xml version="1.0" encoding="utf-8"?>
<!-- Generator: Adobe Illustrator 22.0.0, SVG Export Plug-In . SVG Version: 6.00 Build 0)  -->
<svg version="1.1" id="图层_1" xmlns="http://www.w3.org/2000/svg" xmlns:xlink="http://www.w3.org/1999/xlink" x="0px" y="0px"
	 viewBox="0 0 1000 1000" style="enable-background:new 0 0 1000 1000;" xml:space="preserve">
<style type="text/css">
	.st0{fill:#040000;}
</style>
<g>
	<path class="st0" d="M687.4,433c-9.4,0-18.2,3.7-24.8,10.3l-213,213l-94.1-94.1c-6.6-6.6-15.4-10.3-24.8-10.3
		c-9.4,0-18.2,3.7-24.8,10.3c-6.6,6.7-10.3,15.5-10.3,24.8c0,9.4,3.7,18.2,10.3,24.8l118.9,118.9c6.6,6.6,15.5,10.3,24.8,10.3
		c9.4,0,18.2-3.7,24.8-10.3l237.8-237.8c6.6-6.6,10.3-15.4,10.3-24.8c0-9.4-3.7-18.2-10.3-24.8C705.6,436.7,696.8,433,687.4,433z"/>
	<path class="st0" d="M895,0H395c-0.5,0-1.1,0-1.6,0c0,0,0,0-0.1,0c-0.7,0-1.4,0.1-2.1,0.2c-0.1,0-0.3,0-0.4,0
		c-1.5,0.2-2.9,0.5-4.3,0.9c0,0,0,0-0.1,0c-1.5,0.4-2.9,0.9-4.3,1.5c0,0-0.1,0-0.1,0c-0.7,0.3-1.4,0.6-2,1c0,0,0,0-0.1,0
		c-0.6,0.3-1.3,0.7-1.9,1.1C378,4.9,377.9,5,377.8,5c-0.6,0.4-1.1,0.7-1.6,1.1c-0.1,0-0.1,0.1-0.2,0.1c-0.6,0.4-1.1,0.9-1.7,1.3
		c-0.1,0.1-0.2,0.2-0.4,0.3c-0.5,0.5-1.1,1-1.6,1.5l-330,330c-0.5,0.5-1,1-1.5,1.6c-0.1,0.1-0.2,0.2-0.3,0.4
		c-0.5,0.5-0.9,1.1-1.3,1.7c0,0.1-0.1,0.1-0.1,0.2c-0.4,0.5-0.8,1.1-1.1,1.7c-0.1,0.1-0.1,0.2-0.2,0.3c-0.4,0.6-0.8,1.3-1.1,1.9
		c0,0,0,0,0,0c-0.4,0.7-0.7,1.3-1,2c0,0,0,0,0,0.1c-0.6,1.4-1.1,2.8-1.5,4.3c0,0,0,0,0,0c-0.4,1.4-0.7,2.9-0.9,4.3
		c0,0.1,0,0.2,0,0.4c-0.1,0.7-0.2,1.4-0.2,2.1c0,0,0,0,0,0c0,0.5,0,1.1,0,1.6v566c0,39.7,32.3,72,72,72h790c39.7,0,72-32.3,72-72V72
		C967,32.3,934.7,0,895,0z M363,109.3V322c0,4.4-3.6,8-8,8H142.3L363,109.3z M903,928c0,4.4-3.6,8-8,8H105c-4.4,0-8-3.6-8-8V394h258
		c39.7,0,72-32.3,72-72V64h468c4.4,0,8,3.6,8,8V928z"/>
</g>
</svg>
