<?xml version="1.0" encoding="utf-8"?>
<!-- Generator: Adobe Illustrator 22.0.0, SVG Export Plug-In . SVG Version: 6.00 Build 0)  -->
<svg version="1.1" id="图层_1" xmlns="http://www.w3.org/2000/svg" xmlns:xlink="http://www.w3.org/1999/xlink" x="0px" y="0px"
	 viewBox="0 0 1000 1000" style="enable-background:new 0 0 1000 1000;" xml:space="preserve">
<g>
	<path d="M982,230.4C982,230.4,982,230.4,982,230.4c0-0.8-0.1-1.5-0.2-2.2c0-0.1,0-0.3,0-0.4c-0.2-1.5-0.5-2.9-0.9-4.3
		c0,0,0,0,0-0.1c-0.4-1.5-0.9-2.9-1.5-4.3c0,0,0-0.1,0-0.1c-0.3-0.7-0.6-1.4-1-2c0,0,0,0,0-0.1c-0.3-0.6-0.7-1.3-1.1-1.9
		c-0.1-0.1-0.1-0.2-0.2-0.3c-0.4-0.6-0.7-1.1-1.1-1.6c0-0.1-0.1-0.1-0.1-0.2c-0.4-0.6-0.9-1.1-1.3-1.6c-0.1-0.1-0.2-0.3-0.3-0.4
		c-0.5-0.5-0.9-1-1.4-1.5c0,0,0,0,0,0l-200-200c0,0,0,0,0,0c-0.5-0.5-1-1-1.5-1.4c-0.1-0.1-0.2-0.2-0.4-0.3
		c-0.5-0.5-1.1-0.9-1.6-1.3c-0.1,0-0.1-0.1-0.2-0.1c-0.5-0.4-1.1-0.8-1.6-1.1c-0.1-0.1-0.2-0.1-0.3-0.2c-0.6-0.4-1.3-0.8-1.9-1.1
		c0,0,0,0,0,0c-0.7-0.4-1.3-0.7-2-1c0,0,0,0-0.1,0c-1.4-0.6-2.8-1.1-4.3-1.5c0,0,0,0,0,0c-1.4-0.4-2.9-0.7-4.3-0.9
		c-0.1,0-0.2,0-0.4,0C752.5,0.1,751.3,0,750,0H228c-39.7,0-72,32.3-72,72v64H90c-39.7,0-72,32.3-72,72v720c0,39.7,32.3,72,72,72h682
		c39.7,0,72-32.3,72-72v-64h66c39.7,0,72-32.3,72-72V232C982,231.5,982,230.9,982,230.4z M782,109.3l90.7,90.7H790c-4.4,0-8-3.6-8-8
		V109.3z M780,928c0,4.4-3.6,8-8,8H90c-4.4,0-8-3.6-8-8V208c0-4.4,3.6-8,8-8h66v592c0,39.7,32.3,72,72,72h552V928z M918,792
		c0,4.4-3.6,8-8,8H228c-4.4,0-8-3.6-8-8V72c0-4.4,3.6-8,8-8h490v128c0,39.7,32.3,72,72,72h128V792z"/>
	<path d="M369,369.5c-17.7,0-32,14.3-32,32s14.3,32,32,32h400c17.7,0,32-14.3,32-32s-14.3-32-32-32H369z"/>
	<path d="M769,580.5H369c-17.7,0-32,14.3-32,32s14.3,32,32,32h400c17.7,0,32-14.3,32-32S786.7,580.5,769,580.5z"/>
</g>
</svg>
