<?xml version="1.0" encoding="utf-8"?>
<!-- Generator: Adobe Illustrator 22.0.0, SVG Export Plug-In . SVG Version: 6.00 Build 0)  -->
<svg version="1.1" id="图层_1" xmlns="http://www.w3.org/2000/svg" xmlns:xlink="http://www.w3.org/1999/xlink" x="0px" y="0px"
	 viewBox="0 0 1000 1000" style="enable-background:new 0 0 1000 1000;" xml:space="preserve">
<style type="text/css">
	.st0{fill:#040000;}
</style>
<g>
	<path class="st0" d="M265.2,792.1c0.1,0.1,0.2,0.2,0.3,0.2C265.2,790.6,265.2,791.3,265.2,792.1L265.2,792.1z"/>
</g>
<g>
	<path class="st0" d="M265.3,792.4c0.1-0.2,0.1-0.3,0.2-0.6c-0.1,0.1-0.2,0.1-0.3,0.1C265.2,792.1,265.3,792.2,265.3,792.4
		L265.3,792.4z"/>
</g>
<g>
	<g>
		<path class="st0" d="M741.6,598.2v12.4v64h63.9h130.6v246.7H559.9V598.2H741.6 M766.6,534.2H534.9c-21.5,0-38.9,17.4-38.9,38.9
			v373.1c0,21.5,17.4,38.9,38.9,38.9h426.2c21.5,0,38.9-17.4,38.9-38.9V649.6c0-21.5-17.4-38.9-38.9-38.9H805.5v-37.5
			C805.5,551.7,788.1,534.2,766.6,534.2L766.6,534.2z"/>
	</g>
	<g>
		<path class="st0" d="M32,928.8c-3.1,0-6.3-0.5-9.5-1.5c-16.9-5.2-26.3-23.2-21-40.1c23.1-74.3,68.7-143.8,131.8-200.9
			c41.9-37.9,89.4-68.7,140.1-90.9c-30.3-21.6-56.7-48.5-78.2-79.7c-36.6-53.4-56-115.9-56-180.9c0-85.5,33.3-165.9,93.7-226.3
			C293.3,48,373.6,14.8,459.1,14.8S624.9,48,685.3,108.5c60.4,60.4,93.7,140.8,93.7,226.3c0,17.7-14.3,32-32,32s-32-14.3-32-32
			c0-68.4-26.6-132.7-75-181.1c-48.3-48.4-112.6-75-181-75c-68.4,0-132.6,26.6-181,75c-48.3,48.4-75,112.7-75,181.1
			c0,52,15.5,102,44.7,144.7c28.6,41.7,68.4,73.8,115.1,92.7c12.7,5.2,20.7,17.9,19.9,31.6c-0.8,13.7-10.3,25.4-23.6,28.9
			c-66.7,18.1-130,53-183.1,101.1c-54.6,49.4-93.9,109.1-113.6,172.5C58.3,920,45.6,928.7,32,928.8z"/>
	</g>
</g>
</svg>
