<?xml version="1.0" encoding="utf-8"?>
<!-- Generator: Adobe Illustrator 22.0.0, SVG Export Plug-In . SVG Version: 6.00 Build 0)  -->
<svg version="1.1" id="图层_1" xmlns="http://www.w3.org/2000/svg" xmlns:xlink="http://www.w3.org/1999/xlink" x="0px" y="0px"
	 viewBox="0 0 1000 1000" style="enable-background:new 0 0 1000 1000;" xml:space="preserve">
<g>
	<g>
		<g>
			<path d="M222,795.5h556c17.7,0,32-14.3,32-32v0c0-17.7-14.3-32-32-32H222c-17.7,0-32,14.3-32,32v0
				C190,781.2,204.3,795.5,222,795.5z"/>
		</g>
		<g>
			<path d="M222,560h180.9c17.7,0,32-14.3,32-32v0c0-17.7-14.3-32-32-32H222c-17.7,0-32,14.3-32,32v0C190,545.7,204.3,560,222,560z"
				/>
		</g>
	</g>
	<path d="M930,254H619.4l82.9-82.9c12.5-12.5,12.5-32.8,0-45.3c-12.5-12.5-32.8-12.5-45.3,0L532.3,250.6
		c-19.5,19.5-19.5,51.4,0,70.9L657,446.1c6.2,6.2,14.4,9.4,22.6,9.4c8.2,0,16.4-3.1,22.6-9.4c12.5-12.5,12.5-32.8,0-45.3L619.4,318
		H930c17.7,0,32-14.3,32-32S947.7,254,930,254z"/>
	<g>
		<path d="M890,999H110c-39.7,0-72-32.3-72-72V71c0-39.7,32.3-72,72-72h519c17.7,0,32,14.3,32,32s-14.3,32-32,32H110
			c-4.4,0-8,3.6-8,8v856c0,4.4,3.6,8,8,8h780c4.4,0,8-3.6,8-8V507.5c0-17.7,14.3-32,32-32s32,14.3,32,32V927
			C962,966.7,929.7,999,890,999z"/>
	</g>
</g>
</svg>
