<?xml version="1.0" encoding="utf-8"?>
<!-- Generator: Adobe Illustrator 22.0.0, SVG Export Plug-In . SVG Version: 6.00 Build 0)  -->
<svg version="1.1" id="图层_1" xmlns="http://www.w3.org/2000/svg" xmlns:xlink="http://www.w3.org/1999/xlink" x="0px" y="0px"
	 viewBox="0 0 1000 1000" style="enable-background:new 0 0 1000 1000;" xml:space="preserve">
<style type="text/css">
	.st0{fill:#040000;}
</style>
<g>
	<path class="st0" d="M967,359.4C967,359.4,967,359.4,967,359.4c0-0.8-0.1-1.5-0.2-2.2c0-0.1,0-0.3,0-0.4c-0.2-1.5-0.5-2.9-0.9-4.3
		c0,0,0,0,0,0c-0.4-1.5-0.9-2.9-1.5-4.3c0,0,0,0,0-0.1c-0.3-0.7-0.6-1.4-1-2c0,0,0,0,0,0c-0.3-0.7-0.7-1.3-1.1-1.9
		c-0.1-0.1-0.1-0.2-0.2-0.3c-0.4-0.6-0.7-1.1-1.1-1.7c0-0.1-0.1-0.1-0.1-0.2c-0.4-0.6-0.9-1.1-1.3-1.7c-0.1-0.1-0.2-0.2-0.3-0.3
		c-0.5-0.5-1-1.1-1.5-1.6l-330-330c-0.5-0.5-1-1-1.6-1.5c-0.1-0.1-0.2-0.2-0.3-0.3c-0.5-0.5-1.1-0.9-1.7-1.3c-0.1,0-0.1-0.1-0.2-0.1
		c-0.5-0.4-1.1-0.8-1.7-1.2c-0.1-0.1-0.2-0.1-0.3-0.2c-0.6-0.4-1.3-0.8-1.9-1.1c0,0,0,0,0,0c-0.7-0.4-1.4-0.7-2.1-1c0,0,0,0,0,0
		c-1.4-0.6-2.9-1.1-4.4-1.6c0,0,0,0,0,0c-1.4-0.4-2.9-0.7-4.4-0.9c-0.1,0-0.2,0-0.3,0C607.5-0.9,606.3-1,605-1H105
		C65.3-1,33,31.3,33,71v25c0,17.7,14.3,32,32,32s32-14.3,32-32V71c0-4.4,3.6-8,8-8h468v258c0,39.7,32.3,72,72,72h258v534
		c0,4.4-3.6,8-8,8H105c-4.4,0-8-3.6-8-8V507.5c0-17.7-14.3-32-32-32s-32,14.3-32,32V927c0,39.7,32.3,72,72,72h790
		c39.7,0,72-32.3,72-72V361C967,360.5,967,359.9,967,359.4z M645,329c-4.4,0-8-3.6-8-8V108.3L857.7,329H645z"/>
	<path class="st0" d="M217.6,125.9c-12.5-12.5-32.8-12.5-45.3,0L47.7,250.6C38.2,260,33,272.6,33,286s5.2,26,14.7,35.4l124.7,124.7
		c6.2,6.2,14.4,9.4,22.6,9.4s16.4-3.1,22.6-9.4c12.5-12.5,12.5-32.8,0-45.3L134.7,318h310.6c17.7,0,32-14.3,32-32s-14.3-32-32-32
		H134.7l82.9-82.9C230.1,158.6,230.1,138.4,217.6,125.9z"/>
	<path class="st0" d="M810,554c0-17.7-14.3-32-32-32H222c-17.7,0-32,14.3-32,32v0c0,17.7,14.3,32,32,32h556
		C795.7,586,810,571.7,810,554L810,554z"/>
	<path class="st0" d="M778,757.5H222c-17.7,0-32,14.3-32,32v0c0,17.7,14.3,32,32,32h556c17.7,0,32-14.3,32-32v0
		C810,771.8,795.7,757.5,778,757.5z"/>
</g>
</svg>
