<?xml version="1.0" encoding="utf-8"?>
<!-- Generator: Adobe Illustrator 22.0.0, SVG Export Plug-In . SVG Version: 6.00 Build 0)  -->
<svg version="1.1" id="图层_1" xmlns="http://www.w3.org/2000/svg" xmlns:xlink="http://www.w3.org/1999/xlink" x="0px" y="0px"
	 viewBox="0 0 1000 1000" style="enable-background:new 0 0 1000 1000;" xml:space="preserve">
<style type="text/css">
	.st0{fill:#040000;}
</style>
<path class="st0" d="M990.6,945.4L704.6,659.3C764.1,589.5,800,498.9,800,400C800,179.1,620.9,0,400,0S0,179.1,0,400
	s179.1,400,400,400c98.9,0,189.5-35.9,259.3-95.4l286.1,286.1c6.2,6.2,14.4,9.4,22.6,9.4s16.4-3.1,22.6-9.4
	C1003.1,978.1,1003.1,957.9,990.6,945.4z M530.8,709.6C489.4,727.1,445.4,736,400,736c-45.4,0-89.4-8.9-130.8-26.4
	c-40-16.9-75.9-41.2-106.8-72s-55.1-66.8-72-106.8C72.9,489.4,64,445.4,64,400s8.9-89.4,26.4-130.8c16.9-40,41.2-75.9,72-106.8
	s66.8-55.1,106.8-72C310.6,72.9,354.6,64,400,64c45.4,0,89.4,8.9,130.8,26.4c40,16.9,75.9,41.2,106.8,72s55.1,66.8,72,106.8
	C727.1,310.6,736,354.6,736,400s-8.9,89.4-26.4,130.8c-16.9,40-41.2,75.9-72,106.8S570.8,692.7,530.8,709.6z"/>
</svg>
