<?xml version="1.0" encoding="utf-8"?>
<!-- Generator: Adobe Illustrator 22.0.0, SVG Export Plug-In . SVG Version: 6.00 Build 0)  -->
<svg version="1.1" id="图层_1" xmlns="http://www.w3.org/2000/svg" xmlns:xlink="http://www.w3.org/1999/xlink" x="0px" y="0px"
	 viewBox="0 0 1000 1000" style="enable-background:new 0 0 1000 1000;" xml:space="preserve">
<style type="text/css">
	.st0{fill:#040000;}
</style>
<g>
	<path class="st0" d="M909.7,569.8c-17.7,0-32,14.3-32,32V928c0,4.4-3.6,8-8,8H72c-4.4,0-8-3.6-8-8V130.3c0-4.4,3.6-8,8-8h513.6
		c17.7,0,32-14.3,32-32c0-17.7-14.3-32-32-32H72c-39.7,0-72,32.3-72,72V928c0,39.7,32.3,72,72,72h797.7c39.7,0,72-32.3,72-72V601.8
		C941.7,584.1,927.4,569.8,909.7,569.8z"/>
	<polygon class="st0" points="583.2,737.1 692.8,631.9 919.9,198 834.2,153.1 607.2,587.2 	"/>
	
		<rect x="872.8" y="25.1" transform="matrix(0.4629 -0.8864 0.8864 0.4629 434.6411 864.2415)" class="st0" width="115.3" height="96.7"/>
</g>
</svg>
