<?xml version="1.0" encoding="utf-8"?>
<!-- Generator: Adobe Illustrator 22.0.0, SVG Export Plug-In . SVG Version: 6.00 Build 0)  -->
<svg version="1.1" id="图层_1" xmlns="http://www.w3.org/2000/svg" xmlns:xlink="http://www.w3.org/1999/xlink" x="0px" y="0px"
	 viewBox="0 0 1000 1000" style="enable-background:new 0 0 1000 1000;" xml:space="preserve">
<g>
	<path d="M895,0H105C65.3,0,33,32.3,33,72v525.1V928c0,39.7,32.3,72,72,72h790c39.7,0,72-32.3,72-72V597.1V72
		C967,32.3,934.7,0,895,0z M97,72c0-4.4,3.6-8,8-8h790c4.4,0,8,3.6,8,8v493.1H721.9c-15.6,0-28.9,11.2-31.5,26.5
		c-0.7,4.3-1.6,8.5-2.6,12.7c-0.7,2.8-1.4,5.6-2.2,8.4c-2.4,8.3-5.3,16.4-8.7,24.3c-12,27.6-30.2,52.4-53.3,72.2
		c-26.8,23-59.2,38.2-93.7,44.4c-1.4,0.3-2.9,0.5-4.3,0.7c-2.9,0.5-5.8,0.8-8.7,1.2c-7.3,0.8-14.6,1.2-22,1.2
		c-7.4,0-14.7-0.4-22-1.2c-2.9-0.3-5.8-0.7-8.7-1.2c-1.4-0.2-2.9-0.5-4.3-0.7c-34.4-6.2-66.9-21.4-93.7-44.4
		c-23.1-19.8-41.3-44.6-53.3-72.2c-3.4-7.9-6.4-16-8.7-24.3c-0.8-2.8-1.5-5.6-2.2-8.4c-1-4.2-1.9-8.4-2.6-12.7
		c-2.7-15.3-16-26.5-31.5-26.5H97V72z M903,928c0,4.4-3.6,8-8,8H105c-4.4,0-8-3.6-8-8V629.1h145.2c7.9,28,20.4,54.5,36.9,78.4
		c12.8,18.6,28,35.5,45.4,50.4c47.3,40.6,107.8,62.9,170.3,62.9s123-22.3,170.3-62.9c2.5-2.1,4.9-4.3,7.3-6.5
		c35.8-33.1,61.8-75.6,75-122.3H903V928z"/>
	<path d="M300,242h400c17.7,0,32-14.3,32-32s-14.3-32-32-32H300c-17.7,0-32,14.3-32,32S282.3,242,300,242z"/>
	<path d="M300,453h400c17.7,0,32-14.3,32-32s-14.3-32-32-32H300c-17.7,0-32,14.3-32,32S282.3,453,300,453z"/>
</g>
</svg>
