<?xml version="1.0" encoding="utf-8"?>
<!-- Generator: Adobe Illustrator 22.0.0, SVG Export Plug-In . SVG Version: 6.00 Build 0)  -->
<svg version="1.1" id="图层_1" xmlns="http://www.w3.org/2000/svg" xmlns:xlink="http://www.w3.org/1999/xlink" x="0px" y="0px"
	 viewBox="0 0 1000 1000" style="enable-background:new 0 0 1000 1000;" xml:space="preserve">
<g>
	<path d="M928,716H740V528c0-17.7-14.3-32-32-32s-32,14.3-32,32v188H488c-17.7,0-32,14.3-32,32s14.3,32,32,32h188v188
		c0,17.7,14.3,32,32,32s32-14.3,32-32V780h188c17.7,0,32-14.3,32-32S945.7,716,928,716z"/>
	<path d="M812,0H402c-0.5,0-1.1,0-1.6,0c0,0,0,0-0.1,0c-0.7,0-1.4,0.1-2.1,0.2c-0.1,0-0.3,0-0.4,0c-1.5,0.2-2.9,0.5-4.3,0.9
		c0,0,0,0-0.1,0c-1.5,0.4-2.9,0.9-4.3,1.5H389c-0.7,0.3-1.4,0.6-2,1c0,0,0,0-0.1,0c-0.7,0.3-1.3,0.7-1.9,1.1c0,0.2-0.1,0.3-0.2,0.3
		c-0.6,0.4-1.1,0.7-1.7,1.1c-0.1,0-0.1,0.1-0.2,0.1c-0.6,0.4-1.1,0.9-1.7,1.3c-0.1,0.1-0.2,0.2-0.4,0.3c-0.5,0.5-1.1,1-1.6,1.5
		l-330,330c-0.5,0.5-1,1-1.5,1.6c-0.1,0.1-0.2,0.2-0.3,0.4c-0.5,0.5-0.9,1.1-1.3,1.7c0,0.1-0.1,0.1-0.1,0.2
		c-0.4,0.5-0.8,1.1-1.1,1.7c-0.1,0.1-0.1,0.2-0.2,0.3c-0.4,0.6-0.8,1.3-1.1,1.9l0,0c-0.4,0.7-0.7,1.3-1,2c0,0,0,0,0,0.1
		c-0.6,1.4-1.1,2.8-1.5,4.3l0,0c-0.4,1.4-0.7,2.9-0.9,4.3c0,0.1,0,0.2,0,0.4c-0.1,0.7-0.2,1.4-0.2,2.1l0,0c0,0.5,0,1.1,0,1.6v566
		c0,39.7,32.3,72,72,72h250c17.7,0,32-14.3,32-32s-14.3-32-32-32H112c-4.4,0-8-3.6-8-8V394h258c39.7,0,72-32.3,72-72V64h378
		c4.4,0,8,3.6,8,8v328c0,17.7,14.3,32,32,32s32-14.3,32-32V72C884,32.3,851.7,0,812,0z M370,322c0,4.4-3.6,8-8,8H149.3L370,109.3
		V322z"/>
</g>
</svg>
