<?xml version="1.0" encoding="utf-8"?>
<!-- Generator: Adobe Illustrator 22.0.0, SVG Export Plug-In . SVG Version: 6.00 Build 0)  -->
<svg version="1.1" id="图层_1" xmlns="http://www.w3.org/2000/svg" xmlns:xlink="http://www.w3.org/1999/xlink" x="0px" y="0px"
	 viewBox="0 0 1000 1000" style="enable-background:new 0 0 1000 1000;" xml:space="preserve">
<g>
	<polygon points="692.5,807.4 673.7,924.8 759.5,842.4 937.3,502.7 870.2,467.6 	"/>
	<rect x="900.4" y="367.4" transform="matrix(0.4629 -0.8864 0.8864 0.4629 148.6863 1055.8093)" width="90.3" height="75.7"/>
	<path d="M581,775.1H72c-4.4,0-8-3.6-8-8V350.9l313.7,258.6c22.9,22.2,52.6,33.4,82.3,33.4s59.5-11.1,82.3-33.4l346.8-286.8
		c0.8-0.6,1.5-1.3,2.2-2c20-20,31.9-47,33.4-75.2c0.1-1.1,0.2-2.3,0.2-3.4v-38.9c0-39.7-32.3-72-72-72H72c-39.7,0-72,32.3-72,72
		v563.9c0,39.7,32.3,72,72,72h509c17.7,0,32-14.3,32-32S598.7,775.1,581,775.1z M72,195.2h781c4.4,0,8,3.6,8,8V236
		c0,0.8-0.1,1.6,0,2.5c0.3,13.5-4.6,26.3-13.9,36.1L500.5,561.1c-0.8,0.6-1.5,1.3-2.2,2c-21.1,21.1-55.4,21.1-76.5,0
		c-0.7-0.7-1.5-1.4-2.3-2.1L77.9,279.4c-9-9.4-13.9-21.7-13.9-34.8c0-0.4,0-0.8,0-1.2v-40.2C64,198.8,67.6,195.2,72,195.2z"/>
</g>
</svg>
