<?xml version="1.0" encoding="utf-8"?>
<!-- Generator: Adobe Illustrator 22.0.0, SVG Export Plug-In . SVG Version: 6.00 Build 0)  -->
<svg version="1.1" id="图层_1" xmlns="http://www.w3.org/2000/svg" xmlns:xlink="http://www.w3.org/1999/xlink" x="0px" y="0px"
	 viewBox="0 0 1000 1000" style="enable-background:new 0 0 1000 1000;" xml:space="preserve">
<style type="text/css">
	.st0{fill:#040000;}
</style>
<g>
	<g>
		<polygon class="st0" points="736.7,127.7 547.5,489.6 527.5,614.6 618.9,526.9 808.2,165.1 		"/>
		
			<rect x="769" y="20.9" transform="matrix(0.4629 -0.8864 0.8864 0.4629 384.539 757.1264)" class="st0" width="96.1" height="80.6"/>
	</g>
	<g>
		<path class="st0" d="M207.5,482.9l228.7,0c16.5,0,31.4-11.8,33.5-28.2c2.4-19.6-12.9-36.4-32-36.4l-228.7,0
			c-16.5,0-31.4,11.8-33.5,28.2C173,466.1,188.4,482.9,207.5,482.9z"/>
		<path class="st0" d="M207.5,664.2l158.7,0c16.5,0,31.4-11.8,33.5-28.2c2.4-19.6-12.9-36.4-32-36.4l-158.7,0
			c-16.5,0-31.4,11.8-33.5,28.2C173,647.4,188.4,664.2,207.5,664.2z"/>
		<path class="st0" d="M667.5,664.2l113.7,0c16.5,0,31.4-11.8,33.5-28.2c2.4-19.6-12.9-36.4-32-36.4l-113.7,0
			c-16.5,0-31.4,11.8-33.5,28.2C633,647.4,648.4,664.2,667.5,664.2z"/>
	</g>
	<path class="st0" d="M900.6,193.3L900.6,193.3L900.6,193.3c-14.1,0-25.6,11.4-25.6,25.6v13.6c0,14.1,11.4,25.4,25.4,25.4l0,0v560.6
		H357.1v0.2c-5.1,0.2-10.3,1.5-15,4.1L223,891.6v-73.2H99.6V257.9h463.2c17.8,0,32.3-14.5,32.3-32.3v0c0-17.8-14.5-32.3-32.3-32.3
		H99.6C64,193.3,35,222.3,35,257.9v592.9c0,17.8,14.5,32.3,32.3,32.3h91.1v84.6c0,0.7,0.1,1.2,0.2,1.8c0.1,1.2,0.1,2.5,0.3,3.6
		c0.1,0.9,0.3,1.7,0.6,2.6c0.3,1.2,0.7,2.5,1.1,3.7c0.3,0.8,0.7,1.5,1,2.1l1,2.3c0.2,0.4,0.7,0.8,0.9,1.2c0.3,0.6,0.8,1,1.1,1.6
		c0.9,1.2,1.8,2.3,2.9,3.5c0.3,0.3,0.8,0.7,1.1,1.1c1.1,1,2.2,2,3.5,2.9c0.6,0.4,1.2,0.7,1.8,1.1c1.1,0.7,2.2,1.3,3.5,1.9l2.7,1
		c1,0.3,2.1,0.8,3.1,1s2,0.3,3,0.6c1.1,0.1,2.2,0.3,3.4,0.3c0.3,0,0.8,0.1,1.1,0.1c0.7,0,1.2-0.1,1.8-0.2c1.2-0.1,2.3-0.1,3.5-0.3
		c0.9-0.1,1.9-0.3,2.8-0.7l3.4-1c1.3-0.5,2.3-1.2,3.7-1.5l161.1-113h533.5c35.5,0,64.6-28.9,64.6-64.6V257.9
		C965,222.3,936.1,193.3,900.6,193.3z"/>
</g>
</svg>
