<?xml version="1.0" encoding="utf-8"?>
<!-- Generator: Adobe Illustrator 22.0.0, SVG Export Plug-In . SVG Version: 6.00 Build 0)  -->
<svg version="1.1" id="图层_1" xmlns="http://www.w3.org/2000/svg" xmlns:xlink="http://www.w3.org/1999/xlink" x="0px" y="0px"
	 viewBox="0 0 1000 1000" style="enable-background:new 0 0 1000 1000;" xml:space="preserve">
<style type="text/css">
	.st0{fill:#040000;}
</style>
<path class="st0" d="M795.4,0H682.8c-1.1,0-2.2,0.1-3.3,0.2c-1.1-0.1-2.2-0.2-3.3-0.2H534.7H261.9H137.3
	c-26.9,0-48.8,21.9-48.8,48.8v902.3c0,26.9,21.9,48.8,48.8,48.8h658.1c64,0,116.1-52.1,116.1-116.2V116.2
	C911.5,52.1,859.4,0,795.4,0z M566.6,64h84.1v91.4l-21.9-17.8c-11.7-9.5-28.6-9.5-40.3,0l-21.9,17.8V64z M152.5,64h109.5h1v872
	H152.5V64z M847.5,883.8c0,28.8-23.4,52.2-52.1,52.2H326.9V64h175.8v158.6c0,12.3,7.1,23.6,18.2,28.9c11.1,5.3,24.3,3.7,33.9-4
	l53.9-43.8l53.9,43.8c9.6,7.8,22.8,9.4,33.9,4c11.1-5.3,18.2-16.5,18.2-28.9V64h80.7c28.7,0,52.1,23.4,52.1,52.2V883.8z"/>
</svg>
