<?xml version="1.0" encoding="utf-8"?>
<!-- Generator: Adobe Illustrator 22.0.0, SVG Export Plug-In . SVG Version: 6.00 Build 0)  -->
<svg version="1.1" id="图层_1" xmlns="http://www.w3.org/2000/svg" xmlns:xlink="http://www.w3.org/1999/xlink" x="0px" y="0px"
	 viewBox="0 0 1000 1000" style="enable-background:new 0 0 1000 1000;" xml:space="preserve">
<style type="text/css">
	.st0{fill:#040000;}
</style>
<g>
	<g>
		<polygon class="st0" points="854.2,390.3 676.5,730.1 657.7,847.5 743.5,765.1 921.3,425.4 		"/>
		
			<rect x="884.4" y="290.1" transform="matrix(0.4629 -0.8864 0.8864 0.4629 208.6058 1000.1114)" class="st0" width="90.3" height="75.7"/>
	</g>
	<g>
		<g>
			<path class="st0" d="M200,240h526c17.7,0,32,14.3,32,32v0c0,17.7-14.3,32-32,32H200c-17.7,0-32-14.3-32-32v0
				C168,254.3,182.3,240,200,240z"/>
			<path class="st0" d="M200,475.5h372c17.7,0,32,14.3,32,32v0c0,17.7-14.3,32-32,32H200c-17.7,0-32-14.3-32-32v0
				C168,489.8,182.3,475.5,200,475.5z"/>
			<path class="st0" d="M200,711h169c17.7,0,32,14.3,32,32v0c0,17.7-14.3,32-32,32H200c-17.7,0-32-14.3-32-32v0
				C168,725.3,182.3,711,200,711z"/>
		</g>
		<g>
			<g>
				<path class="st0" d="M838,1000H88c-39.7,0-72-32.3-72-72V72C16,32.3,48.3,0,88,0h750c39.7,0,72,32.3,72,72v89
					c0,17.7-14.3,32-32,32s-32-14.3-32-32V72c0-4.4-3.6-8-8-8H88c-4.4,0-8,3.6-8,8v856c0,4.4,3.6,8,8,8h750c4.4,0,8-3.6,8-8V818
					c0-17.7,14.3-32,32-32s32,14.3,32,32v110C910,967.7,877.7,1000,838,1000z"/>
			</g>
		</g>
	</g>
</g>
</svg>
