<?xml version="1.0" encoding="utf-8"?>
<!-- Generator: Adobe Illustrator 22.0.0, SVG Export Plug-In . SVG Version: 6.00 Build 0)  -->
<svg version="1.1" id="图层_1" xmlns="http://www.w3.org/2000/svg" xmlns:xlink="http://www.w3.org/1999/xlink" x="0px" y="0px"
	 viewBox="0 0 1000 1000" style="enable-background:new 0 0 1000 1000;" xml:space="preserve">
<style type="text/css">
	.st0{fill:#040000;}
</style>
<g>
	<path class="st0" d="M898.6,962.5H101.4C47.3,962.5,0,915.2,0,861.2V226.7C0,166,40.5,125.4,101.4,125.4h797.3
		c60.8,0,101.4,40.5,101.4,101.3v634.5C1000,915.2,952.7,962.5,898.6,962.5L898.6,962.5z M101.4,193c-20.3,0-33.8,13.5-33.8,33.8
		v634.5c0,13.5,20.3,33.8,33.8,33.8h797.3c20.3,0,33.8-20.3,33.8-33.8V226.7c0-20.3-13.5-33.8-33.8-33.8H101.4z"/>
	<path class="st0" d="M263.5,37.5L263.5,37.5c19.3,0,35,15.7,35,35v173.1c0,19.3-15.7,35-35,35h0c-19.3,0-35-15.7-35-35V72.5
		C228.5,53.2,244.2,37.5,263.5,37.5z"/>
	<path class="st0" d="M729.7,37.5L729.7,37.5c19.3,0,35,15.7,35,35v173.1c0,19.3-15.7,35-35,35h0c-19.3,0-35-15.7-35-35V72.5
		C694.7,53.2,710.4,37.5,729.7,37.5z"/>
	<g>
		<path class="st0" d="M223.2,436.7h76c19.3,0,35,15.7,35,35v0c0,19.3-15.7,35-35,35h-76c-19.3,0-35-15.7-35-35v0
			C188.2,452.4,203.9,436.7,223.2,436.7z"/>
		<path class="st0" d="M460.7,436.4h76c19.3,0,35,15.7,35,35v0c0,19.3-15.7,35-35,35h-76c-19.3,0-35-15.7-35-35v0
			C425.7,452.1,441.4,436.4,460.7,436.4z"/>
		<path class="st0" d="M698.2,436.4h76c19.3,0,35,15.7,35,35v0c0,19.3-15.7,35-35,35h-76c-19.3,0-35-15.7-35-35v0
			C663.2,452.1,678.9,436.4,698.2,436.4z"/>
		<path class="st0" d="M223.2,626.6h76c19.3,0,35,15.7,35,35v0c0,19.3-15.7,35-35,35h-76c-19.3,0-35-15.7-35-35v0
			C188.2,642.2,203.9,626.6,223.2,626.6z"/>
		<path class="st0" d="M460.7,626.2h76c19.3,0,35,15.7,35,35v0c0,19.3-15.7,35-35,35h-76c-19.3,0-35-15.7-35-35v0
			C425.7,641.9,441.4,626.2,460.7,626.2z"/>
		<path class="st0" d="M698.2,626.2h76c19.3,0,35,15.7,35,35v0c0,19.3-15.7,35-35,35h-76c-19.3,0-35-15.7-35-35v0
			C663.2,641.9,678.9,626.2,698.2,626.2z"/>
	</g>
</g>
</svg>
