<?xml version="1.0" encoding="utf-8"?>
<!-- Generator: Adobe Illustrator 22.0.0, SVG Export Plug-In . SVG Version: 6.00 Build 0)  -->
<svg version="1.1" id="图层_1" xmlns="http://www.w3.org/2000/svg" xmlns:xlink="http://www.w3.org/1999/xlink" x="0px" y="0px"
	 viewBox="0 0 1000 1000" style="enable-background:new 0 0 1000 1000;" xml:space="preserve">
<style type="text/css">
	.st0{fill:#040000;}
</style>
<path class="st0" d="M957.3,598l-81.5-64.9l-1.7-1.4l0.2-2.2c1.7-19.5,1.7-39.4,0-58.9l-0.2-2.2l1.7-1.4l81.7-64.9
	c21.1-17.5,26.7-47.4,13.3-71.3l-91.3-161.1l0-0.1l0,0c-9.4-17.5-27.5-28.4-47.4-28.4c-6.3,0-12.4,1.1-18.4,3.3l-97.5,39.8l-2,0.8
	l-1.8-1.3c-16-11.2-32.8-21.2-50-29.6l-1.9-0.9l-0.3-2.1L645.3,47.6l0,0l0-0.1C642,20.6,619.1,0.2,592,0h0h0H408.2
	c-27,0-50,20.2-53.4,47v0l0,0l-14.8,104.4l-0.3,2.1l-1.9,0.9c-17,8.3-33.8,18.3-50,29.6l-1.8,1.3l-2-0.8L187.2,145
	c-6.2-2.5-12.8-3.8-19.5-3.8c-19.2,0-37.1,10.6-46.6,27.7L29.3,331c-13.5,23.9-7.9,53.8,13.4,71.2l81.5,64.9l1.8,1.4l-0.3,2.3
	c-1.3,10.4-1.3,19.9-1.3,29.2c0.1,9.8,0.5,19.6,1.4,29.4l0.2,2.2l-1.7,1.4l-81.6,64.9c-21.1,17.5-26.7,47.5-13.3,71.3l91.4,161.1
	l0,0l0,0c9.4,17.5,27.6,28.4,47.4,28.4c6.2,0,12.4-1.1,18.3-3.2l97.6-39.9l2-0.8l1.8,1.3c15.8,11.2,32.7,21.1,50,29.7l1.9,0.9
	l0.3,2.1l14.5,103.7l0,0c3.3,27.1,26.2,47.5,53.4,47.6h183.8c26.9-0.1,49.8-20.3,53.2-47l-0.5-0.1c0,0,0,0,0,0l0.5,0.1l15.1-104.4
	l0.3-2.1l1.9-0.9c17.4-8.6,34.2-18.6,50-29.7l1.8-1.3l2,0.8L813,855c6.3,2.5,12.8,3.8,19.5,3.8c19.2,0,37-10.6,46.6-27.7l92-162.4
	c6.3-11.5,8.4-25,5.8-37.9C974.4,617.8,967.4,606.1,957.3,598z M604.3,801.5l-0.5,0.2l-0.1,0.6l-18.3,130.3L585,936h-3.5H418.8h-3.5
	l-0.5-3.5l-18.3-130.1l-0.1-0.6l-0.5-0.2l-16-6.6c-25.3-10.6-49-24.6-70.6-41.8l-13.5-10.6l-0.5-0.4l-0.5,0.2l-120.2,49.1l-3.3,1.3
	l-1.8-3.1L88.4,646.1l-1.7-3l2.7-2.1l101.9-81.1l0.4-0.3l-0.1-0.6l-2.1-17.5c-1.8-13.5-2.9-27.6-3.1-41.9v-0.1v-0.1
	c0.2-13.9,1.2-28,3.1-41.8l2.1-17.5l0.1-0.6l-0.4-0.3L89.4,358.2l-2.7-2.2l1.7-3l81.3-143l1.8-3.1l3.3,1.4l119.9,49.3l0.5,0.2
	l0.5-0.4l13.2-10.2c21.8-17,45.7-31.1,71.2-41.9l16-6.7l0.5-0.2l0.1-0.6l18.4-130.3l0.5-3.5h3.5h162.6h3.5l0.5,3.5l18.3,130.3
	l0.1,0.6l0.5,0.2l15.8,6.4h0l0.1,0c25.3,10.6,49.1,24.6,70.6,41.7l13.5,10.6l0.5,0.4l0.5-0.2l120.2-49.1l3.3-1.3l1.8,3.1l81.9,143.5
	l1.7,3l-2.7,2.2l-101.9,81.1l-0.4,0.3l0.1,0.6l2.1,17.5c4,27.8,4,56,0,83.8l-2.1,17.5l-0.1,0.6l0.4,0.3l101.9,81l2.7,2.2l-1.7,3
	l-81.3,143.1l-1.8,3.1l-3.3-1.3l-120.3-49l-0.5-0.2l-0.5,0.3l-13.5,10.3c-21.8,17-45.7,31.1-71.1,41.9L604.3,801.5z"/>
<path class="st0" d="M573.4,322.4c-23.1-10.1-47.7-15.2-73-15.2h-0.4c-50,0-97.1,19.9-132.6,56.2c-35.5,36.2-55.2,84.5-55.4,135.9
	c-0.1,26,4.8,51.3,14.5,75.1c9.4,23,22.8,43.6,40,61.4c17.2,17.8,37.2,31.8,59.5,41.6c23.1,10.2,47.6,15.4,73,15.5h0.3
	c50.3,0,97.6-20,133.2-56.4C668.1,600,687.8,551.6,688,500c0-26-5-51.2-14.8-75c-9.5-22.9-23-43.5-40.2-61.3
	C615.8,346,595.7,332.1,573.4,322.4z M591,592.8c-24.2,24.9-56.4,38.6-90.6,38.7H500c-34.2,0-66.4-13.6-90.6-38.3
	c-24.2-24.7-37.7-57.5-37.9-92.5c-0.2-35,12.9-68.1,36.9-93c24-25,56.1-38.9,90.4-39.3l0.5,0c34.4,0,66.7,13.7,91.1,38.5
	c24.3,24.8,37.8,57.8,38,93C628.4,535,615.1,568,591,592.8z"/>
</svg>
