<?xml version="1.0" encoding="utf-8"?>
<!-- Generator: Adobe Illustrator 22.0.0, SVG Export Plug-In . SVG Version: 6.00 Build 0)  -->
<svg version="1.1" id="图层_1" xmlns="http://www.w3.org/2000/svg" xmlns:xlink="http://www.w3.org/1999/xlink" x="0px" y="0px"
	 viewBox="0 0 1000 1000" style="enable-background:new 0 0 1000 1000;" xml:space="preserve">
<g>
	<path d="M865.2,807.4l-1.9-2l1.8-2.1c37.4-44.4,66.4-94.3,85.9-148.5c19.6-54.3,29.3-111.5,28.8-170
		c-1-129.1-51.8-250.6-143.2-341.9C789.9,96.4,735.5,60.3,674.8,35.8C616.2,12,554.2,0,490.6,0S365.1,12,306.5,35.8
		C245.7,60.3,191.4,96.4,144.7,143C52.2,235.5,1.4,358.2,1.5,489c0.1,130.6,51,253.4,143.4,345.5c85.8,85.8,181.3,135,300.5,154.8
		l1.7,0.2c60,6.9,120.4,10.4,179.6,10.4c194.6,0,316.9-37.5,322-39.1l49.8-15.6L865.2,807.4z M871.3,913.3
		c-23.1,4.5-47.6,8.5-72.9,11.7c-55.1,7-113.4,10.6-173,10.6c-56.5,0-113.6-3.3-170.1-9.7h-0.1h-0.1
		c-104.9-17.6-189-61.1-264.5-136.7l-0.1-0.1C110.2,708.9,66.1,602.4,66,488.9c-0.1-113.5,44-220.1,124.3-300.4
		c40.4-40.5,87.7-71.8,140.4-93.1c50.9-20.6,104.7-31,159.9-31c55.1,0,109,10.5,159.8,31c52.7,21.3,100,52.7,140.4,93.1
		c79.4,79.3,123.5,184.8,124.4,296.8c0.9,112-41.5,217.9-119.3,298.3l-21.7,22.4l98.5,102l3.9,4L871.3,913.3z"/>
	<ellipse cx="501.2" cy="781" rx="40" ry="40.1"/>
	<path d="M501.3,169.6c-105.8,0-191.9,86-191.9,191.9c-0.1,18.5,15,33.7,33.6,33.7c18.5,0,33.6-15.1,33.6-33.7
		c0-68.7,55.9-124.6,124.6-124.6c68.7,0,124.6,55.9,124.6,124.6c0,54.4-30,82-68,117.1l-0.9,0.8c-20.7,19.2-42,39.1-59,64.6
		c-20.4,31-30.4,64.8-30.4,103.1c0,18.5,15.1,33.7,33.6,33.7c18.5,0,33.6-15.1,33.7-33.7c0-25,6.1-46,19.2-65.9
		c12.6-19.2,30.4-35.7,49.3-53l0.3-0.3c41.8-38.8,89.3-82.7,89.3-166.3C693.1,255.7,607,169.6,501.3,169.6z"/>
</g>
</svg>
