<?xml version="1.0" encoding="utf-8"?>
<!-- Generator: Adobe Illustrator 22.0.0, SVG Export Plug-In . SVG Version: 6.00 Build 0)  -->
<svg version="1.1" id="图层_1" xmlns="http://www.w3.org/2000/svg" xmlns:xlink="http://www.w3.org/1999/xlink" x="0px" y="0px"
	 viewBox="0 0 1000 1000" style="enable-background:new 0 0 1000 1000;" xml:space="preserve">
<g>
	<path d="M816,71.7v328c0,17.7,14.3,32,32,32s32-14.3,32-32v-328c0-39.7-32.3-72-72-72H398c-0.5,0-1.1,0-1.6,0c0,0,0,0-0.1,0
		c-0.7,0-1.4,0.1-2.1,0.2c-0.1,0-0.3,0-0.4,0.1c-1.5,0.2-2.9,0.5-4.3,0.9c0,0,0,0-0.1,0c-1.5,0.4-2.9,0.9-4.3,1.5c0,0-0.1,0-0.1,0
		c-0.7,0.3-1.4,0.6-2,1c0,0,0,0-0.1,0c-0.6,0.3-1.3,0.7-1.9,1.1c-0.1,0.1-0.2,0.1-0.3,0.2c-0.6,0.4-1.1,0.7-1.6,1.1
		c-0.1,0-0.1,0.1-0.2,0.1c-0.6,0.4-1.1,0.9-1.6,1.3c-0.1,0.1-0.2,0.2-0.4,0.3c-0.5,0.5-1.1,1-1.6,1.5l-330,330c-0.5,0.5-1,1-1.5,1.6
		c-0.1,0.1-0.2,0.2-0.3,0.4c-0.5,0.5-0.9,1.1-1.3,1.7c0,0.1-0.1,0.1-0.1,0.2c-0.4,0.5-0.8,1.1-1.1,1.7c-0.1,0.1-0.1,0.2-0.2,0.3
		c-0.4,0.6-0.8,1.3-1.1,1.9c0,0,0,0,0,0c-0.4,0.7-0.7,1.3-1,2c0,0,0,0,0,0.1c-0.6,1.4-1.1,2.8-1.5,4.3c0,0,0,0,0,0
		c-0.4,1.4-0.7,2.9-0.9,4.3c0,0.1,0,0.2,0,0.4c-0.1,0.7-0.2,1.4-0.2,2.1c0,0,0,0,0,0c0,0.5,0,1.1,0,1.6v566c0,39.7,32.3,72,72,72
		h250c17.7,0,32-14.3,32-32s-14.3-32-32-32H108c-4.4,0-8-3.6-8-8v-534h258c7.4,0,14.6-1.1,21.4-3.2c28.2-8.8,49-34.4,50.5-65.1
		c0.1-1.2,0.1-2.5,0.1-3.7v-258h378C812.4,63.7,816,67.3,816,71.7z M366,321.7c0,4.4-3.6,8-8,8H145.3L366,108.9V321.7z"/>
	<path d="M946.5,706.8L791.6,551.9c-12.5-12.5-32.8-12.5-45.3,0c-12.5,12.5-12.5,32.8,0,45.3l116.5,116.5H483c-17.7,0-32,14.3-32,32
		s14.3,32,32,32h379.9L746.4,894.2c-12.5,12.5-12.5,32.8,0,45.3c6.2,6.2,14.4,9.4,22.6,9.4c8.2,0,16.4-3.1,22.6-9.4l154.9-154.9
		C967.9,763.1,967.9,728.2,946.5,706.8z"/>
</g>
</svg>
