<?xml version="1.0" encoding="utf-8"?>
<!-- Generator: Adobe Illustrator 22.0.0, SVG Export Plug-In . SVG Version: 6.00 Build 0)  -->
<svg version="1.1" id="图层_1" xmlns="http://www.w3.org/2000/svg" xmlns:xlink="http://www.w3.org/1999/xlink" x="0px" y="0px"
	 viewBox="0 0 1000 1000" style="enable-background:new 0 0 1000 1000;" xml:space="preserve">
<path d="M810,620c-36,0-69.7,10.1-98.4,27.5l-87.1-92.8c37.7-44.4,58.3-100.1,58.3-159c0-35.1-7.3-69-21.1-100.1l52.1-43.7
	c23.4,17.6,52.5,28.1,84.1,28.1c77.2,0,140-62.8,140-140S875.1,0,797.9,0s-140,62.8-140,140c0,22.6,5.4,43.9,14.9,62.8l-45,37.7
	c-5.3-6.5-11-12.8-17-18.8c-46.5-46.5-108.2-72.1-173.9-72.1c-56.7,0-110.5,19.1-154.1,54.2l-37.2-37.2c10-16.6,15.7-36,15.7-56.7
	c0-60.7-49.3-110-110-110s-110,49.3-110,110s49.3,110,110,110c16.7,0,32.5-3.7,46.7-10.4l40.5,40.5c-30.9,42-47.7,92.5-47.7,145.6
	c0,65.7,25.6,127.5,72.1,173.9c2.1,2.1,4.3,4.2,6.5,6.3l-39.7,51.8c-19.5-8.1-40.9-12.5-63.3-12.5C74.7,615.2,0,689.9,0,781.7
	s74.7,166.5,166.5,166.5S333,873.5,333,781.7c0-46.4-19-88.3-49.7-118.6l38.3-50c35.1,18.7,74.4,28.6,115.3,28.6
	c50.9,0,99.4-15.4,140.3-43.9l86,91.7c-27,32.8-43.2,74.8-43.2,120.5c0,104.8,85.2,190,190,190s190-85.2,190-190S914.8,620,810,620z
	 M797.9,64c41.9,0,76,34.1,76,76s-34.1,76-76,76s-76-34.1-76-76S756,64,797.9,64z M166.5,884.2C110,884.2,64,838.2,64,781.7
	s46-102.5,102.5-102.5S269,725.1,269,781.7S223,884.2,166.5,884.2z M105.4,110c0-25.4,20.6-46,46-46s46,20.6,46,46s-20.6,46-46,46
	S105.4,135.4,105.4,110z M254.9,395.7c0-100.4,81.6-182,182-182c100.4,0,182,81.6,182,182c0,100.4-81.6,182-182,182
	C336.5,577.7,254.9,496,254.9,395.7z M810,936c-69.5,0-126-56.5-126-126s56.5-126,126-126s126,56.5,126,126S879.5,936,810,936z"/>
</svg>
