<?xml version="1.0" encoding="utf-8"?>
<!-- Generator: Adobe Illustrator 22.0.0, SVG Export Plug-In . SVG Version: 6.00 Build 0)  -->
<svg version="1.1" id="图层_1" xmlns="http://www.w3.org/2000/svg" xmlns:xlink="http://www.w3.org/1999/xlink" x="0px" y="0px"
	 viewBox="0 0 1000 1000" style="enable-background:new 0 0 1000 1000;" xml:space="preserve">
<path d="M933.3,250c-38.6-66.7-143.4-71.6-265.6-39.6C633.3,88.9,577.7,0,500,0c-70.6,0-130.7,76.2-167.6,210.3
	C212.3,179.1,106.1,182.6,66.6,250c-30,51.9-8.3,126.4,61.2,209.6c11.1,13.4,23.9,27,37.2,40.4c-13.3,13.4-26,27-37.2,40.4
	c-69.3,83.1-91,157.7-61.2,209.6c22.2,39.1,70,58.9,136.7,58.9c43.7-0.9,87-7.3,129.1-19C365.7,909.6,422.2,1000,500,1000
	s133.3-88.9,166.7-210.4c42.7,11.8,86.8,18.3,131.1,19.2c62.6,0,111.1-17.7,135.1-58.8c35.2-61.1,0.4-151.2-98.4-250
	C922.2,411.1,971.9,317.3,933.3,250z M878.9,281.2c23.6,41-37.8,144.7-175.8,252.1V500c0-76.9-7.4-153.7-22.2-229.2
	C787.7,243,861.2,250.8,878.9,281.2L878.9,281.2z M256.5,500c53.7-46.1,111.7-87,173.1-122.2c61.2-35.6,125.7-65.4,192.6-88.9
	c12.9,69.6,19.1,140.3,18.7,211.1c0.5,70.8-5.8,141.5-18.7,211.1c-66.7-23.5-131.1-53.3-192.2-88.9C368.4,587,310.4,546.1,256.5,500
	z M500,62.4c35.1,0,77.8,59.8,107.8,165.9c-36.7,12.4-72.7,26.8-107.8,43.1c-35.1-16.4-71.2-30.7-107.9-43.1
	C423.4,114.1,467.7,62.4,500,62.4z M121.1,281.2c23.7-41.2,144.4-39.7,306.3,26.8c-9.7,5.3-19.3,11.1-29,15.6
	c-66.6,38.2-129.3,82.8-187.3,133c-12-12-23.5-24.5-34.6-37.4C127,360.7,105.9,307.7,121.1,281.2z M121.1,718.8
	c-15.7-26.4,5.9-79.4,55.6-138.3c10.4-12.4,22.2-25,34.4-37.4c29.2,25.2,59.7,49,91.3,71.1c3.4,38.6,8.8,77,16.3,115
	C204,759.2,137.1,746.6,121.1,718.8L121.1,718.8z M500,937.6c-47.7,0-106.6-105.1-130.2-278.8c9.4,5.8,18.9,11.1,28.7,17.1
	c66.5,38.7,136.6,70.7,209.3,95.8C577.7,877.8,535.1,937.6,500,937.6z M878.9,718.8c-17.7,30.4-91.1,38.2-197.6,10.4
	c7.6-37.9,13.1-76.2,16.6-114.7c31.6-22.3,62-46.3,91-71.9C872.4,626.7,895,690.9,878.9,718.8z M500,593.8
	c-51.8,0.1-93.8-41.9-93.9-93.7c-0.1-51.8,41.9-93.8,93.7-93.9c51.8-0.1,93.8,41.9,93.9,93.7c0,0,0,0.1,0,0.1
	c0.1,51.7-41.8,93.7-93.6,93.8C500,593.8,500,593.8,500,593.8z M500,468.8c-17.2,0-31.2,14-31.2,31.2c0,17.2,14,31.2,31.2,31.2
	c17.2,0,31.2-14,31.2-31.2C531.2,482.8,517.2,468.8,500,468.8L500,468.8z"/>
</svg>
