<?xml version="1.0" encoding="utf-8"?>
<!-- Generator: Adobe Illustrator 22.0.0, SVG Export Plug-In . SVG Version: 6.00 Build 0)  -->
<svg version="1.1" id="图层_1" xmlns="http://www.w3.org/2000/svg" xmlns:xlink="http://www.w3.org/1999/xlink" x="0px" y="0px"
	 viewBox="0 0 1000 1000" style="enable-background:new 0 0 1000 1000;" xml:space="preserve">
<g>
	<g>
		<path d="M833.1,758.8l-105.8-43.3v-98.1c0-13.1-11-24-24-24s-24.1,10.9-24.1,24v114.2c0,11.7,7.5,19.1,17.6,23.2l123.4,50.5
			c12.2,5,26.5-5.3,29.6-16.8C853.6,774.7,845.1,763.8,833.1,758.8L833.1,758.8z"/>
	</g>
	<g>
		<path d="M424.3,999.9H97.1c-39.8,0-72.1-32.3-72.1-72.1V121.2c0-39.7,32.3-72.1,72.1-72.1h80.1c17.7,0,32,14.3,32,32
			s-14.3,32-32,32H97.1c-4.4,0-8,3.6-8,8v806.7c0,4.4,3.6,8,8,8h327.2c17.7,0,32,14.3,32,32C456.3,985.6,442,999.9,424.3,999.9z"/>
	</g>
	<g>
		<path d="M898.1,446.6c-17.7,0-32-14.3-32-32V121.2c0-4.4-3.6-8-8-8H778c-17.7,0-32-14.3-32-32s14.3-32,32-32h80.1
			c39.8,0,72.1,32.3,72.1,72.1v293.4C930.2,432.3,915.8,446.6,898.1,446.6z"/>
	</g>
	<g>
		<g>
			<path d="M567.7,113.2H387.5c-17.7,0-32-14.3-32-32s14.3-32,32-32h180.2c17.7,0,32,14.3,32,32S585.4,113.2,567.7,113.2z"/>
		</g>
		<g>
			<path d="M283.3,162.2c-17.7,0-32-14.3-32-32V32.1c0-17.7,14.3-32,32-32s32,14.3,32,32v98.1C315.4,147.9,301,162.2,283.3,162.2z"
				/>
		</g>
		<g>
			<path d="M671.9,162.2c-17.7,0-32-14.3-32-32V32.1c0-17.7,14.3-32,32-32c17.7,0,32,14.3,32,32v98.1
				C703.9,147.9,689.5,162.2,671.9,162.2z"/>
		</g>
	</g>
	<g>
		<g>
			<path d="M738.9,334.5H338.4c-17.7,0-32-14.3-32-32s14.3-32,32-32h400.5c17.7,0,32,14.3,32,32S756.6,334.5,738.9,334.5z"/>
		</g>
		<g>
			<ellipse cx="228.3" cy="302.5" rx="32" ry="32"/>
		</g>
		<g>
			<path d="M456.3,494.7H338.4c-17.7,0-32-14.3-32-32s14.3-32,32-32h117.9c17.7,0,32,14.3,32,32S474,494.7,456.3,494.7z"/>
		</g>
		<g>
			<ellipse cx="228.3" cy="462.6" rx="32" ry="32"/>
		</g>
		<g>
			<path d="M369.2,654.8h-30.8c-17.7,0-32-14.3-32-32c0-17.7,14.3-32,32-32h30.8c17.7,0,32,14.3,32,32
				C401.2,640.5,386.9,654.8,369.2,654.8z"/>
		</g>
		<g>
			<ellipse cx="228.3" cy="622.8" rx="32" ry="32"/>
		</g>
	</g>
	<g>
		<path d="M702.6,1000.1c-72.8,0-141.1-28.3-192.6-79.7s-79.8-119.8-79.8-192.5c0-72.7,28.3-141.1,79.8-192.5
			c51.4-51.4,119.8-79.7,192.6-79.7s141.1,28.3,192.6,79.7c51.4,51.4,79.8,119.8,79.8,192.5c0,72.7-28.3,141.1-79.8,192.5
			S775.4,1000.1,702.6,1000.1z M702.6,519.7c-114.8,0-208.3,93.4-208.3,208.2S587.8,936,702.6,936s208.3-93.4,208.3-208.2
			S817.5,519.7,702.6,519.7z"/>
	</g>
</g>
</svg>
