<?xml version="1.0" encoding="utf-8"?>
<!-- Generator: Adobe Illustrator 22.0.0, SVG Export Plug-In . SVG Version: 6.00 Build 0)  -->
<svg version="1.1" id="图层_1" xmlns="http://www.w3.org/2000/svg" xmlns:xlink="http://www.w3.org/1999/xlink" x="0px" y="0px"
	 viewBox="0 0 1000 1000" style="enable-background:new 0 0 1000 1000;" xml:space="preserve">
<style type="text/css">
	.st0{fill:#040000;}
</style>
<g>
	<g>
		<path class="st0" d="M902.3,52.4c-17.7,0-31.5,13.8-31.5,31.5V775c0,89.3-72.7,162-162,162H177.3c-26.9,0-48.7-21.9-48.7-48.7
			V124.9c0-34.2,27.8-62,62-62H659c34.2,0,62,27.8,62,62v456.6c0,59.4-48.3,107.7-107.7,107.7H234.9c-17.7,0-31.5,13.8-31.5,31.5
			s13.8,31.5,31.5,31.5h379.7c94.1,0,170.6-76.6,170.6-170.6V124.9C785.3,56,729.2,0,660.4,0H191.2C122.3,0,66.3,56,66.3,124.9
			v763.4c0,61.6,50.1,111.7,111.7,111.7h531.5c60.3,0,116.8-23.5,159.3-66.2c42.3-42.5,65.4-98.9,65.1-158.8V83.8
			C933.7,66.2,919.9,52.4,902.3,52.4z"/>
		<path class="st0" d="M234.3,810.1c-18.2,0-32.5,14.3-32.5,32.5c0,18.2,14.3,32.5,32.5,32.5H716c17.9,0,32.5-14.6,32.5-32.5
			c0-18.2-14.3-32.5-32.5-32.5H234.3z"/>
	</g>
	<g>
		<path class="st0" d="M542.6,285c24.3,31.6,35.1,75.3,35.7,131.2H342.1c2.4,30.4,10.3,54.1,24.9,70.5
			c14.6,15.8,34.6,24.3,60.1,24.3c22.5,0,40.7-5.5,54.7-15.8c10.9-8.5,20-22.5,28.6-40.7h64.4c-7.3,29.2-21.3,54.1-43.1,73.5
			c-27.3,23.7-62,35.8-103.9,35.8c-46.2,0-83.2-14.6-110-43.1c-29.2-30.4-43.7-71.1-43.7-122.7c0-46.8,13.4-85.7,41.3-117.2
			c26.7-32.2,63.8-48,110-48C476.4,232.8,515.9,249.8,542.6,285z M369.5,306.9c-13.4,14-22.5,31-26.1,57.8h169.5
			c-6.1-54.7-34.6-79-85.7-79C402.9,285.6,384,292.3,369.5,306.9z"/>
	</g>
</g>
</svg>
