<?xml version="1.0" encoding="utf-8"?>
<!-- Generator: Adobe Illustrator 22.0.0, SVG Export Plug-In . SVG Version: 6.00 Build 0)  -->
<svg version="1.1" id="图层_1" xmlns="http://www.w3.org/2000/svg" xmlns:xlink="http://www.w3.org/1999/xlink" x="0px" y="0px"
	 viewBox="0 0 1000 1000" style="enable-background:new 0 0 1000 1000;" xml:space="preserve">
<path d="M890,0H110C70.3,0,38,32.3,38,72v0v224.7V928c0,39.7,32.3,72,72,72h780c39.7,0,72-32.3,72-72V296.7V72v0
	C962,32.3,929.7,0,890,0z M500,599.7c21,0,38,17,38,38s-17,38-38,38s-38-17-38-38S479,599.7,500,599.7z M500,353.7
	c-25.4,0-46-20.6-46-46s20.6-46,46-46s46,20.6,46,46S525.4,353.7,500,353.7z M532,412.9c45.1-13.7,78-55.7,78-105.2
	c0-60.7-49.3-110-110-110s-110,49.3-110,110c0,49.5,32.9,91.5,78,105.2v25.9c-136.9-7.4-265.4-61.9-366-155.7V72c0-4.4,3.6-8,8-8
	h780c4.4,0,8,3.6,8,8v211c-100.6,93.8-229.1,148.4-366,155.7V412.9z M890,936H110c-4.4,0-8-3.6-8-8V367.1
	c45.7,35.6,95.8,64.9,149.6,87.2c69,28.7,141.6,44.9,216.4,48.5v37.9c-40.6,13.5-70,51.8-70,96.9c0,56.2,45.8,102,102,102
	s102-45.8,102-102c0-45.1-29.4-83.4-70-96.9v-37.9c74.7-3.6,147.4-19.9,216.4-48.5c53.8-22.4,103.9-51.6,149.6-87.2V928
	C898,932.4,894.4,936,890,936z"/>
</svg>
