<?xml version="1.0" encoding="utf-8"?>
<!-- Generator: Adobe Illustrator 22.0.0, SVG Export Plug-In . SVG Version: 6.00 Build 0)  -->
<svg version="1.1" id="图层_1" xmlns="http://www.w3.org/2000/svg" xmlns:xlink="http://www.w3.org/1999/xlink" x="0px" y="0px"
	 viewBox="0 0 1000 1000" style="enable-background:new 0 0 1000 1000;" xml:space="preserve">
<g>
	<path d="M500,1000c-123.8,0-240.6-9.2-329-25.8c-45.3-8.5-81.4-18.8-107.5-30.4C21.4,925,0,899.3,0,867.5c0-15,5.2-36.9,30.2-56.7
		c15.2-12,36.4-22.3,64.9-31.4c42.5-13.6,102.3-24.9,172.8-32.6c17.6-1.9,33.4,10.8,35.3,28.3c1.9,17.6-10.8,33.4-28.3,35.3
		c-66.4,7.3-121.8,17.6-160.3,29.9c-46,14.7-50.5,26.9-50.5,27.1c0,1.1,4.4,8.5,25.6,17.9c21.6,9.6,53,18.4,93.3,26
		C267.5,927.2,380.1,936,500,936c120,0,232.6-8.8,317.2-24.7c40.3-7.6,71.7-16.4,93.3-26c0.1-0.1,0.2-0.1,0.4-0.2
		c20.8-9.3,25.2-16.6,25.2-17.6c0-0.2-5-13.2-54.6-28.5c-41.3-12.7-100.2-23.1-170.5-30.2c-17.6-1.8-30.4-17.5-28.6-35
		c1.8-17.6,17.5-30.4,35-28.6c74.4,7.5,137.7,18.8,182.9,32.7c29.9,9.2,52.2,19.6,68.1,31.8c26.2,20,31.7,42.5,31.7,57.9
		c0,31.8-21.4,57.5-63.5,76.3c-0.1,0.1-0.3,0.1-0.4,0.2C910,955.5,874,965.7,829,974.2C740.7,990.8,623.8,1000,500,1000z"/>
</g>
<g>
	<path d="M501.2,892.3c-7.3,0-14.6-2.5-20.5-7.4c-26.3-21.9-94.8-81.4-162.8-161.2c-79-92.7-173.2-232.4-173.2-371.8
		c0-108.2,38.2-199.4,110.5-263.5C319.4,31.4,406,0,499,0c92.8,0,193.1,44.4,261.7,115.7c0,0,0,0,0,0
		c46.1,48.1,99.9,130.6,94.1,250.8c-6.3,132.4-93.9,264.6-166.2,352.3c-66.8,81-137.4,144.4-168.6,167.3
		C514.5,890.3,507.8,892.3,501.2,892.3z M499,64c-77.4,0-148.9,25.7-201.4,72.3c-58.2,51.7-89,126.3-89,215.7
		c0,53,17.1,112.2,50.8,176c26.4,49.9,62.4,101.8,107.1,154.3c51.7,60.6,103.6,108.9,135.2,136.6c29.9-25.3,83.2-74.8,137.5-140.7
		C759.1,532.8,787.9,426.8,791,363.4c4.7-97.4-39-164.4-76.4-203.4l0,0C657.6,100.8,575.1,64,499,64z"/>
</g>
<g>
	<path d="M500,516.7c-88.2,0-160-71.8-160-160s71.8-160,160-160c88.2,0,160,71.8,160,160S588.2,516.7,500,516.7z M500,260.7
		c-52.9,0-96,43.1-96,96s43.1,96,96,96s96-43.1,96-96S552.9,260.7,500,260.7z"/>
</g>
</svg>
