<?xml version="1.0" encoding="utf-8"?>
<!-- Generator: Adobe Illustrator 22.0.0, SVG Export Plug-In . SVG Version: 6.00 Build 0)  -->
<svg version="1.1" id="图层_1" xmlns="http://www.w3.org/2000/svg" xmlns:xlink="http://www.w3.org/1999/xlink" x="0px" y="0px"
	 viewBox="0 0 1000 1000" style="enable-background:new 0 0 1000 1000;" xml:space="preserve">
<g>
	<path d="M953.6,711.5c-0.1-0.5-0.4-0.9-0.5-1.3c-0.1-0.7-0.4-1.4-0.8-2.2c-22.9-52.3-59.5-95.8-105.9-125.8
		c-45.2-29.3-97.9-44.8-152.1-44.8c-54.4,0-107.4,15.4-153,44.6c-47.2,30.2-84.3,73.8-107.1,126c-0.3,0.7-0.5,1.4-0.7,2
		c-0.1,0.3-0.3,0.7-0.4,1l-0.1,0.3c-0.5,1.7-0.7,3.1-0.7,3.9c-0.4,1.8-0.7,3.6-0.7,5.9c0,2.3,0.4,4.3,0.7,5.9c0,0.8,0.1,2.2,0.7,3.8
		c0.1,0.5,0.4,0.9,0.5,1.3c0.1,0.7,0.3,1.3,0.7,2.1c22.8,52.2,59.6,95.5,106.6,125.4c45.4,28.9,98.1,44.2,152.6,44.2
		c54.4,0,107.2-15.2,152.6-44.2c46.8-29.9,83.7-73.3,106.4-125.3c0.4-0.9,0.7-1.6,0.8-2.2l0.4-1.2c0.5-1.6,0.7-2.9,0.7-3.6
		c0.3-1.6,0.7-3.6,0.7-6.1c0-2.3-0.4-4.3-0.7-6C954.2,714.3,954.2,713,953.6,711.5z M694.3,589.5c89.3,0,168,50.4,206.8,131.6
		c-38.5,80.5-117.6,130.4-207.7,130.4c-91.2,0-168.5-48.7-207.7-130.5C524.4,639.8,604,589.5,694.3,589.5z"/>
	<path d="M890,0H110C70.3,0,38,32.3,38,72v856c0,39.7,32.3,72,72,72h427.9c17.7,0,32-14.3,32-32s-14.3-32-32-32H110
		c-4.4,0-8-3.6-8-8V72c0-4.4,3.6-8,8-8h780c4.4,0,8,3.6,8,8v383c0,17.7,14.3,32,32,32s32-14.3,32-32V72C962,32.3,929.7,0,890,0z"/>
	<path d="M254.1,379.7h491.7c16.7,0,30.3-13.6,30.3-30.3c0-16.7-13.6-30.3-30.3-30.3H254.1c-16.7,0-30.3,13.6-30.3,30.3
		C223.8,366.2,237.4,379.7,254.1,379.7z"/>
	<path d="M254.1,258.6h491.7c16.7,0,30.3-13.6,30.3-30.3S762.6,198,745.9,198H254.1c-16.7,0-30.3,13.6-30.3,30.3
		S237.4,258.6,254.1,258.6z"/>
	<path d="M254.1,500.9h181.7c16.7,0,30.3-13.6,30.3-30.3c0-16.7-13.6-30.3-30.3-30.3H254.1c-16.7,0-30.3,13.5-30.3,30.3
		S237.4,500.9,254.1,500.9z"/>
	<path d="M693.3,814.5c51.8,0,94-42.2,94-94c0-51.8-42.2-94-94-94c-51.8,0-94,42.2-94,94C599.3,772.3,641.5,814.5,693.3,814.5z
		 M693.3,690.5c16.5,0,30,13.5,30,30c0,16.5-13.5,30-30,30c-16.5,0-30-13.5-30-30C663.3,704,676.8,690.5,693.3,690.5z"/>
</g>
</svg>
