<?xml version="1.0" encoding="utf-8"?>
<!-- Generator: Adobe Illustrator 22.0.0, SVG Export Plug-In . SVG Version: 6.00 Build 0)  -->
<svg version="1.1" id="图层_1" xmlns="http://www.w3.org/2000/svg" xmlns:xlink="http://www.w3.org/1999/xlink" x="0px" y="0px"
	 viewBox="0 0 1000 1000" style="enable-background:new 0 0 1000 1000;" xml:space="preserve">
<g>
	<g>
		<path d="M922,998H78c-39.7,0-72-32.3-72-72V138c0-1.1,0.1-2.2,0.2-3.3C6.1,132.5,6,130.2,6,128C6,56.3,64.3-2,136-2h826
			c17.7,0,32,14.3,32,32s-14.3,32-32,32H136c-36.4,0-66,29.6-66,66s29.6,66,66,66h786c39.7,0,72,32.3,72,72v660
			C994,965.7,961.7,998,922,998z M70,240v686c0,4.4,3.6,8,8,8h844c4.4,0,8-3.6,8-8V266c0-4.4-3.6-8-8-8H136
			C111.9,258,89.4,251.4,70,240z"/>
	</g>
</g>
<path d="M628,625.2h-96v-49.5h96c17.7,0,32-14.3,32-32s-14.3-32-32-32h-60.7l70.8-70.8c12.5-12.5,12.5-32.8,0-45.3
	c-12.5-12.5-32.8-12.5-45.3,0L500,488.4l-92.8-92.8c-12.5-12.5-32.8-12.5-45.3,0c-12.5,12.5-12.5,32.8,0,45.3l70.8,70.8H372
	c-17.7,0-32,14.3-32,32s14.3,32,32,32h96v49.5h-96c-17.7,0-32,14.3-32,32s14.3,32,32,32h96v109.5c0,17.7,14.3,32,32,32
	c17.7,0,32-14.3,32-32V689.2h96c17.7,0,32-14.3,32-32S645.6,625.2,628,625.2z"/>
</svg>
