<?xml version="1.0" encoding="utf-8"?>
<!-- Generator: Adobe Illustrator 22.0.0, SVG Export Plug-In . SVG Version: 6.00 Build 0)  -->
<svg version="1.1" id="图层_1" xmlns="http://www.w3.org/2000/svg" xmlns:xlink="http://www.w3.org/1999/xlink" x="0px" y="0px"
	 viewBox="0 0 1000 1000" style="enable-background:new 0 0 1000 1000;" xml:space="preserve">
<g>
	<g>
		<path d="M648,1000H73c-39.7,0-72-32.3-72-72V72C1,32.3,33.3,0,73,0h853c39.7,0,72,32.3,72,72v484c0,17.7-14.3,32-32,32
			s-32-14.3-32-32V72c0-4.4-3.6-8-8-8H73c-4.4,0-8,3.6-8,8v856c0,4.4,3.6,8,8,8h575c17.7,0,32,14.3,32,32S665.7,1000,648,1000z"/>
	</g>
	<path d="M989.6,944.7L845.8,800.9c25.1-34.3,39.9-76.6,39.9-122.4c0-114.6-92.9-207.6-207.6-207.6c-114.6,0-207.6,92.9-207.6,207.6
		s92.9,207.6,207.6,207.6c45.8,0,88.1-14.8,122.4-39.9L944.3,990c6.2,6.2,14.4,9.4,22.6,9.4c8.2,0,16.4-3.1,22.6-9.4
		C1002.1,977.5,1002.1,957.2,989.6,944.7z M678.2,822.1c-38.4,0-74.4-14.9-101.5-42.1c-27.1-27.1-42.1-63.2-42.1-101.5
		c0-38.4,14.9-74.4,42.1-101.5c27.1-27.1,63.2-42.1,101.5-42.1s74.4,14.9,101.5,42.1c27.1,27.1,42.1,63.2,42.1,101.5
		c0,38.4-14.9,74.4-42.1,101.5C752.6,807.2,716.5,822.1,678.2,822.1z"/>
	<g>
		<path d="M188,240h629c17.7,0,32,14.3,32,32v0c0,17.7-14.3,32-32,32H188c-17.7,0-32-14.3-32-32v0C156,254.3,170.4,240,188,240z"/>
	</g>
	<g>
		<path d="M188,475.5h224c17.7,0,32,14.3,32,32v0c0,17.7-14.3,32-32,32H188c-17.7,0-32-14.3-32-32v0
			C156,489.8,170.4,475.5,188,475.5z"/>
	</g>
	<g>
		<path d="M188,711h167c17.7,0,32,14.3,32,32v0c0,17.7-14.3,32-32,32H188c-17.7,0-32-14.3-32-32v0C156,725.3,170.4,711,188,711z"/>
	</g>
</g>
</svg>
