<?xml version="1.0" encoding="utf-8"?>
<!-- Generator: Adobe Illustrator 22.0.0, SVG Export Plug-In . SVG Version: 6.00 Build 0)  -->
<svg version="1.1" id="图层_1" xmlns="http://www.w3.org/2000/svg" xmlns:xlink="http://www.w3.org/1999/xlink" x="0px" y="0px"
	 viewBox="0 0 1000 1000" style="enable-background:new 0 0 1000 1000;" xml:space="preserve">
<style type="text/css">
	.st0{fill:#040000;}
</style>
<g>
	<path class="st0" d="M795.2,272L795.2,272c0-17.7-14.3-32-32-32h-556c-17.7,0-32,14.3-32,32v0c0,17.7,14.3,32,32,32h556
		C780.9,304,795.2,289.7,795.2,272z"/>
	<path class="st0" d="M207.2,475.5c-17.7,0-32,14.3-32,32v0c0,17.7,14.3,32,32,32h136.9c17.7,0,32-14.3,32-32v0
		c0-17.7-14.3-32-32-32H207.2z"/>
	<path class="st0" d="M429.2,936H95.2c-4.4,0-8-3.6-8-8V72c0-4.4,3.6-8,8-8h780c4.4,0,8,3.6,8,8v309c0,17.7,14.3,32,32,32
		s32-14.3,32-32V72c0-39.7-32.3-72-72-72h-780c-39.7,0-72,32.3-72,72v856c0,39.7,32.3,72,72,72h333.9c17.7,0,32-14.3,32-32
		S446.8,936,429.2,936z"/>
	<path class="st0" d="M905.1,535.3c-51.4-51.4-119.7-79.7-192.3-79.7s-141,28.3-192.3,79.7c-51.4,51.4-79.7,119.7-79.7,192.3
		c0,72.7,28.3,141,79.7,192.3s119.7,79.7,192.3,79.7s141-28.3,192.3-79.7s79.7-119.7,79.7-192.3C984.8,655,956.5,586.7,905.1,535.3z
		 M712.8,935.7c-114.7,0-208-93.3-208-208s93.3-208,208-208s208,93.3,208,208S827.5,935.7,712.8,935.7z"/>
	<path class="st0" d="M815.3,625.2L815.3,625.2c-12.5-12.5-32.8-12.5-45.3,0l-57.3,57.3l-57.3-57.3c-12.5-12.5-32.8-12.5-45.3,0l0,0
		c-12.5,12.5-12.5,32.8,0,45.3l57.3,57.3l-57.3,57.3c-12.5,12.5-12.5,32.8,0,45.3l0,0c12.5,12.5,32.8,12.5,45.3,0l57.3-57.3
		l57.3,57.3c12.5,12.5,32.8,12.5,45.3,0l0,0c12.5-12.5,12.5-32.8,0-45.3L758,727.7l57.3-57.3C827.8,657.9,827.8,637.7,815.3,625.2z"
		/>
</g>
</svg>
