<?xml version="1.0" encoding="utf-8"?>
<!-- Generator: Adobe Illustrator 22.0.0, SVG Export Plug-In . SVG Version: 6.00 Build 0)  -->
<svg version="1.1" id="图层_1" xmlns="http://www.w3.org/2000/svg" xmlns:xlink="http://www.w3.org/1999/xlink" x="0px" y="0px"
	 viewBox="0 0 1000 1000" style="enable-background:new 0 0 1000 1000;" xml:space="preserve">
<style type="text/css">
	.st0{fill:#040000;}
</style>
<g>
	<path class="st0" d="M794.2,271.7L794.2,271.7c0-17.7-14.3-32-32-32h-556c-17.7,0-32,14.3-32,32v0c0,17.7,14.3,32,32,32h556
		C779.9,303.7,794.2,289.3,794.2,271.7z"/>
	<path class="st0" d="M206.2,475.2c-17.7,0-32,14.3-32,32v0c0,17.7,14.3,32,32,32h136.9c17.7,0,32-14.3,32-32v0
		c0-17.7-14.3-32-32-32H206.2z"/>
	<path class="st0" d="M428.2,935.7H94.2c-4.4,0-8-3.6-8-8v-856c0-4.4,3.6-8,8-8h780c4.4,0,8,3.6,8,8v309c0,17.7,14.3,32,32,32
		s32-14.3,32-32v-309c0-39.7-32.3-72-72-72h-780c-39.7,0-72,32.3-72,72v856c0,39.7,32.3,72,72,72h333.9c17.7,0,32-14.3,32-32
		S445.8,935.7,428.2,935.7z"/>
	<path class="st0" d="M904.1,536c-51.4-51.4-119.7-79.7-192.3-79.7s-141,28.3-192.3,79.7c-51.4,51.4-79.7,119.7-79.7,192.3
		c0,72.7,28.3,141,79.7,192.3s119.7,79.7,192.3,79.7s141-28.3,192.3-79.7s79.7-119.7,79.7-192.3C983.8,655.7,955.5,587.4,904.1,536z
		 M711.8,936.3c-114.7,0-208-93.3-208-208s93.3-208,208-208s208,93.3,208,208S826.5,936.3,711.8,936.3z"/>
	<path class="st0" d="M852.8,631.9L852.8,631.9c-12.5-12.5-32.8-12.5-45.3,0L675.3,764.1L618,706.9c-12.5-12.5-32.8-12.5-45.3,0h0
		c-12.5,12.5-12.5,32.8,0,45.3l65.9,65.9l18.7,18.7c9.7,9.7,25.6,10.1,35.5,0.4c0.1-0.1,0.1-0.1,0.2-0.2l27.5-27.5l132.3-132.3
		C865.3,664.6,865.3,644.4,852.8,631.9z"/>
</g>
</svg>
