<?xml version="1.0" encoding="utf-8"?>
<!-- Generator: Adobe Illustrator 22.0.0, SVG Export Plug-In . SVG Version: 6.00 Build 0)  -->
<svg version="1.1" id="图层_1" xmlns="http://www.w3.org/2000/svg" xmlns:xlink="http://www.w3.org/1999/xlink" x="0px" y="0px"
	 viewBox="0 0 1000 1000" style="enable-background:new 0 0 1000 1000;" xml:space="preserve">
<style type="text/css">
	.st0{fill:#040000;}
</style>
<g>
	<path class="st0" d="M900,0H100C60.3,0,28,32.3,28,72v856c0,39.7,32.3,72,72,72h800c39.7,0,72-32.3,72-72V72
		C972,32.3,939.7,0,900,0z M908,928c0,4.4-3.6,8-8,8H100c-4.4,0-8-3.6-8-8V72c0-4.4,3.6-8,8-8h800c4.4,0,8,3.6,8,8V928z"/>
	<path class="st0" d="M328.7,431c8.2,0,16.4-3.1,22.6-9.4l116.5-116.5v336.4c0,17.7,14.3,32,32,32c17.7,0,32-14.3,32-32V305.2
		l116.5,116.5c12.5,12.5,32.8,12.5,45.3,0c12.5-12.5,12.5-32.8,0-45.3L538.7,221.5c-10.4-10.4-24.2-16.1-38.9-16.1
		c-14.7,0-28.5,5.7-38.9,16.1L306.1,376.4c-12.5,12.5-12.5,32.8,0,45.3C312.3,427.9,320.5,431,328.7,431z"/>
	<path class="st0" d="M750,730.6H250c-17.7,0-32,14.3-32,32s14.3,32,32,32h500c17.7,0,32-14.3,32-32S767.7,730.6,750,730.6z"/>
</g>
</svg>
