<?xml version="1.0" encoding="utf-8"?>
<!-- Generator: Adobe Illustrator 22.0.0, SVG Export Plug-In . SVG Version: 6.00 Build 0)  -->
<svg version="1.1" id="图层_1" xmlns="http://www.w3.org/2000/svg" xmlns:xlink="http://www.w3.org/1999/xlink" x="0px" y="0px"
	 viewBox="0 0 1000 1000" style="enable-background:new 0 0 1000 1000;" xml:space="preserve">
<path d="M359.1,64c14.1,0,33.8,4.7,52.7,12.5c19,7.9,36.4,18.7,46.6,28.8l471.3,470.6c3.9,4.3,6.3,10.1,6.3,15.5
	c0,5.1-2.3,10.7-5.6,14.1l0,0l0,0L606.8,929.7c-4.2,3.9-10.1,6.3-15.4,6.3c-5.1,0-10.7-2.2-14.1-5.7l-472-472.6l-0.2-0.2l-0.2-0.2
	c-9.9-9.7-20.5-26.8-28.4-45.6C68.7,392.8,64,373.2,64,359.1V84.5C64,73.6,73.6,64,84.5,64H359.1 M359.1,0H84.5
	C38.3,0,0,38.3,0,84.5v274.6C0,405.9,26.4,470,60.1,503l472,472.6c15.2,15.2,37,24.4,59.4,24.4s44.2-9.3,60.1-24.4l324.1-324.8l0,0
	c15.2-15.1,24.4-37,24.4-59.4s-9.3-44.2-24.4-60.1L503.6,60.1C470,26.4,405.9,0,359.1,0L359.1,0z"/>
<path d="M211.2,141.2c-38.9,0-70,31.1-70,70s31.1,70,70,70s70-31.1,70-70C281.2,172.4,250.1,141.2,211.2,141.2z"/>
</svg>
