<?xml version="1.0" encoding="utf-8"?>
<!-- Generator: Adobe Illustrator 22.0.0, SVG Export Plug-In . SVG Version: 6.00 Build 0)  -->
<svg version="1.1" id="图层_1" xmlns="http://www.w3.org/2000/svg" xmlns:xlink="http://www.w3.org/1999/xlink" x="0px" y="0px"
	 viewBox="0 0 1000 1000" style="enable-background:new 0 0 1000 1000;" xml:space="preserve">
<g>
	<path d="M500,144c48.1,0,94.7,9.4,138.5,27.9c42.4,17.9,80.5,43.6,113.2,76.4c32.7,32.7,58.4,70.8,76.4,113.2
		C846.6,405.3,856,451.9,856,500s-9.4,94.7-27.9,138.5c-17.9,42.4-43.6,80.5-76.4,113.2c-32.7,32.7-70.8,58.4-113.2,76.4
		C594.7,846.6,548.1,856,500,856s-94.7-9.4-138.5-27.9c-42.4-17.9-80.5-43.6-113.2-76.4c-32.7-32.7-58.4-70.8-76.4-113.2
		C153.4,594.7,144,548.1,144,500s9.4-94.7,27.9-138.5c17.9-42.4,43.6-80.5,76.4-113.2c32.7-32.7,70.8-58.4,113.2-76.4
		C405.3,153.4,451.9,144,500,144 M500,0C223.9,0,0,223.9,0,500s223.9,500,500,500s500-223.9,500-500S776.1,0,500,0L500,0z"/>
</g>
<path d="M625.8,523.5L471.9,657.3c-20.2,17.6-51.7,3.2-51.7-23.5V366.3c0-26.8,31.5-41.1,51.7-23.5l153.8,133.7
	C640.1,488.9,640.1,511.1,625.8,523.5z"/>
</svg>
