<?xml version="1.0" encoding="utf-8"?>
<!-- Generator: Adobe Illustrator 22.0.0, SVG Export Plug-In . SVG Version: 6.00 Build 0)  -->
<svg version="1.1" id="图层_1" xmlns="http://www.w3.org/2000/svg" xmlns:xlink="http://www.w3.org/1999/xlink" x="0px" y="0px"
	 viewBox="0 0 1000 1000" style="enable-background:new 0 0 1000 1000;" xml:space="preserve">
<path d="M195.4,0h609.1C912.2,0,1000,87.9,1000,195.6v487.7c-72.1-25.1-227.7-78.6-336.4-114.5c60.8-105.4,86.7-204,86.7-204H557.4
	v-69.6h236.4v-31.4H557.4v-115H450.5v115H214.3v31.4h236.2v69.6H245V402h383.3c-7.3,63.2-28,99.4-56.3,141
	c-193.7-52.6-342.9-85-440.8-5c-99.9,81.2-46.6,335.5,234.6,278.7C470,795.4,549.8,727.8,609,651l390.6,168.4
	c-7.7,100.7-92.4,180.6-195,180.6H195.4C88,1000,0,912,0,804.6v-609C0,87.9,88,0,195.4,0 M523.2,612
	c-183.1-99.6-288.1-89.9-343.3-57.6c-60.3,35.4-87.4,118.3-23.2,172.3c15.1,12.4,37.1,21.7,66.2,28.1
	C399.2,794.2,523.2,612,523.2,612"/>
</svg>
