<?xml version="1.0" encoding="utf-8"?>
<!-- Generator: Adobe Illustrator 22.0.0, SVG Export Plug-In . SVG Version: 6.00 Build 0)  -->
<svg version="1.1" id="图层_1" xmlns="http://www.w3.org/2000/svg" xmlns:xlink="http://www.w3.org/1999/xlink" x="0px" y="0px"
	 viewBox="0 0 1000 1000" style="enable-background:new 0 0 1000 1000;" xml:space="preserve">
<path d="M381.2,629.7c-59.9,36.2-68.8-20.3-68.8-20.3l-75-189.6c-28.9-90.1,25-40.7,25-40.7s46.2,37.9,81.2,60.9
	c35,23.1,75,6.8,75,6.8l490.4-245.2C818.6,79.8,669.2,0,500,0C223.8,0,0,212.2,0,474c0,150.6,74.1,284.6,189.6,371.5l-20.8,129.7
	c0,0-10.2,37.8,25,20.3c24-11.9,85.1-54.8,121.5-80.9C374.3,936.7,436.9,948,500,948c276.1,0,500-212.2,500-474
	c0-75.8-18.9-147.5-52.3-211C791.5,364.8,428,601.5,381.2,629.7L381.2,629.7z"/>
</svg>
