<?xml version="1.0" encoding="utf-8"?>
<!-- Generator: Adobe Illustrator 22.0.0, SVG Export Plug-In . SVG Version: 6.00 Build 0)  -->
<svg version="1.1" id="图层_1" xmlns="http://www.w3.org/2000/svg" xmlns:xlink="http://www.w3.org/1999/xlink" x="0px" y="0px"
	 viewBox="0 0 1000 1000" style="enable-background:new 0 0 1000 1000;" xml:space="preserve">
<path d="M150.9,988.7C146.3,980,31,842.2,31,703.6c0-95.9,12-235.8,112.6-339.1c83.9-85.9,215.2-134.5,399.1-147.2V42.7
	c0-17.3,10.7-32.6,26-39.3c16-6.7,34.6-3.3,46.6,9.3l341.2,341.1c16.7,16.7,16.7,43.3,0,60l-341.1,341c-8,8.7-18.7,12.7-30,12.7
	c-5.4,0-11.4-1.3-16.7-3.3c-15.3-6.6-26-22-26-39.3V557.7C399.5,569,307.5,603,250.8,666.2c-67.3,74.7-79.3,128.5-60,310.4
	c0.7,10-5.3,19.3-15.3,22.7c-2,0.7-4,0.7-6,0.7C161.6,1000,154.2,996,150.9,988.7L150.9,988.7z"/>
</svg>
