<?xml version="1.0" encoding="utf-8"?>
<!-- Generator: Adobe Illustrator 22.0.0, SVG Export Plug-In . SVG Version: 6.00 Build 0)  -->
<svg version="1.1" id="图层_1" xmlns="http://www.w3.org/2000/svg" xmlns:xlink="http://www.w3.org/1999/xlink" x="0px" y="0px"
	 viewBox="0 0 1000 1000" style="enable-background:new 0 0 1000 1000;" xml:space="preserve">
<style type="text/css">
	.st0{fill:#040000;}
</style>
<path class="st0" d="M879.7,662.6L519.5,65.5c-14.8-25.7-27-28.9-52.7-14.1c-25.7,14.8-29,26.9-14.1,52.7l333.5,612.5
	c14.8,25.7,32.6,7.9,58.3-7C870.2,694.8,894.5,688.3,879.7,662.6z M974.9,773.7c-23.1-38.3-72.8-50.6-111.1-27.6
	c-37.3,22.5-50.1,70.4-29.1,108.5c36,62.3,89.1,36.1,127.6,102.8C1021.8,893.5,998.7,814.9,974.9,773.7z M445.6,269.2
	c4.5,2.6,10.3,1.1,12.9-3.4c0,0,0,0,0,0c8.3-13.9,10.6-30.5,6.6-46.1c-4.3-15.6-14.7-28.9-28.8-36.9c-14-8.3-30.7-10.6-46.3-6.5
	c-15.6,4.3-28.8,14.6-36.7,28.7c-2.6,4.5-1.1,10.2,3.4,12.8C356.7,217.8,445.6,269.2,445.6,269.2z M425.7,296.2L338.9,246
	c-4.5-2.6-10.2-1.1-12.9,3.4c0,0,0,0,0,0L56.7,715.9l103.1,59.6L429.1,309C431.7,304.5,430.2,298.8,425.7,296.2
	C425.7,296.2,425.7,296.2,425.7,296.2z M6.1,803.5c-1,1.9-1.4,4-1,6.1L0,916.8c-0.2,5.2,3.8,9.6,9,9.8c2,0.1,3.9-0.4,5.5-1.5
	l91.7-58.9c1.5-1,2.7-2.4,3.5-4.1l24.1-41.7L30.7,760.9C30.7,760.9,6.1,803.5,6.1,803.5z M46,639.2h13.1l86.7-150.3H46
	c-10.4,0-18.9,8.4-18.9,18.9v0v112.5C27.1,630.7,35.5,639.1,46,639.2C46,639.2,46,639.2,46,639.2z M922.7,639.2
	c10.4,0,18.9-8.5,18.9-18.9V507.8c0-10.4-8.5-18.9-18.9-18.9c0,0,0,0,0,0H819.8l92.5,150.3C912.3,639.2,922.7,639.2,922.7,639.2z
	 M366.8,488.9l-86.7,150.3h423.5l-81.8-150.3H366.8z"/>
</svg>
