<?xml version="1.0" encoding="utf-8"?>
<!-- Generator: Adobe Illustrator 22.0.0, SVG Export Plug-In . SVG Version: 6.00 Build 0)  -->
<svg version="1.1" id="图层_1" xmlns="http://www.w3.org/2000/svg" xmlns:xlink="http://www.w3.org/1999/xlink" x="0px" y="0px"
	 viewBox="0 0 1000 1000" style="enable-background:new 0 0 1000 1000;" xml:space="preserve">
<style type="text/css">
	.st0{fill:#040000;}
</style>
<g>
	<path class="st0" d="M107.2,384.8c0-63.2,50.6-114.4,113.1-114.4s113.1,51.2,113.1,114.4s-50.6,114.4-113.1,114.4
		C157.9,499.1,107.2,447.9,107.2,384.8L107.2,384.8z M396.3,664.3c0-70.2-56.2-127.1-125.7-127.1H170.1
		c-69.4,0-125.7,56.9-125.7,127.1v50.8h351.9L396.3,664.3L396.3,664.3z M666.5,384.8c0,63.2,50.6,114.4,113.1,114.4
		s113.1-51.2,113.1-114.4s-50.6-114.4-113.1-114.4C717.2,270.4,666.5,321.6,666.5,384.8z M829.9,537.2H729.3
		c-69.4,0-125.7,56.9-125.7,127.1v50.8h351.9v-50.8C955.6,594.1,899.3,537.2,829.9,537.2z M633.3,889.5
		c-33.8,8.6-71.1,12.9-111.5,12.9c-178.8,0-239.3-83.6-242.2-87.8c-9.6-14.3-28.9-18.2-43.3-8.6c0,0-0.1,0.1-0.1,0.1
		c-14.4,9.7-18.3,29.4-8.7,44.1c3.1,4.7,78.8,115.8,294.3,115.8c53.2,0,102.2-6.8,146-20.2L701,1000l88.9-167.5L602,838.4
		C602,838.4,633.3,889.5,633.3,889.5z M364.4,110.5c33.8-8.6,71.2-12.9,111.5-12.9c178.8,0,239.3,83.6,242.2,87.7
		c9.6,14.3,29,18.2,43.4,8.6c14.4-9.7,18.3-29.4,8.7-44.1c-3.1-4.7-78.8-115.8-294.3-115.8c-53.2,0-102.1,6.8-146,20.2L296.6,0
		l-88.8,167.5l187.9-5.9C395.6,161.6,364.4,110.5,364.4,110.5z"/>
</g>
</svg>
