<?xml version="1.0" encoding="utf-8"?>
<!-- Generator: Adobe Illustrator 22.0.0, SVG Export Plug-In . SVG Version: 6.00 Build 0)  -->
<svg version="1.1" id="图层_1" xmlns="http://www.w3.org/2000/svg" xmlns:xlink="http://www.w3.org/1999/xlink" x="0px" y="0px"
	 viewBox="0 0 1000 1000" style="enable-background:new 0 0 1000 1000;" xml:space="preserve">
<g>
	<g>
		<path d="M898.5,962.5H101.3c-54.1,0-101.4-47.3-101.4-101.3V226.7c0-60.7,40.5-101.3,101.4-101.3h797.3
			c60.8,0,101.4,40.5,101.4,101.3v634.5C999.9,915.2,952.7,962.5,898.5,962.5L898.5,962.5z M101.3,193c-20.3,0-33.8,13.5-33.8,33.8
			v634.5c0,13.5,20.3,33.8,33.8,33.8h797.3c20.3,0,33.8-20.3,33.8-33.8V226.7c0-20.3-13.5-33.8-33.8-33.8H101.3V193z"/>
		<path d="M263.4,37.5L263.4,37.5c19.3,0,35,15.7,35,35v173.1c0,19.3-15.7,35-35,35l0,0c-19.3,0-35-15.7-35-35V72.5
			C228.4,53.2,244.1,37.5,263.4,37.5z"/>
		<path d="M729.7,37.5L729.7,37.5c19.3,0,35,15.7,35,35v173.1c0,19.3-15.7,35-35,35l0,0c-19.3,0-35-15.7-35-35V72.5
			C694.7,53.2,710.3,37.5,729.7,37.5z"/>
	</g>
	<g>
		<path d="M372.3,761.1l-36-32.8c27.9-39.1,41.8-89.5,42.7-150.7V356.5h272.7v352.8c0,29.7-15.3,44.5-45.9,44.5h-57.6L535.6,708
			c19.8,1.4,38.2,2.2,54.9,2.2c9,0,13.5-6.3,13.5-18v-73.8H423.6C417.3,675.1,400.2,722.8,372.3,761.1z M604,401.5H426.3v63H604
			V401.5z M426.3,574.8H604v-66.6H426.3V574.8z"/>
	</g>
</g>
</svg>
