<?xml version="1.0" encoding="utf-8"?>
<!-- Generator: Adobe Illustrator 22.0.0, SVG Export Plug-In . SVG Version: 6.00 Build 0)  -->
<svg version="1.1" id="图层_1" xmlns="http://www.w3.org/2000/svg" xmlns:xlink="http://www.w3.org/1999/xlink" x="0px" y="0px"
	 viewBox="0 0 1000 1000" style="enable-background:new 0 0 1000 1000;" xml:space="preserve">
<style type="text/css">
	.st0{fill:#040000;}
</style>
<g>
	<path class="st0" d="M628,414.4h-96v-49.5h96c17.7,0,32-14.3,32-32s-14.3-32-32-32h-60.7l70.8-70.8c12.5-12.5,12.5-32.8,0-45.3
		s-32.8-12.5-45.3,0L500,277.6l-92.8-92.8c-12.5-12.5-32.8-12.5-45.3,0s-12.5,32.8,0,45.3l70.8,70.8H372c-17.7,0-32,14.3-32,32
		s14.3,32,32,32h96v49.5h-96c-17.7,0-32,14.3-32,32s14.3,32,32,32h96v109.5c0,17.7,14.3,32,32,32s32-14.3,32-32V478.4h96
		c17.7,0,32-14.3,32-32S645.6,414.4,628,414.4z"/>
	<path class="st0" d="M879.9,64c9,0,14.9,3.1,17.7,5c3.1,2.1,4.3,4.1,4.5,4.7l-1.3,777.6l-72.5,63l-65.2-58.4
		c-12.1-10.9-27.4-16.3-42.7-16.3c-15.2,0-30.3,5.4-42.4,16.1l-66.4,58.8L543,854.7c-12.1-10.5-27-15.7-42-15.7
		c-15.4,0-30.7,5.5-42.9,16.5l-64.6,58.3l-64.3-58.2c-12.2-11-27.6-16.5-42.9-16.5c-14.9,0-29.9,5.2-41.9,15.6L174.7,915l-76.8-64.1
		V75.3c0.2-0.6,1.4-2.5,4.5-4.7c2.7-1.8,8.5-4.9,17.5-4.9c0,0,0.1,0,0.1,0L879.9,64 M879.9,0l-760,1.7c-47.3,0-86,33-86,73.5v805.6
		L175.5,999l110.8-96l107.2,97L501,903l111,96.5l108.4-96l107.3,96.1l137.1-119.1l1.3-807C966.1,33,927.4,0,879.9,0L879.9,0z"/>
	<path class="st0" d="M714.8,742H285.2c-17.7,0-32-14.3-32-32v0c0-17.7,14.3-32,32-32h429.6c17.7,0,32,14.3,32,32v0
		C746.8,727.7,732.5,742,714.8,742z"/>
</g>
</svg>
