<?xml version="1.0" encoding="utf-8"?>
<!-- Generator: Adobe Illustrator 22.0.0, SVG Export Plug-In . SVG Version: 6.00 Build 0)  -->
<svg version="1.1" id="图层_1" xmlns="http://www.w3.org/2000/svg" xmlns:xlink="http://www.w3.org/1999/xlink" x="0px" y="0px"
	 viewBox="0 0 1000 1000" style="enable-background:new 0 0 1000 1000;" xml:space="preserve">
<style type="text/css">
	.st0{fill:#040000;}
</style>
<g>
	<path class="st0" d="M628,409.4h-96v-49.5h96c17.7,0,32-14.3,32-32s-14.3-32-32-32h-60.7l70.8-70.8c12.5-12.5,12.5-32.8,0-45.3
		s-32.8-12.5-45.3,0L500,272.6l-92.8-92.8c-12.5-12.5-32.8-12.5-45.3,0s-12.5,32.8,0,45.3l70.8,70.8H372c-17.7,0-32,14.3-32,32
		s14.3,32,32,32h96v49.5h-96c-17.7,0-32,14.3-32,32s14.3,32,32,32h96v109.5c0,17.7,14.3,32,32,32s32-14.3,32-32V473.4h96
		c17.7,0,32-14.3,32-32S645.6,409.4,628,409.4z"/>
	<path class="st0" d="M936,624v312H64V624h98.2c6.3,13.3,14.3,26.2,24,38.4c20.5,25.7,48,48.3,81.8,67
		c63.6,35.3,146,54.7,232.1,54.7s168.4-19.4,232.1-54.7c33.8-18.7,61.3-41.3,81.8-67c9.7-12.2,17.8-25.1,24-38.4H936 M939,560H789.7
		c-6.3,89-133.6,160.1-289.7,160.1S216.6,649,210.3,560H61c-33.7,0-61,27.3-61,61v318c0,33.7,27.3,61,61,61h878
		c33.7,0,61-27.3,61-61V621C1000,587.3,972.7,560,939,560L939,560z"/>
	<path class="st0" d="M906.5,580.8v-482c0-54.5-44.3-98.8-98.8-98.8H192.3c-54.5,0-98.8,44.3-98.8,98.8v482h66v-482
		c0-18.1,14.7-32.8,32.8-32.8h615.4c18.1,0,32.8,14.7,32.8,32.8v482H906.5z"/>
</g>
</svg>
