<?xml version="1.0" encoding="utf-8"?>
<!-- Generator: Adobe Illustrator 22.0.0, SVG Export Plug-In . SVG Version: 6.00 Build 0)  -->
<svg version="1.1" id="图层_1" xmlns="http://www.w3.org/2000/svg" xmlns:xlink="http://www.w3.org/1999/xlink" x="0px" y="0px"
	 viewBox="0 0 1000 1000" style="enable-background:new 0 0 1000 1000;" xml:space="preserve">
<path d="M537,28.8l447.3,447.4c9.9,9.9,15.7,23,15.7,37c0,28.8-23.9,52.6-52.7,52.6H710.5v368.4c0,28.8-23.9,52.6-52.7,52.6H342.1
	c-28.8,0-52.6-23.9-52.6-52.6V565.8H52.6C23.8,565.8,0,541.9,0,513.2c0-14,5.7-27.1,15.6-37L463,28.8c9.9-9.9,23-15.6,37-15.6
	C514,13.2,527.1,18.9,537,28.8L537,28.8z"/>
</svg>
