<?xml version="1.0" encoding="utf-8"?>
<!-- Generator: Adobe Illustrator 22.0.0, SVG Export Plug-In . SVG Version: 6.00 Build 0)  -->
<svg version="1.1" id="图层_1" xmlns="http://www.w3.org/2000/svg" xmlns:xlink="http://www.w3.org/1999/xlink" x="0px" y="0px"
	 viewBox="0 0 1000 1000" style="enable-background:new 0 0 1000 1000;" xml:space="preserve">
<style type="text/css">
	.st0{fill:#040000;}
</style>
<path class="st0" d="M537,971.2c-9.9,9.9-23,15.6-37,15.7c-14,0-27.1-5.7-37-15.6L15.6,523.8C5.7,514,0,500.8,0,486.8
	c0-28.7,23.8-52.6,52.6-52.6h236.8V65.8c0-28.8,23.8-52.6,52.6-52.6h315.7c28.8,0,52.7,23.9,52.7,52.6v368.4h236.8
	c28.8,0,52.7,23.9,52.7,52.6c0,14-5.8,27.1-15.7,37L537,971.2L537,971.2z"/>
</svg>
