<?xml version="1.0" encoding="utf-8"?>
<!-- Generator: Adobe Illustrator 22.0.0, SVG Export Plug-In . SVG Version: 6.00 Build 0)  -->
<svg version="1.1" id="图层_1" xmlns="http://www.w3.org/2000/svg" xmlns:xlink="http://www.w3.org/1999/xlink" x="0px" y="0px"
	 viewBox="0 0 1000 1000" style="enable-background:new 0 0 1000 1000;" xml:space="preserve">
<g>
	<path d="M904.5,144.1H708.1c-41.4,0-76.3,26.5-89.5,63.4c98.8,14.3,175,99.3,175,201.9v122h111c52.7,0,95.5-42.7,95.5-95.5V239.6
		C1000,186.9,957.3,144.1,904.5,144.1z"/>
	<path d="M596.7,289.5H113.8C50.9,289.5,0,340.4,0,403.3v482.9C0,949.1,50.9,1000,113.8,1000h482.9c62.8,0,113.8-50.9,113.8-113.8
		V403.3C710.5,340.4,659.6,289.5,596.7,289.5z M252.7,502.5c0-56.6,46-102.6,102.6-102.6s102.6,46,102.6,102.6v130.6
		c0,56.6-46,102.6-102.6,102.6s-102.6-46-102.6-102.6V502.5z M468.1,855.4c9.4,0,17.1,7.6,17.1,17.1c0,9.4-7.6,17.1-17.1,17.1H242.5
		c-9.4,0-17.1-7.6-17.1-17.1c0-9.5,7.6-17.1,17.1-17.1h95.7v-52.1c-87.3-8.8-153.8-82.3-153.8-170.1c0-9.4,7.6-17.1,17.1-17.1
		s17.1,7.6,17.1,17.1c0,75.5,61.3,136.8,136.8,136.8S492,708.7,492,633.1c0-9.4,7.6-17.1,17.1-17.1s17.1,7.6,17.1,17.1
		c0,87.8-66.5,161.3-153.8,170.1v52.1H468.1z"/>
	<path d="M551,80.8L541.3,0l-37.2,54c-119.3-63.4-269.2,41.6-228.2,203h35.7c-10.2-82.8,71.1-133,128.7-110.4l-37.6,54.4l79-19.6
		l79-19.7L551,80.8z"/>
</g>
</svg>
