<?xml version="1.0" encoding="utf-8"?>
<!-- Generator: Adobe Illustrator 22.0.0, SVG Export Plug-In . SVG Version: 6.00 Build 0)  -->
<svg version="1.1" id="图层_1" xmlns="http://www.w3.org/2000/svg" xmlns:xlink="http://www.w3.org/1999/xlink" x="0px" y="0px"
	 viewBox="0 0 1000 1000" style="enable-background:new 0 0 1000 1000;" xml:space="preserve">
<path d="M498.8,998.7c-276,0-500-224-500-500c0-276,224-500,500-500s500,224,500,500C998.8,774.7,774.8,998.7,498.8,998.7
	L498.8,998.7z M144.6,498.7c0,195.3,158.8,354.2,354.1,354.2S852.9,694,852.9,498.7S694.1,144.5,498.8,144.5
	C303.5,144.5,144.6,303.4,144.6,498.7z M248.8,561.2v-125c0-11.1,9.7-20.8,20.8-20.8h229.2v-125c0-11.1,9.8-20.8,20.8-20.8
	c5.2,0,11.1,1.9,15,5.9l208.3,208.3c3.9,3.9,5.9,9.7,5.9,15c0,5.2-2,11.1-5.9,15L535.2,721.4c-4.6,3.9-9.8,6.5-15.6,6.5
	c-11.7,0-20.8-9.1-20.8-20.8V582H269.6C258.5,582,248.8,572.3,248.8,561.2L248.8,561.2z"/>
</svg>
