<?xml version="1.0" encoding="utf-8"?>
<!-- Generator: Adobe Illustrator 22.0.0, SVG Export Plug-In . SVG Version: 6.00 Build 0)  -->
<svg version="1.1" id="图层_1" xmlns="http://www.w3.org/2000/svg" xmlns:xlink="http://www.w3.org/1999/xlink" x="0px" y="0px"
	 viewBox="0 0 1000 1000" style="enable-background:new 0 0 1000 1000;" xml:space="preserve">
<path d="M978.9,449.1L848.8,319c-12.5-12.5-32.8-12.5-45.3,0c-12.5,12.5-12.5,32.8,0,45.3L907.3,468H532V92.7l103.8,103.8
	c6.2,6.2,14.4,9.4,22.6,9.4s16.4-3.1,22.6-9.4c12.5-12.5,12.5-32.8,0-45.3L550.9,21.1C522.8-7,477.2-7,449.1,21.1L319,151.2
	c-12.5,12.5-12.5,32.8,0,45.3c12.5,12.5,32.8,12.5,45.3,0L468,92.7V468H92.7l103.8-103.8c12.5-12.5,12.5-32.8,0-45.3
	c-12.5-12.5-32.8-12.5-45.3,0L21.1,449.1C-7,477.2-7,522.8,21.1,550.9L151.2,681c6.2,6.2,14.4,9.4,22.6,9.4s16.4-3.1,22.6-9.4
	c12.5-12.5,12.5-32.8,0-45.3L92.7,532H468v375.3L364.2,803.6c-12.5-12.5-32.8-12.5-45.3,0c-12.5,12.5-12.5,32.8,0,45.3l130.1,130.1
	c14,14,32.5,21.1,50.9,21.1s36.9-7,50.9-21.1L681,848.8c12.5-12.5,12.5-32.8,0-45.3c-12.5-12.5-32.8-12.5-45.3,0L532,907.3V532
	h375.3L803.6,635.8c-12.5,12.5-12.5,32.8,0,45.3c6.2,6.2,14.4,9.4,22.6,9.4s16.4-3.1,22.6-9.4l130.1-130.1
	C1007,522.8,1007,477.2,978.9,449.1z"/>
</svg>
