<svg xmlns="http://www.w3.org/2000/svg" viewBox="0 0 1000 1000"><title>画板 6</title><g id="图层_2" data-name="图层 2"><path d="M515.4,287.14H98.64a92.77,92.77,0,0,0-68.51,30.4,98.56,98.56,0,0,0-25.8,72.23l11.6,213c2.14,38.42,31,69.06,67.44,73L99,945.27c1.91,30.65,26.74,54.73,56.79,54.73h75.71c29.83,0,54.92-24.08,56.78-54.73l28.64-505.39,200.37-36c30.3-1,54.9-26.77,54.9-58.39h0C572.18,313.41,546.62,287.14,515.4,287.14Z"/><path d="M923,0H420.66c-40.18,0-72.84,31-72.84,69.27V247.14H515.4c53.37,0,96.78,44.13,96.78,98.36l0,35.88a26.13,26.13,0,0,1,6.82,5l7.38,7.6L676,291.72a26.5,26.5,0,0,1,19-14.17,24.74,24.74,0,0,1,4.54-.42,25.26,25.26,0,0,1,18,7.6l42.19,38.21,81.75-134.37a26.1,26.1,0,0,1,22.3-12.7,25.84,25.84,0,0,1,13.46,3.8l.17.11a26.77,26.77,0,0,1,8.66,36.1L787.28,385.07a26.28,26.28,0,0,1-19,12.56l-.19,0a26.74,26.74,0,0,1-3,.17A26,26,0,0,1,746.56,390L706.3,348.58,656.73,450.67A26.48,26.48,0,0,1,637.88,465a21.2,21.2,0,0,1-4.55.38h-.11a25.77,25.77,0,0,1-15.07-4.84h-.61l-2.84-2.94-32.66-34a26.38,26.38,0,0,1-3.09-3.89,95.12,95.12,0,0,1-57.1,24.05L355,473.67,347.82,601v3.43c0,38.17,32.66,69.21,72.84,69.21H923c40.18,0,72.83-31,72.83-69.21V69.27C995.82,31,963.17,0,923,0Z"/><path d="M190.21,238.69c-65.56,0-118.75-53.46-118.75-119.37S124.66,0,190.21,0,309,53.45,309,119.35,255.77,238.69,190.21,238.69Z"/></g></svg>