<svg xmlns="http://www.w3.org/2000/svg" viewBox="0 0 1000 1000"><title>画板 7</title><g id="图层_2" data-name="图层 2"><rect x="228.51" y="21.27" width="70" height="183.24" rx="35" ry="35"/><path d="M729.73,21.27a35,35,0,0,0-35,35V169.52a35,35,0,0,0,70,0V56.27A35,35,0,0,0,729.73,21.27Z"/><path d="M898.27,86.73H828.42v83.13a98.91,98.91,0,1,1-197.81,0V86.73h-268v83.13a98.91,98.91,0,1,1-197.81,0V86.73h-63.1C41,86.73.47,127.23.47,188V877.47c0,54,47.25,101.26,101.26,101.26H898.27c54,0,101.26-47.26,101.26-101.26V188C999.53,127.23,959,86.73,898.27,86.73Zm-564,591.17a35,35,0,0,1-35,35h-76a35,35,0,0,1-35-35h0a35,35,0,0,1,35-35h76a35,35,0,0,1,35,35Zm0-245a35,35,0,0,1-35,35h-76a35,35,0,0,1-35-35h0a35,35,0,0,1,35-35h76a35,35,0,0,1,35,35Zm237.5,244.65a35,35,0,0,1-35,35h-76a35,35,0,0,1-35-35h0a35,35,0,0,1,35-35h76a35,35,0,0,1,35,35Zm0-245a35,35,0,0,1-35,35h-76a35,35,0,0,1-35-35h0a35,35,0,0,1,35-35h76a35,35,0,0,1,35,35Zm91.46,0a35,35,0,0,1,35-35h76a35,35,0,0,1,35,35h0a35,35,0,0,1-35,35h-76a35,35,0,0,1-35-35Zm158.52,228.7-77.41,77.41a25.43,25.43,0,0,1-35.81,0l-50-50a25.35,25.35,0,0,1,35.88-35.82l32.08,32.07,59.43-59.43a25.35,25.35,0,0,1,35.88,35.82Z"/></g></svg>