<svg xmlns="http://www.w3.org/2000/svg" viewBox="0 0 1000 1000"><title>画板 8</title><g id="图层_2" data-name="图层 2"><path d="M795.29,901.92c-2.36,14-5.84,24.73-10.42,32-3.47,4.72-12.64,9.72-28,15s-34.58,10.55-57.64,15.55c-22.91,5-48.33,9.58-76.52,14-27.92,4.3-56,8.19-83.89,11.53s-55,5.69-81.1,7.5q-39,2.49-67.92,2.5c-19.44,0-41.39-1.12-66-3.06s-50.27-4.58-76.52-7.5-52.36-6.53-78.19-10.55-48.89-8.06-70-12-38.89-8-53.47-11.94-24-7.64-28-11c-6.67-5.42-12-21.81-15.42-49-3.75-27.36-2.5-62.22,3.33-105C9.35,766,19.77,747.63,36,734.85s35.14-22.5,56.52-30c21.39-7.22,43.61-14,66.53-20,23.19-6,43.19-14.58,60.55-26.11,14-8.75,24.72-16.8,31.94-24.44a76.6,76.6,0,0,0,16-23.61,63.84,63.84,0,0,0,5-25c0-8.61-.14-18.33-1-28.89-1.25-15.41-6.52-27.36-16-36.11a375.46,375.46,0,0,0-31-26c-5.42-4.72-10-11.25-14-19.58-3.88-8.33-7.77-16.8-11.11-25.55-3.33-10-6.52-20.28-10-31.11a45.94,45.94,0,0,1-14.16-7c-3.89-3.19-8.06-7.91-12.5-13.89s-8.2-14.72-11.53-26.11S146.85,350,147.82,341s2.78-16.8,5.42-23.47a73.73,73.73,0,0,1,11.94-21,463.43,463.43,0,0,1,4-75A431.49,431.49,0,0,1,183.65,154,220.38,220.38,0,0,1,214.2,89.6C227,71,240.87,55.85,256.29,44.05a204.59,204.59,0,0,1,47.08-27.5A190.92,190.92,0,0,1,351.84,3.08C368.5,1.27,383.92,0,398.64,0a235.17,235.17,0,0,1,55.55,6.53,275.27,275.27,0,0,1,49.58,17.5,207.8,207.8,0,0,1,40.42,25A170.85,170.85,0,0,1,572.66,77.1,205.83,205.83,0,0,1,610.71,147q12.09,38.13,16.95,71.94a666.34,666.34,0,0,1,5,79,28,28,0,0,1,11.11,11.94,66.22,66.22,0,0,1,6.52,17.92c1.67,7.36,1.81,16.38.56,26.94-1.39,14-4.44,25.14-9,33.47s-9.3,15-14,19.58c-6,5.28-11.95,9-18.2,11-3.19,11.39-6.53,21.81-10,31.11a196.55,196.55,0,0,1-11.94,25c-4.58,8.06-9.58,14.31-15.14,19-6,5.28-11.53,9.86-16.39,13.47a102.54,102.54,0,0,0-13.47,11.94,65.45,65.45,0,0,0-10,14.45c-2.64,5.28-4.58,11.94-6.11,20a186.21,186.21,0,0,0-1.39,30.55,73.07,73.07,0,0,0,8.06,30.42c5,10,12.64,19.58,23,29.16s24.58,17.78,42.64,25.14a383.06,383.06,0,0,0,53.47,17.5,503.82,503.82,0,0,1,56.94,17.91,204.45,204.45,0,0,1,49,26.39,81.57,81.57,0,0,1,29.58,42.08,213,213,0,0,1,7.91,37.92,370.82,370.82,0,0,1,2.92,46.52A268.68,268.68,0,0,1,795.29,901.92Zm201.1-225.4q-3.54,10.41-10.42,10.42H781.82c-9.45-14.59-19.45-27-30.56-37a162.72,162.72,0,0,0-33.47-24h268c4.59,0,8.2,3.19,10.42,9.44A56.2,56.2,0,0,1,999.86,655,63.56,63.56,0,0,1,996.39,676.52ZM1000,561H627.93c21.39-34.72,37.5-69.72,48.47-105.41A321.51,321.51,0,0,0,690.85,349q-1.05-45,.41-84.58c1.12-26.25,2.5-50.83,4.59-73.47h237.9c19.45,0,35.14,5.41,47.5,16s18.61,25.69,18.61,45ZM466.69,728c1.39-4,.7-8.61-2.5-13.47A60,60,0,0,0,451.69,700a266.76,266.76,0,0,0-21-16.94h-50a248.38,248.38,0,0,0-19,16.94,74.69,74.69,0,0,0-11.53,14.58c-2.92,4.86-3.75,9.17-2.5,12.36,3.33,6.53,6.39,12.36,9,17a86.88,86.88,0,0,0,9,13c-1.25,3.89-3.2,11.53-6,22.5s-5.69,23.06-9,36.11-6.25,25.28-8.48,36.94S338.64,873,338.64,879c0,3.33,2.92,8.19,8.61,14.44a201.84,201.84,0,0,0,19.86,18.89,237.8,237.8,0,0,0,22.64,16.53c7.36,4.58,12.78,6.94,16,6.94,4,0,9.31-2.22,16-6.53a173.74,173.74,0,0,0,20.14-15.55,187,187,0,0,0,17.36-17.92c5.14-6.11,7.64-11.11,7.64-15s-1-11.52-2.92-22.49-4.16-23.06-6.52-36c-2.5-13.06-4.86-25.7-7.5-37.5-2.64-12-4.59-20.7-6-26.11C453.78,751.65,461.42,741.38,466.69,728Z"/></g></svg>