<svg xmlns="http://www.w3.org/2000/svg" viewBox="0 0 1000 1000"><title>画板 9</title><g id="图层_2" data-name="图层 2"><rect x="228.51" y="21.27" width="70" height="183.24" rx="35" ry="35"/><path d="M729.73,21.27a35,35,0,0,0-35,35V169.52a35,35,0,0,0,70,0V56.27A35,35,0,0,0,729.73,21.27Z"/><path d="M999.53,188c0-60.75-40.5-101.25-101.26-101.25H828.42v83.13a98.91,98.91,0,1,1-197.81,0V86.73h-268v83.13a98.91,98.91,0,1,1-197.81,0V86.73h-63.1C41,86.73.47,127.23.47,188V356.81H999.53Z"/><path d="M.47,877.47c0,54,47.25,101.26,101.26,101.26H898.27c54,0,101.26-47.26,101.26-101.26V426.81H.47ZM758.12,603a55,55,0,1,1-55,55A54.92,54.92,0,0,1,758.12,603Zm-257,0a55,55,0,1,1-55,55A55,55,0,0,1,501.13,603Zm-259.21,0a55,55,0,1,1-55,55A55,55,0,0,1,241.92,602.94Z"/></g></svg>