<?xml version="1.0" encoding="utf-8"?>
<!-- Generator: Adobe Illustrator 22.0.0, SVG Export Plug-In . SVG Version: 6.00 Build 0)  -->
<svg version="1.1" id="图层_1" xmlns="http://www.w3.org/2000/svg" xmlns:xlink="http://www.w3.org/1999/xlink" x="0px" y="0px"
	 viewBox="0 0 1000 1000" style="enable-background:new 0 0 1000 1000;" xml:space="preserve">
<g>
	<path d="M945.6,687.2H804.7v-22.3c0-30-24.4-54.4-54.4-54.4H644.5c-30,0-54.4,24.4-54.4,54.4v247.7c0,30,24.4,54.4,54.4,54.4h301
		c30,0,54.4-24.4,54.4-54.4v-171C1000,711.7,975.6,687.2,945.6,687.2z"/>
	<path d="M525.9,664.9c0-65.5,53.1-118.7,118.7-118.7h70.9c40-53.6,63.7-120,63.7-192c0-176.9-141.8-319.9-318.7-321.3
		c-178.7-1.4-323.9,143-323.9,321.3c0,107.8,53.1,203.2,134.5,261.5C145.5,668.5,47.1,772.9,2.2,902.4c-9,26.1,10.3,53.3,38,53.3
		h445.5c22.2,0,40.2-18,40.2-40.2V664.9z"/>
</g>
</svg>
