<?xml version="1.0" encoding="utf-8"?>
<!-- Generator: Adobe Illustrator 22.0.0, SVG Export Plug-In . SVG Version: 6.00 Build 0)  -->
<svg version="1.1" id="图层_1" xmlns="http://www.w3.org/2000/svg" xmlns:xlink="http://www.w3.org/1999/xlink" x="0px" y="0px"
	 viewBox="0 0 1000 1000" style="enable-background:new 0 0 1000 1000;" xml:space="preserve">
<title>画板 14</title>
<path d="M802.6,77.8H197.4C88.9,77.8,0,166.6,0,275.2v276.3C0,660,88.8,748.8,197.4,748.8h436c0,0,100.2,170.3,150.3,173.3h0.7
	c11.2,0,10-5.2,8.3-10.9c-30.9-106.1-19.9-162.5-19.9-162.5h29.8c108.6,0,197.4-88.8,197.4-197.4V275.2
	C1000,166.6,911.2,77.8,802.6,77.8z M318.5,439.6c-17.7,0-32-14.3-32-32c0-17.7,14.3-32,32-32h317.8l-65.4-65.4
	c-12.2-12.8-11.8-33,1-45.2c12.4-11.9,31.9-11.9,44.3,0l120,120c12.5,12.5,12.5,32.8,0,45.3c0,0,0,0,0,0l-120,120
	c-12.5,12.5-32.8,12.5-45.3,0s-12.5-32.8,0-45.3l65.4-65.4L318.5,439.6z"/>
</svg>
