<?xml version="1.0" encoding="utf-8"?>
<!-- Generator: Adobe Illustrator 22.0.0, SVG Export Plug-In . SVG Version: 6.00 Build 0)  -->
<svg version="1.1" id="图层_1" xmlns="http://www.w3.org/2000/svg" xmlns:xlink="http://www.w3.org/1999/xlink" x="0px" y="0px"
	 viewBox="0 0 1000 1000" style="enable-background:new 0 0 1000 1000;" xml:space="preserve">
<title>画板 16</title>
<g>
	<path d="M778.8,537.5c63.8-42.5,106-115.1,106-197.2c0-130.5-106.5-237-237-237s-237,106.6-237,237c0,82.1,42.2,154.7,106,197.2
		c-129.2,52.3-221.2,179.4-221.2,326.7c0,17.4,15.2,32.6,32.6,32.6h639.1c17.4,0,32.6-15.2,32.6-32.6
		C1000,716.8,908.1,589.8,778.8,537.5z"/>
	<path d="M346.8,340.2c0-40.5,8-79.9,23.8-117c14.9-35.2,36.2-66.9,63.2-94.2H80.1c-44.2,0-80,35.8-80,80v586c0,44.2,35.8,80,80,80
		h152.2c-0.4-3.6-0.6-7.2-0.6-10.8c0-84.3,25.4-165.7,73.5-235.3c23.1-33.4,50.8-63.3,82.5-88.8c7.1-5.7,14.4-11.2,21.8-16.4
		c-9.5-12.3-18.1-25.4-25.6-39.1C359.6,440.5,346.8,390.6,346.8,340.2z M204.3,681.8H150c-17.7,0-32-14.3-32-32s14.3-32,32-32h54.3
		c17.7,0,32,14.3,32,32S222,681.8,204.3,681.8z M252,512.2H150c-17.7,0-32-14.3-32-32c0-17.7,14.3-32,32-32h102
		c17.7,0,32,14.3,32,32C284,497.8,269.7,512.2,252,512.2z M252,342.5H150c-17.7,0-32-14.3-32-32c0-17.7,14.3-32,32-32h102
		c17.7,0,32,14.3,32,32C284,328.1,269.7,342.5,252,342.5z"/>
</g>
</svg>
