<svg xmlns="http://www.w3.org/2000/svg" viewBox="0 0 1000 1000"><title>画板 19</title><g id="图层_2" data-name="图层 2"><path d="M816,65.69H184.24C82.62,65.69,0,148.4,0,250v235a32,32,0,1,0,64,0V250c0-66.32,53.91-120.23,120.13-120.23H815.86C882.08,129.8,936,183.71,936,250v235a32,32,0,1,0,64,0V250C1000.2,148.4,917.58,65.69,816,65.69Z"/><path d="M608,639.9a184.76,184.76,0,0,0,73.54-147.68c0-102.19-82.85-185-185-185s-185,82.84-185,185A184.76,184.76,0,0,0,385,639.9c-95.78,42.71-162.56,138.75-162.56,250.4,0,28,191,44,274.06,44s274-16,274-44C770.55,778.65,703.78,682.61,608,639.9Z"/><path d="M286.16,625.59q-6.36-10-11.73-20.55a249.49,249.49,0,0,1-7.38-209.78q1.27-3,2.63-6a148.92,148.92,0,0,0-65,265.68A220.58,220.58,0,0,0,73.91,856.46c0,11.22,38.11,20,84.62,26.08A338.12,338.12,0,0,1,286.16,625.59Z"/><path d="M919.08,856.46A220.57,220.57,0,0,0,788.27,655a148.92,148.92,0,0,0-64.95-265.68q1.35,3,2.63,6A249.49,249.49,0,0,1,718.57,605q-5.37,10.55-11.74,20.55A338.08,338.08,0,0,1,834.47,882.54C881,876.51,919.08,867.68,919.08,856.46Z"/></g></svg>