<svg xmlns="http://www.w3.org/2000/svg" viewBox="0 0 1000 1000"><title>画板 20</title><g id="图层_2" data-name="图层 2"><path d="M765.62,972.22H667.05a33.41,33.41,0,0,1-33.47-33.35v-212a31.67,31.67,0,0,1,7.79-23.43,30.82,30.82,0,0,1,12.16-9.21l130.75-81.81V401.25c0-59,48.57-107.43,107.78-107.43A108,108,0,0,1,999.9,401.25v231.8c1.42,13.46-12.87,41.32-25,47.63L800.74,793.07v145.8a35.88,35.88,0,0,1-9.32,23.43A41,41,0,0,1,765.62,972.22Z"/><path d="M238.63,972.22H232.9a33.41,33.41,0,0,1-33.47-33.35V793l-175-113C12.25,673.6-1.91,645.21.21,631V400.54c0-59,48.58-107.43,107.79-107.43A108,108,0,0,1,215.84,400.54v211.2L347.24,695A35.45,35.45,0,0,1,363,714.09a7,7,0,0,1,.65,3.54V937.45a32.71,32.71,0,0,1-29.93,33.35h-95v1.42Z"/><path d="M110.27,79.72a96,96,0,1,0,.06,192.08h0c53.54,0,96.39-42.62,96.39-96a96.22,96.22,0,0,0-96.39-96h-.06Z"/><path d="M548.7,892.22a33.18,33.18,0,0,1-33.06-33.29V658.08a33.06,33.06,0,1,1,66.11,0V858.69C581.75,877.17,567,892.22,548.7,892.22Zm-97.81,0a33.18,33.18,0,0,1-33.06-33.29V658.08a33.18,33.18,0,0,1,57-23.5c6.37,6.5,9.79,14.94,9.14,23.5V858.69C483.94,877.17,469.19,892.22,450.89,892.22ZM702.76,529.93h-83V371.79c0-66.93-54.19-121.77-120.36-121.77S378.93,304.86,378.93,371.79V529.28H296.65a33.41,33.41,0,0,0,0,66.82H702.82a33.09,33.09,0,0,0,.06-66.17h-.12Z"/><path d="M499.7,27.78c-52.82,0-96.39,42.74-96.39,96a96.23,96.23,0,0,0,96.39,96h0c53.54,0,96.46-42.62,96.46-96a96.39,96.39,0,0,0-96.51-96Z"/><path d="M889.11,79.72a96.21,96.21,0,0,0-96.39,96h0a96.21,96.21,0,0,0,96.39,96h0c53.54,0,96.45-42.62,96.45-96a96.22,96.22,0,0,0-96.39-96h-.06Z"/></g></svg>