<svg xmlns="http://www.w3.org/2000/svg" viewBox="0 0 1000 1000"><title>画板 21</title><g id="图层_2" data-name="图层 2"><path d="M887.6,26.5H112.4C50.4,26.5,0,74.4,0,133.4V866.7c0,58.9,50.4,106.8,112.4,106.8H887.6c62,0,112.4-47.9,112.4-106.8V133.4C1000,74.4,949.6,26.5,887.6,26.5ZM295.4,775.6a119.6,119.6,0,1,1,0-239.2c65.9,0,119.6,53.7,119.6,119.7S361.3,775.6,295.4,775.6ZM439.5,304.5,302.4,441.6a45.63,45.63,0,0,1-64.4,0L151.3,355a45.63,45.63,0,0,1,0-64.5,45.63,45.63,0,0,1,64.4,0L270.2,345,375.1,240a45.63,45.63,0,0,1,64.4,0A45.63,45.63,0,0,1,439.5,304.5ZM851.1,686.4c-9.3,10.6-22.6,12.8-32.2,12.8H499.5a41.6,41.6,0,0,1-30.1-12.4,43.1,43.1,0,0,1-12.1-30.5c0-12.3,3.5-22.7,10-30.1,9.3-10.6,22.6-12.8,32.2-12.8H818.8A41.66,41.66,0,0,1,849,625.8a43.1,43.1,0,0,1,12.1,30.5C861.1,668.6,857.6,679,851.1,686.4Zm0-299.3c-9.3,10.6-22.6,12.8-32.2,12.8H499.5c-12.2,0-22.5-3.6-29.8-10.3-8.2-7.6-12.4-18.6-12.4-32.6,0-12.3,3.5-22.7,10-30.1,9.3-10.6,22.6-12.8,32.2-12.8H818.8A41.66,41.66,0,0,1,849,326.5,43.1,43.1,0,0,1,861.1,357C861.1,369.3,857.6,379.7,851.1,387.1Z"/><path d="M295.4,622.3a33.8,33.8,0,1,0,33.8,33.8A33.89,33.89,0,0,0,295.4,622.3Z"/></g></svg>