<svg xmlns="http://www.w3.org/2000/svg" viewBox="0 0 1000 1000"><title>画板 22</title><g id="图层_2" data-name="图层 2"><path d="M887.59,26.45H112.51c-62,0-112.51,48-112.51,107V866.54c0,59,50.51,107,112.51,107h775c62,0,112.51-48,112.51-107V133.46C1000.1,74.46,949.59,26.45,887.59,26.45ZM817,806.83H183.12c-23.1,0-42-19.3-42-43s18.81-43.11,42-43.11H817c23.2,0,42.11,19.4,42,43.11S840.18,806.83,817,806.83Zm42.21-350a42.06,42.06,0,1,1-84.11,0V355.09L541.25,614.91l-6.8,7.5-7.4-6.9L344.23,446.29l-130,144.42a42.1,42.1,0,0,1-62.6-56.31L332,334l6.8-7.5,7.4,6.9L529.05,502.7l193.72-215H626.86a42.11,42.11,0,0,1,0-84.21H817.28a27.72,27.72,0,0,1,7.4,1,30.72,30.72,0,0,1,7.6,1.9,36.71,36.71,0,0,1,7.4,3.9,31.92,31.92,0,0,1,6,4.3l.3.2.2.3.8.9a26.42,26.42,0,0,1,4.8,6.1,29.15,29.15,0,0,1,3.81,6.4,28.12,28.12,0,0,1,2.1,6.8,35.31,35.31,0,0,1,1.5,9.3Z"/></g></svg>