<svg xmlns="http://www.w3.org/2000/svg" viewBox="0 0 1000 1000"><defs><style>.cls-1{fill:none;}</style></defs><title>画板 23</title><g id="图层_2" data-name="图层 2"><path class="cls-1" d="M315.38,475.61H326V507.4a24.64,24.64,0,0,0,49.28,0V475.61H624.72V507.4a24.64,24.64,0,0,0,49.28,0V475.61h10.62a44.11,44.11,0,0,0,44.11-44.11V323a44.12,44.12,0,0,0-26.34-40.37l-39.08-112.4c-7.6-24.84-29-41.49-53.33-41.49H390c-24.36,0-45.73,16.65-53.33,41.49l-39.08,112.4A44.12,44.12,0,0,0,271.27,323V431.5A44.11,44.11,0,0,0,315.38,475.61ZM393,400.13a22.88,22.88,0,1,1,22.88-22.87A22.87,22.87,0,0,1,393,400.13Zm214.1,0a22.88,22.88,0,1,1,22.87-22.87A22.87,22.87,0,0,1,607.05,400.13ZM374.61,183c.1-.28.19-.57.28-.86,2.38-8,8.46-13.38,15.13-13.38H610c6.67,0,12.75,5.38,15.13,13.38.09.29.18.58.28.86l33.35,95.91H341.26Z"/><path d="M625.39,183c-.1-.28-.19-.57-.28-.86-2.38-8-8.46-13.38-15.13-13.38H390c-6.67,0-12.75,5.38-15.13,13.38-.09.29-.18.58-.28.86L341.26,278.9H658.74Z"/><circle cx="392.95" cy="377.26" r="22.87" transform="translate(-35.26 40.56) rotate(-5.66)"/><circle cx="607.05" cy="377.26" r="22.87" transform="translate(-34.22 61.65) rotate(-5.66)"/><path d="M900,0H100A72.08,72.08,0,0,0,28,72V928a72.08,72.08,0,0,0,72,72H900a72.08,72.08,0,0,0,72-72V72A72.08,72.08,0,0,0,900,0ZM271.27,323a44.12,44.12,0,0,1,26.34-40.37l39.08-112.4c7.6-24.83,29-41.49,53.33-41.49H610c24.36,0,45.73,16.66,53.33,41.49l39.08,112.4A44.12,44.12,0,0,1,728.73,323V431.5a44.11,44.11,0,0,1-44.11,44.11H674V507.4a24.64,24.64,0,0,1-49.28,0V475.61H375.28V507.4a24.64,24.64,0,0,1-49.28,0V475.61H315.38a44.11,44.11,0,0,1-44.11-44.11ZM750,841.29H250a32,32,0,0,1,0-64H750a32,32,0,0,1,0,64Zm0-143H250a32,32,0,0,1,0-64H750a32,32,0,0,1,0,64Z"/></g></svg>