<?xml version="1.0" encoding="utf-8"?>
<!-- Generator: Adobe Illustrator 22.0.0, SVG Export Plug-In . SVG Version: 6.00 Build 0)  -->
<svg version="1.1" id="图层_1" xmlns="http://www.w3.org/2000/svg" xmlns:xlink="http://www.w3.org/1999/xlink" x="0px" y="0px"
	 viewBox="0 0 1000 1000" style="enable-background:new 0 0 1000 1000;" xml:space="preserve">
<style type="text/css">
	.st0{fill:#050000;}
</style>
<title>画板 24</title>
<path class="st0" d="M927.3,376.9l-81.4-234.3C830.8,93.2,788.5,60,740.4,60H259.6c-48.1,0-90.4,33.2-105.4,82.6L72.7,376.9
	C31.9,380.5,0,414.8,0,456.5v270c0,44.2,35.8,80,80,80h61.5V876c0,17.7,14.3,32,32,32s32-14.3,32-32v-69.5h589V876
	c0,17.7,14.3,32,32,32s32-14.3,32-32v-69.5H920c44.2,0,80-35.8,80-80v-270C1000,414.8,968.1,380.5,927.3,376.9z M784,591.5
	c0,27.6-22.4,50-50,50s-50-22.4-50-50s22.4-50,50-50S784,563.9,784,591.5z M316,591.5c0,27.6-22.4,50-50,50s-50-22.4-50-50
	s22.4-50,50-50S316,563.9,316,591.5z M214.8,163c0.2-0.5,0.3-0.9,0.4-1.4c6.7-22.5,24.5-37.6,44.3-37.6h480.8
	c19.8,0,37.6,15.1,44.3,37.6c0.1,0.5,0.3,0.9,0.4,1.4l74.2,213.5H140.6L214.8,163z"/>
</svg>
