<?xml version="1.0" encoding="utf-8"?>
<!-- Generator: Adobe Illustrator 22.0.0, SVG Export Plug-In . SVG Version: 6.00 Build 0)  -->
<svg version="1.1" id="图层_1" xmlns="http://www.w3.org/2000/svg" xmlns:xlink="http://www.w3.org/1999/xlink" x="0px" y="0px"
	 viewBox="0 0 1000 1000" style="enable-background:new 0 0 1000 1000;" xml:space="preserve">
<title>画板 36</title>
<g id="图层_6">
	<path d="M294.6,177c2.4,8.5,5.3,16.8,8.8,24.9c46,108.6,171.3,159.4,279.9,113.5c51.1-21.6,91.8-62.3,113.5-113.5
		c3.4-8.1,6.3-16.4,8.8-24.9l18.1,0.1c22.7,0.1,45.1,5.8,65.1,16.6l129.4,69.8c-17.6,32-40,72.4-57,102.5l-93.3-31.3
		c-33.5-11.2-69.8,6.8-81,40.3c-3.3,9.7-4.1,20.1-2.6,30.2l59.4,382.2c-79,23.9-161.1,36-243.6,35.9c-82.5,0.1-164.6-12-243.6-35.9
		l59.3-382.2c5.4-34.9-18.5-67.6-53.4-73.1c-10.1-1.6-20.5-0.7-30.2,2.6l-93.3,31.3c-17-30.1-39.3-70.5-57-102.5l129.4-69.8
		c20-10.8,42.4-16.5,65.2-16.6H294.6 M649.4,112.7c0.1,2,0.1,4,0.1,6c0,82.6-66.9,149.5-149.5,149.5s-149.5-66.9-149.5-149.5
		c0-2,0-4,0.1-6l-74.5,0.3c-33.3,0.1-66,8.5-95.3,24.3L8.1,230.5C0.9,234.1-2,242.8,1.6,250c0.1,0.2,0.2,0.4,0.3,0.5
		c19.9,36.2,74.9,136.2,97.6,175.4c5.8,10.1,18,14.6,29,10.9l124-41.6l-67.5,435.4c100.8,37.5,207.5,56.7,315.1,56.5
		c107.6,0.1,214.3-19,315.1-56.5l-67.6-435.4l124,41.6c11,3.7,23.2-0.9,29-10.9c22.8-39.2,77.8-139.2,97.6-175.4
		c3.9-7.1,1.3-15.9-5.8-19.8c-0.2-0.1-0.4-0.2-0.5-0.3l-172.8-93.2c-29.3-15.8-62-24.1-95.2-24.3L649.4,112.7z"/>
</g>
</svg>
