<?xml version="1.0" encoding="utf-8"?>
<!-- Generator: Adobe Illustrator 22.0.0, SVG Export Plug-In . SVG Version: 6.00 Build 0)  -->
<svg version="1.1" id="图层_1" xmlns="http://www.w3.org/2000/svg" xmlns:xlink="http://www.w3.org/1999/xlink" x="0px" y="0px"
	 viewBox="0 0 1000 1000" style="enable-background:new 0 0 1000 1000;" xml:space="preserve">
<title>画板 37</title>
<g id="图层_4">
	<path d="M500,574.6c-41.1,0-74.4,32.3-74.4,72c0,28.1,16.7,52,40.9,64v92.2c0.1,4.3,3.6,7.7,7.9,7.6h51.5c4.3,0,7.8-3.4,7.9-7.6
		v-92.2l0,0c24.2-12,40.9-36,40.9-64C574.5,607,541.1,574.6,500,574.6z"/>
	<path d="M876.8,424.7c-17.4-17.5-41.1-27.2-65.8-27.1h-45V258.3C766,115.9,646.7,0,500,0S234,115.9,234,258.3v139.3h-44.9
		c-50.7,0-91.9,40.3-91.9,89.9V910c0,49.6,41.2,90,91.9,90H811c50.6,0,91.8-40.3,91.8-90V487.6C902.9,464,893.5,441.3,876.8,424.7z
		 M298,258.3C298,151.2,388.6,64,500,64s202,87.1,202,194.3v139.3H298V258.3z M838.8,910c0,14.3-12.5,25.9-27.8,25.9h-622
		c-15.4,0-27.9-11.6-27.9-25.9V487.5c0-14.3,12.5-25.8,27.9-25.8H811c7.6-0.1,15,2.9,20.4,8.3c4.7,4.6,7.3,11,7.3,17.6L838.8,910z"
		/>
</g>
</svg>
