<?xml version="1.0" encoding="utf-8"?>
<!-- Generator: Adobe Illustrator 22.0.0, SVG Export Plug-In . SVG Version: 6.00 Build 0)  -->
<svg version="1.1" id="图层_1" xmlns="http://www.w3.org/2000/svg" xmlns:xlink="http://www.w3.org/1999/xlink" x="0px" y="0px"
	 viewBox="0 0 1000 1000" style="enable-background:new 0 0 1000 1000;" xml:space="preserve">
<title>画板 37</title>
<g>
	<path d="M393.3,239.3l-95.1,95.1l-53.3-53.3c-12.7-12.7-33.4-12.7-46.2,0c-6.1,6.1-9.5,14.4-9.5,23c0,8.6,3.4,16.9,9.5,23
		l76.5,76.5c6.1,6.1,14.4,9.5,23,9.5c8.6,0,16.9-3.4,23-9.5l118.3-118.3c6.1-6.1,9.5-14.4,9.5-23c0-8.6-3.4-16.9-9.5-23
		C426.7,226.5,406,226.5,393.3,239.3z"/>
	<path d="M308.4,528c-64.4,0-116.7,52.3-116.7,116.7S244,761.5,308.4,761.5s116.7-52.3,116.7-116.7S372.8,528,308.4,528z M308.4,697
		c-28.9,0-52.3-23.4-52.3-52.3c0-28.9,23.4-52.3,52.3-52.3c28.9,0,52.3,23.6,52.3,52.3C360.7,673.6,337.3,697,308.4,697z"/>
	<path d="M899,27H99c-39.7,0-72,32.3-72,72v800c0,39.7,32.3,72,72,72h800c39.7,0,72-32.3,72-72V99C971,59.3,938.7,27,899,27z
		 M907,899c0,4.4-3.6,8-8,8H99c-4.4,0-8-3.6-8-8V99c0-4.4,3.6-8,8-8h800c4.4,0,8,3.6,8,8V899z"/>
	<path d="M782,289.4H558c-17.7,0-32,14.3-32,32s14.3,32,32,32h224c17.7,0,32-14.3,32-32S799.7,289.4,782,289.4z"/>
	<path d="M782,612.7H558c-17.7,0-32,14.3-32,32s14.3,32,32,32h224c17.7,0,32-14.3,32-32S799.7,612.7,782,612.7z"/>
</g>
</svg>
