<?xml version="1.0" encoding="utf-8"?>
<!-- Generator: Adobe Illustrator 22.0.0, SVG Export Plug-In . SVG Version: 6.00 Build 0)  -->
<svg version="1.1" id="图层_1" xmlns="http://www.w3.org/2000/svg" xmlns:xlink="http://www.w3.org/1999/xlink" x="0px" y="0px"
	 viewBox="0 0 1000 1000" style="enable-background:new 0 0 1000 1000;" xml:space="preserve">
<title>画板 37</title>
<g>
	<path d="M749.2,468.4c-12.8-10.9-32.1-9.3-43,3.5L525.1,685.2l-133.5-90.6c-13.2-9-30.7-6.4-40.8,6L244.9,730.8
		c-10.6,13.1-8.7,32.3,4.4,42.9c5.4,4.4,12.3,6.9,19.3,6.9c9.2,0,17.9-4.1,23.7-11.3l88.3-108.4l133,90.2
		c12.9,8.8,30.3,6.4,40.4-5.5l198.9-234.2C763.6,498.6,762.1,479.3,749.2,468.4z"/>
	<path d="M286,275h208c17.7,0,32-14.3,32-32l0,0c0-17.7-14.3-32-32-32H286c-17.7,0-32,14.3-32,32l0,0C254,260.7,268.3,275,286,275z"
		/>
	<path d="M280,448h270c17.7,0,32-14.3,32-32l0,0c0-17.7-14.3-32-32-32H280c-17.7,0-32,14.3-32,32l0,0C248,433.7,262.3,448,280,448z"
		/>
	<path d="M630,275h36c17.7,0,32-14.3,32-32l0,0c0-17.7-14.3-32-32-32h-36c-17.7,0-32,14.3-32,32l0,0C598,260.7,612.3,275,630,275z"
		/>
	<path d="M879-1H119C79.3-1,47,31.3,47,71v856c0,39.7,32.3,72,72,72h760c39.7,0,72-32.3,72-72V71C951,31.3,918.7-1,879-1z M887,927
		c0,4.4-3.6,8-8,8H119c-4.4,0-8-3.6-8-8V71c0-4.4,3.6-8,8-8h760c4.4,0,8,3.6,8,8V927z"/>
</g>
</svg>
