<?xml version="1.0" encoding="utf-8"?>
<!-- Generator: Adobe Illustrator 22.0.0, SVG Export Plug-In . SVG Version: 6.00 Build 0)  -->
<svg version="1.1" id="图层_1" xmlns="http://www.w3.org/2000/svg" xmlns:xlink="http://www.w3.org/1999/xlink" x="0px" y="0px"
	 viewBox="0 0 1000 1000" style="enable-background:new 0 0 1000 1000;" xml:space="preserve">
<g>
	<g>
		<path d="M724.8,110c59.2,0,113.8,21.5,153.7,60.7c39.6,38.8,61.4,91.8,61.5,149.1c0,71.4-30.9,140.7-100.3,224.7
			c-69.9,84.6-174.9,178.6-296.4,287.4l-10.6,9.5L500,870.1l-32.7-28.8l-10-9c-121.7-108.9-226.9-203-296.9-287.7
			C91,460.6,60,391.2,60,319.8c0-57.3,21.8-110.3,61.4-149.1c39.9-39.1,94.4-60.7,153.5-60.7c33.9,0,68.3,7.6,99.4,22.1
			c30.7,14.2,58.3,35,80,60.2l45.4,52.7l45.5-52.6c21.8-25.2,49.5-46,80.2-60.2C656.5,117.6,690.9,110,724.8,110 M724.8,50
			c-87.5,0-169.9,39.3-225,103.1C444.8,89.3,362.4,50,274.9,50C120,50,0,167.6,0,319.8c0,186.4,169.9,335.9,427.5,566.4L500,950
			l72.5-63.8C830,655.7,1000,506.2,1000,319.8C999.9,167.6,879.9,50,724.8,50L724.8,50z"/>
	</g>
</g>
</svg>
