<?xml version="1.0" encoding="utf-8"?>
<!-- Generator: Adobe Illustrator 22.0.0, SVG Export Plug-In . SVG Version: 6.00 Build 0)  -->
<svg version="1.1" id="图层_1" xmlns="http://www.w3.org/2000/svg" xmlns:xlink="http://www.w3.org/1999/xlink" x="0px" y="0px"
	 viewBox="0 0 1000 1000" style="enable-background:new 0 0 1000 1000;" xml:space="preserve">
<path d="M977.3,29.7C968.7,11.4,950.8,0,930.6,0H69.4C49.2,0,31.3,11.4,22.7,29.7C14.1,48,16.8,69,29.8,84.5L401,529.9
	c1.6,1.9,2.5,4.4,2.5,6.9v411.5c0,21.2,12.2,39.5,31.8,47.6c6.6,2.7,13.4,4.1,20.1,4.1c13.3,0,26.1-5.2,36.1-15.2l90-90
	c9.7-9.7,15.1-22.7,15.1-36.4V536.8c0-2.5,0.9-5,2.5-6.9L970.2,84.5C983.2,69,985.9,48,977.3,29.7z"/>
</svg>
