<?xml version="1.0" encoding="utf-8"?>
<!-- Generator: Adobe Illustrator 22.0.0, SVG Export Plug-In . SVG Version: 6.00 Build 0)  -->
<svg version="1.1" id="图层_1" xmlns="http://www.w3.org/2000/svg" xmlns:xlink="http://www.w3.org/1999/xlink" x="0px" y="0px"
	 viewBox="0 0 1000 1000" style="enable-background:new 0 0 1000 1000;" xml:space="preserve">
<path d="M976.2,41.2C964.3,15.8,939.5,0,911.4,0H88.6C60.5,0,35.7,15.8,23.8,41.2c-11.9,25.4-8.1,54.7,9.8,76.2l351.8,422.1v388.7
	c0,29.1,17.4,55,44.2,66.2c8.9,3.7,18.2,5.5,27.5,5.5c18.6,0,36.8-7.3,50.6-21l86-86c13.5-13.5,21-31.5,21-50.6V539.6l351.7-422.1
	C984.4,95.9,988.2,66.7,976.2,41.2z M917.3,76.6L562.8,502.1c-7.7,9.3-12,21.1-12,33.1v307.1c0,2.1-0.8,4-2.3,5.5l-86,86
	c-2.4,2.4-5.3,3-8.4,1.7c-3.2-1.3-4.8-3.7-4.8-7.2V535.2c0-12.1-4.3-23.9-12-33.2L82.7,76.6c-2.6-3.1-2-6.2-1.1-8.2
	c1-2,2.9-4.5,7-4.5h822.7c4.1,0,6.1,2.4,7,4.5C919.3,70.4,919.9,73.5,917.3,76.6z"/>
</svg>
