<?xml version="1.0" encoding="utf-8"?>
<!-- Generator: Adobe Illustrator 22.0.0, SVG Export Plug-In . SVG Version: 6.00 Build 0)  -->
<svg version="1.1" id="图层_1" xmlns="http://www.w3.org/2000/svg" xmlns:xlink="http://www.w3.org/1999/xlink" x="0px" y="0px"
	 viewBox="0 0 1000 1000" style="enable-background:new 0 0 1000 1000;" xml:space="preserve">
<style type="text/css">
	.st0{fill:#040000;}
</style>
<title>画板 37</title>
<g>
	<path class="st0" d="M810.8,594.7l-86.5,50c-3.1,1.7-6.8,1.3-9.4-0.9l-73.8-66.1c-5.8-5.2-15,0.1-13.4,7.8l20.4,97
		c0.8,3.5-0.8,6.8-3.9,8.6l-86.5,50c-6.7,3.9-4.7,14.2,3.1,15l99.1,9.9c3.5,0.3,6.3,2.8,7.1,6.3l20.4,97c1.6,7.6,12.1,8.6,15.3,1.6
		l40.9-90.8c1.5-3.1,4.8-5.1,8.2-4.7l99.1,9.9c7.8,0.8,12.1-8.9,6.3-14.1l-73.8-66.1c-2.5-2.4-3.4-6.2-1.9-9.3l40.9-90.8
		C825.5,597.8,817.5,590.8,810.8,594.7z"/>
	<path class="st0" d="M789.2,270L789.2,270c0-17.7-14.3-32-32-32h-556c-17.7,0-32,14.3-32,32l0,0c0,17.7,14.3,32,32,32h556
		C774.9,302,789.2,287.7,789.2,270z"/>
	<path class="st0" d="M201.2,473.5c-17.7,0-32,14.3-32,32l0,0c0,17.7,14.3,32,32,32h136.9c17.7,0,32-14.3,32-32l0,0
		c0-17.7-14.3-32-32-32H201.2z"/>
	<path class="st0" d="M423.2,934h-334c-4.4,0-8-3.6-8-8V70c0-4.4,3.6-8,8-8h780c4.4,0,8,3.6,8,8v309c0,17.7,14.3,32,32,32
		s32-14.3,32-32V70c0-39.7-32.3-72-72-72h-780c-39.7,0-72,32.3-72,72v856c0,39.7,32.3,72,72,72h333.9c17.7,0,32-14.3,32-32
		S440.8,934,423.2,934z"/>
	<path class="st0" d="M899.1,533.3c-51.4-51.4-119.7-79.7-192.3-79.7s-141,28.3-192.3,79.7c-51.4,51.4-79.7,119.7-79.7,192.3
		c0,72.7,28.3,141,79.7,192.3s119.7,79.7,192.3,79.7s141-28.3,192.3-79.7s79.7-119.7,79.7-192.3S950.5,584.7,899.1,533.3z
		 M706.8,933.7c-114.7,0-208-93.3-208-208s93.3-208,208-208s208,93.3,208,208S821.5,933.7,706.8,933.7z"/>
</g>
</svg>
