<svg xmlns="http://www.w3.org/2000/svg" viewBox="0 0 1000 1000"><title>画板 5</title><g id="图层_2" data-name="图层 2"><path d="M890,0H110A72,72,0,0,0,38,72V928a72,72,0,0,0,72,72H890a72,72,0,0,0,72-72V72A72,72,0,0,0,890,0ZM636.69,396.56a34.49,34.49,0,0,1,34.49-34.49h0a34.49,34.49,0,0,1,34.48,34.49V603.45a34.49,34.49,0,0,1-69,0ZM498.76,362.07h0a34.48,34.48,0,0,1,34.48-34.48h0a34.49,34.49,0,0,1,34.49,34.48V603.45a34.49,34.49,0,0,1-69,0ZM360.83,431a34.49,34.49,0,0,1,69,0V603.45a34.49,34.49,0,0,1-69,0ZM774.62,741.38H257.38A34.48,34.48,0,0,1,222.9,706.9V293.09a34.49,34.49,0,0,1,69,0V672.42H774.62a34.48,34.48,0,1,1,0,69Z"/></g></svg>