<?xml version="1.0" encoding="utf-8"?>
<!-- Generator: Adobe Illustrator 22.0.0, SVG Export Plug-In . SVG Version: 6.00 Build 0)  -->
<svg version="1.1" id="图层_1" xmlns="http://www.w3.org/2000/svg" xmlns:xlink="http://www.w3.org/1999/xlink" x="0px" y="0px"
	 viewBox="0 0 1000 1000" style="enable-background:new 0 0 1000 1000;" xml:space="preserve">
<path d="M199.4,923.1L34.9,759.5c-46.5-46.3-46.5-122,0-168.2l84.6-84.1l0,0l42.3-42.1l0,0L542.1,86.9
	c23.3-23.1,53.9-34.7,84.6-34.7c30.7,0,61.3,11.6,84.6,34.7l253.8,252.4c46.5,46.3,46.5,122,0,168.2L590.8,885.3h346.7
	c17.3,0,31.3,14,31.3,31.2c0,17.3-14,31.2-31.3,31.2H250C222.3,946.6,199.4,923.1,199.4,923.1z M77.2,633.3
	c-23.3,23.2-23.3,60.9,0,84.1l168.9,167.9h3.8c0.1,0,0.1,0,0.2,0h249.8l-338-336.1L77.2,633.3z M922.8,381.4L669,129
	c-11.2-11.1-26.2-17.3-42.3-17.3c-16.1,0-31.1,6.1-42.3,17.3L204.1,507.2l338.6,339.4l380.2-381.1
	C946.1,442.3,946.1,404.5,922.8,381.4z"/>
</svg>
